<?xml version="1.0" encoding="UTF-8"?>
<svg id="Layer_1" data-name="Layer 1" xmlns="http://www.w3.org/2000/svg" viewBox="0 0 288 144">
  <defs>
    <style>
      .cls-1 {
        fill: #53996e;
      }

      .cls-2 {
        fill: #66867f;
      }

      .cls-3 {
        fill: #215741;
      }

      .cls-4 {
        fill: #fefefe;
      }

      .cls-5 {
        fill: #cb5f4f;
      }

      .cls-6 {
        fill: #c3a87b;
      }
    </style>
  </defs>
  <path class="cls-3" d="M36.33,108.98c0-.41,1.14-2.97,1.37-3.78,4.38-15.8.93-34.37-.17-50.49-.1-1.5.2-3.36-.02-4.77-.16-1.05-1.61-2.75-2.11-3.88-2.53-5.74-1.83-15.38,6.44-14.7.09-1.56-.1-3.1-.28-4.64-.57-4.88-3.19-13.29-2.26-17.66.66-3.08,2.71-5.74,5.78-6.68,7.68-2.37,15.8,6.38,24.01,2.91.98-.42,1.77-1.4,2.95-1.24-.58,3.71-1.43,7.46-2.46,11.07-1.3,4.56-3.53,8.98-3.53,13.85,11.52.44,25.87-3.14,34.53,6.59,2.64,2.97,3.93,5.97,3.06,9.99-.81,3.73-5.11,9.79-4.43,13.2.31,1.56,4.58,1.33,5.94,1.84-1.05.84-2.51-.12-3.46-.25-2.81-.39-4.22.37-7.32-.83-2.94-1.14-7.66-4.11-6.72-7.78-1.29-.14-2.5.03-3.23,1.2-.37.59-.24,1.35-.85,1.67-.2-1.53,1.1-3.04,1.18-4.47.15-2.67-3.04-4.8-5.5-4.64.51.7,1.32.54,1.92,1.31,1.88,2.41-2.27,5.02-1.64,7.14.13.44.78.57.67,1.13-2.12.02-1.48,2.09-.92,3.44.97,2.33,3.33,4.41,5.96,4.11l-3.6-2.16,1.44.36-1.32-1.43,2.52,1.43c-.06-2.38-2.74-3.16-2.15-5.75l1.76,3.75c1.3,1.5,5.32,3.2,7.27,3.19.57,0,.83-.46,1.4-.49.86-.05,2.45.9,2.76-.69-.65-.03-1.23.32-1.86.42-.25.04-.83.25-.78-.18,1.08-.36,2.57-.72,3.7-.5.29.06-.03.7.26.75l8.98.46c.26-.46-.24-1.3-.24-1.44.01-1.64.99-3.3,2.75-3.37.54-.02,1.47.27,1.67.22.27-.06.31-.56.54-.7,2.17-1.35,3.93,3.09,6.31,2.29-1.09-.72-.94-2.9.55-2.48,1.36.38-.41,2.12,1.25,2.12h8.03c-.25-.57-1.3-.64-1.56-1.19-.23-.49,0-1.14-.15-1.4-.06-.1-1.63-.78-2.1-1.14-.82-.63-1.95-1.92-2.46-2.81-.73-1.27-1.4-4.66-3-4.92-.52-.08-2.73,1.13-1.81-.7.56-1.11,3.11-1.19,4.2-.96,1.29.26,3.02,2.14,3.95,2.31.56.1,1.21-.24,1.86-.23,1.12.02,2.63.98,2.76,2.18.68.14.5-.66,1.21-1.06,2.34-1.33,1.93,1.82,2.97,2.99.29.33,2.88,2.14,3.13,2.14h4.44c-.26-.51-1.23-.28-1.56-.96-.22-.46-.29-1.72.26-1.9,1.12-.37,1.02.88,1.55,1.29,1.72,1.32,8.26-.79,10.54-.59-.45.2-.83.56-1.44.48,0,.43,1.05.26,1.31.23,1.37-.15,2.05-.97,2.18-.97.33,0,.94.42,1.44.47,1.01.11,2.82.22,3.46-.7h-3.6c-.02-.36.85-.42,1.11-.45,1.29-.17,2.63-.11,3.93-.51-.22-.53-1.5-.27-1.86-.53-.16-.12-.33-.89-.53-1.14,1.53.62,2.73-.15,3.99-.23.56-.03,1.08.27,1.53.23,2.35-.22,4.71-.9,6.96-1.56-2.37-.17-4.55.8-6.96.84-.16,0-.32,0-.48,0-.4,0-.8,0-1.2,0-.29-.05-.65.05-1.02-.05-.59-.18-2.29-1.25-2.8-.89-.16.11-.22,1.14-.26,1.18-.2.19-2.76-.67-3.24-1.19-.85-.9-.28-1.62-.35-1.69-.46-.42-2.65,1.08-1.68,2.47.13.19.46.15.47.17.25.42-.69.75-.7,1.3-.02.73.95,1.04.72,1.8-1.81-.74-2.08-5.34-.42-6.05,2.68-1.15,1.95,1.82,3.67,1.98.83.08,1.7-.97,2.62-.97.74,0,2.17.97,2.64.97h4.08c.55,0,2.8-.59,3.72-.72,1.17-.17,2.48.04,3.6-.6,0-.43-3.33.35-3.6.36-.69.03-2.11-.1-2.35-.88-.14-.46-.18-1.78.31-1.99.93-.39.75,1.68,1.68,1.68h4.32c.66,0,2.59-.57,3.48-.72-.11.9.06.75.84.73.95-.03,4.06-.52,4.98-.78.2-.06.41-.2.41-.42-.87.16-1.41-.18-2.16-.48-.79-.31-1.42-.54-1.92-1.32-1.17-1.79.26-2.04.21-2.59-.04-.39-.75-1.32-.87-2.02-.27-1.61.53-4.48-1.03-5.43-1.74-1.06-1.86.37-2.49.48-1.46.27-1.04-1.68-.48-2.53,1.65-2.47,6.29-1.88,7.67.7.44.82.55,2.38.8,2.74.18.26,1.48.12,1.83.86.22.47-.02,1.31.34,1.57s1.72-.01,2.43.21c.63.2,1.49,1.35,2.31,1.77,3.8,1.94,8.57-.19,12.55-.2-1.69-1.43-2.36-3.93.34-4.56.5,2.9,2.59,2.71,4.93,3.36-1.23-.03-2.47.13-3.65-.3-.7.17-1.48-1.73-1.86-1.37-.72.68.14,1.57.79,1.96,2.51,1.52,5.42-.03,8.15.14l.41-.43c-.6.26-1.63-.24-1.92-.24l5.28-.24c-1.82-1.72-1.88-4.9,1.09-5.26.89-.11-.09,1.72.11,1.91,12.82,2.2,29.75-1.29,39.09,9.94.67.81,1.6,1.88,1.07,3s-1.15-.25-1.67-.24c-1.18,0-4.17,6.31-4.72,7.51-5.05,11.14-7.02,24.45-4.02,36.44.8,3.2,2.61,6.15,2.38,9.6-.26,3.97-3.27,6.33-7.19,5.87,0,1.59.52,3.4,1.34,4.77,1.34,2.25,3.93,3.04,5.01,5.77,2.36,5.98-3.04,9.09-8.39,8.62-3.61-.32-7.34-2.7-10.82-3.09-1.01-.11-7.62-.2-7.79.6-.2,1.23,1.6,2.79.96,3.77-.81,1.23-3.12.56-4.13-.13-2.96-2.01-2.17-7.92-1.6-10.98h-3.96c-1.55,0-5.53-1.56-6.91-2.44-5.58-3.53-4.94-9.84-3.76-15.53-.83.58-4.17,2.03-3.81,3.2.04.12,1.92,1.35.54,1.81-2.33.76-2.13-2.61-.56-3.45.04-.18-.23-.15-.35-.12-.43.13-3.17,1.92-3.48,2.27-.8.89-1.09,3.51-2.57,3.92-.59.16-.98-.2-1.4-.18-.69.03-1.09.71-2.57.4-1.15-.24-1.84-1.58-1.97-1.59-.39-.03-5.69,3.32-6.44,3.85-1.49,1.05-3.24,2.09-4,3.79,2.51-.46,1.13,2.53-.57,1.41-1.18-.77-.26-1.94.23-2.84l1.42-1.45c-2.04,1.05-5.1,2.19-6.71,3.84-.8.82-1.17,2.35-1.69,2.87-.22.22-.6.19-.75.32-.89.83-1.17,1.74-2.95.99-.96-.4-.65-1.72-.72-1.79-.09-.09-1.09.1-1.2,0-.03-.03.01-.53,0-.72,1.09-.15,1.7-1.22,2.88-.96.38.35-1.72,2.3-.12,2.63s.94-.54,1.09-.69,1.09.07,1.19-.03c.07-.07-.03-1.33.29-1.98.46-.95,3.29-2.21-.29-1.61-.14-.92,1.31-.46,1.68-1.08-1.53-.1-3.43.94-4.8,1.67-.65.34-1.44,1.08-1.91,1.32-2.62,1.36-5.46,2.74-8.15,3.96-.4.18-.74.4-1.2.35.14-.2.55-.16.48-.48-1.08-.02-1.88.9-2.87,1.2,0,.35,1.25.04,1.44,0-.37.74-1.61,1.05-1.82,1.9-.12.49,1.58,1.12.52,1.95-.64.5-1.66-.04-1.78-.65-.08-.44,1.03-1.81.92-2.48-.4-.41-6.42,3.59-6.95,4.43-.59.92-.39,2.59-1.02,3.17-.52.49-2.02.22-2.1.3-.06.06.06.98-.01,1.31-.26,1.22-1.29,1.96-2.49,2.06-3.25.29-1.87-1.3-2.15-1.7-.2-.28-1.68-.49-2.3-1.3l-1.56-4.44c-1.48.75-8.12,2.29-8.47,3.76-.11.46.62,1.47-.19,1.73s-1.41-.5-1.3-1.29c.09-.62,1.51-1.75,1.93-2.29-1.83.31-3.78,1.18-5.25,2.29s-3.75,4.36-6.01,3.33c-.46-.21-.78-1.08-1.19-1.45-1.2-1.09-1.95-.56-1.81-2.98l-12.11,2.64c1.02,2.76-2.76,2.27-1.41-.09.46-.8,1.74-1.09,2.61-1.11,0-.43-1.03-.25-1.32-.23-1.65.12-4.01.44-5.58.89s-4.13,2.37-5.24,2.45c-1.24.1-1.51-.85-1.92-.93-.24-.04-.91.64-1.64.71-1.19.11-2.71-.89-3.59,0-.43.43-.2,1.24-1.18,1.19-1.44-.07-1.72-2.17-1.42-3.31.36-1.36,2.29-2.5-.4-2.2l.48-.47c-3.5.08-6.95-.98-10.43-1.2-.99-.06-5.26-.16-5.87.12-.39.18-.65.88-1.13,1.02-.19.06-3.74.32-4,.29-1.44-.17-1.06-1.1-1.47-1.67-.36-.5-1.16-.11-1.69-1.67-.43-1.25.48-1.05-1.3-1.45-.81-.23-.11-.84-.24-.96-.16-.15-2.01-.29-2.4-.24-.05.44.87.38.96.48.14.16-.24.22-.24.24-.79.05-3.17-.83-3.7-.69s-.26,1.06-.49,1.41c-.63.99-2.29-1.04-.67-1.87.49-.25,1.32-.1,1.5-.53-.46.02-1.14-.52-1.53-.44-.27.06-.43.46-.64.56-.96.45-1.87-.94-2.56-1.27-1.17-.56-3.01.07-2.94-1.96.91-.31,1.8-.21,1.9-1.35.14-1.7-1.2-1.55-1.42-2.62-.18-.91.08-.97.95-.83,0,.12,0,.24,0,.36,4.91,4.82,12.26,7.27,18.84,8.97,34.85,8.99,65.92,3.3,99.32-7.58,14.11-4.6,26.52-10.93,40.11-16.47,11.48-4.68,36.12-12.6,46.73-3.82,2.48,2.05,5.05,7.77,1.44,9.78-3.17,1.76-9.05-2.96-11.81-4.45-8.1-4.38-19.64-6.87-27.37-.43-6.89,5.74-5.15,14.67,3.71,16.65s26.99-4.02,34.13,1.36c3.33,2.51,2.56,6.48-1.64,6.9-6.76.68-16.11-5.72-22.11-1.96-1.43.9-4.16,4.66-1.63,5.31.61.16.24-1.92.87-2.23,1.94-3.13,8.17-2.38,11.28-1.77,4.58.9,8.94,3.91,13.75,2.34,6.2-2.03,3.54-8.58-.93-11.08-9.13-5.09-21.9,1.39-32.06-.79-12.92-2.77-6.57-15.16,4-16.15,10.02-.94,13.98,3.07,21.84,7.35,4.38,2.39,9.98,3.39,11-3.06,1.27-8.08-8.36-12.91-15.12-13.43-19.89-1.52-43.68,10.7-61.75,18.08-38.06,15.54-70.91,23.81-112.13,13.58-4.75-1.18-11.98-3.01-16.32-5.02-1.21-.56-3.09-2.27-4.15-2.44ZM71.1,5c-3.62,2.27-8.04,1.9-12.04.89-5.54-1.41-12.02-6.1-17.22-.78-6.76,6.91,2.74,17.68,8.81,21.41,15.29,9.38,31.88.06,44.75,8,11.66,7.2,4.09,17.85-6.07,20.56-.23.26,1.89,2.04,2.27,2.06.9.04,4.35-2.18,5.23-2.83,5.68-4.17,8.52-10.31,4.44-16.81-7.7-12.24-27.1-6.38-39.09-8.62-8.69-1.62-21.94-8.93-20.51-19.39s15.04-1.27,20.43-.89c2.94.21,8.52.18,9-3.6ZM180.93,38.54c1.96.83,3.68,1.55,5.87,1.69,1.62.1,3.09-.27,4.69-.25l-.24-.48c.6.43,5.29-.29,5.28-.6-1.53-.28-3.13-.04-4.68-.12-.85-.05-3.97-.24-4.49-.49-.68-.32-2.56-3.81-3.19-.71-1.04-.23-1.66-2.78-1.8-2.87-1-.68-1.27,1.92-1.31,2.39-1.13-.98.46-2.62.37-3.45-.02-.16-.43-.13-.57-.44-.19-.45-.17-.96-.44-1.47-1.14-2.15-4.92-3.86-6.67-1.47,1.34-.27,2.96-.24,3.64,1.15.89,1.81-.15,3.86.2,5.79.14.73,1.41,1.79,1.37,2.17-.02.21-.55.44-.64.76-.29,1.06,1.72,2.2,2.6,2.37,1.59.29,5.93-.98,7.83-1.31,1.36-.24,2.24,0,3.75-.57.25-.09.71-.08.66-.42-.97-.13-1.83.4-2.76.47-2.18.18-5.81.04-7.8-.83-.92-.4-1.26-.57-1.67-1.32-.3-.13-1.54-.3-.96-.96.42-.48.88.81.96.96ZM219.94,34.09c-2.11-1-5.4-.16-6.28-2.73-1.55,1.03-.38,3.16.75,4.04,1.94,1.51,5.79.47,8.11.26.99-.09,2.19.15,3.14.03.46-.06.23-.46.69-.52,3.71-.47,7.91.67,11.65.5-.09-.48-.51-.39-.84-.48-3.81-.96-9.82-.78-13.9-.97-1.25-.06-2.51.25-3.32-.13ZM78.78,59.14c-.39-.63-.41-1.78-.97-2.27-.46-.4-3.69-1.46-4.71-2-9.16-4.86-22.96-23.13-32.54-22.79-6.56.23-6.1,9.51-4.35,13.88,6.37,15.85,37.55,19.1,52.27,19.65,36.22,1.35,64.7-10.4,98.49-20.19,17.11-4.96,39.93-10.81,57.55-6.1,3.09.83,7.39,2.4,9.07,5.2,1.23-.65-1.18-2.87-1.92-3.48-10.45-8.53-36-4.77-48.49-2.2-27.72,5.71-53.65,18.4-81.65,22.65-20.18,3.06-56.65,3.68-74.4-7.29-1.55-.96-2.91-2.13-4.33-3.22l.11-.47,1.56,1.2v-1.2c0,.36.11.71.32,1,1.76,2.41,8.08,5.27,11.01,6.02.25.06.75.37.9.05-3.56-2.06-8.01-2.18-9.54-6.76-.67-2.01.8-2.9-1.73-3.18l-.25,2.15c-.57-.03-.37-1.31-.49-1.43-.18-.17-1.86.11-2.15.35-.6.5.14,1.04-.12,1.56-3.72-2.86-6.14-9.14-5.1-13.72,1.21-5.34,7.01-1.99,9.75-.03,4.57,3.28,8.39,8.22,12.73,11.96,5.45,4.69,11.86,9.04,18.95,10.66ZM230.33,39.98c-.12.08-.26.48-.63.68-1.82.99-4.22.28-2.73-1.88-1.06-.6-2.08,1.11-2.75.95-.19-.04-1.11-2.1-1.57.72,1.43.46,2.07-.87,3.04-1.15.35-.1.65-.18.55.31-.39.92-3.29,1.61-3.97,1.1-.73-.54-.57-1.12.13-1.58-.73-.62-2.64.93-2.84.8-.04-.03-.01-.41-.18-.45-1.12-.26-1.9,1.28-.69,1.46.92.14,1.66-.76,2.51-.85-1.24,1.41-2.51,1.77-4.07.6,1.75-2.03-.17-.86-1.44-.71-.15.29,1.03.29.48.71-.04.03-.87.03-.94-.03-.19-.17.38-.84-.62-.69-.57.09-.91.73-1.32,1.08,1.02,1.23,2.13.54,3.35.12-.66,1.16-2.36,1.55-3.36.6-.7-.66.52-1.58-.36-1.57-1.23,0-2.11,1.69-3.47,1.45,1.93,1.84-.1.95-1.2.96.23-.38.39-1.03.72-1.44-.99-.27-.85.29-1.22.56-.45.33-1.08.16-.94,1.11-.74.11-.64-1.18-1.07-.96-.73.37-1.23,2.08.37,1.82.87-.14.92-1.1,2.15-1.1-.7,1.16-1.5,1.64-2.98,1.43-.46-.07-.94-.51-1.33-.47.03-.04.36-.65.47-.84.17-.29.34-.57-.11-.59-.26-.01-1.34.75-1.8.72l.36.95c-1.01-.29-.62-.33-.85-.77-.46-.88-1.74,1.14-1.43,1.73-.26-.12-.69-.12-.85-.48-.1-.23.72-.86.01-.96s-1.03.58-1.49.9c-.16.11-.5.03-.54.06-.09.08.88,1.69-1.07,0-.58.53-1.63,1.28-.43,1.64.59.17,1.3-.43,1.5.04-.48.1-.79.47-1.32.5-.63.04-1.63-.61-1.8-.5.21-.27.68-.85.6-1.2l-2.28.72c-.07.06.86.82.12.96-.68.12-.86-.6-1.23-.67-1-.22-1.91,2.18.26,1.86.14-.02,1.51-.42,1.58-.47-.69.5-1.44,1.13-2.46.92-.68-.13-1.05-1.04-2.09-.56l.95-.96c-.75-.62-1.73.81-1.85.84-.48.12-1.22-.09-1.75,0-.22.69.42.34.48.6.13.59-.36.27-.48.36-.12.4.45.13.49.36.27,1.57-1.66.32-2.17.36.18-.23.9-1.23.72-1.44-.43.21-.92.22-1.33.47-.55.34-.41,1.15-.71,1.21-.5.1-1.31-.8-2.03-.48,0,.66.25,1.12-.48,1.32.97,1.17,2.46.15,3.36-.6-.16.2-.1.54-.6.96-1.97,1.69-2.7-.06-4.2,0,.38-.38.85-.66,1.2-1.08-.84-.33-1.72.65-2.64.6.58,1.68-.62.19-.83.23-.5.09-2.05,1.21-1.57,1.68.78,0,1.67.07,2.4-.24-.73.44-.91,1.07-2.23.67-1.52-.46-.42-1.41-.41-1.51.04-1.14-1.8.64-1.93.71-.49.29-1.16-.23-.95.84l-.24-.72c-.46-.47-1.59,1.23-1.44,1.44.08.11.99.03.96.48-.75.08-2.81-.03-1.68-1.19-.14-.08-2.28.68-2.36.77-.14.16,0,.61-.04.66-.22.25-.74-.52-1.05-.46-.45.08-1.95,1.87-.05,1.66.73-.08,2.67-1.8,2.77-1.67.47.61-1.8,1.83-2.22,1.97-.87.29-2.35.42-2.34-.77,0-.44.45-.63.36-.95-1.07.55-2.23.51-2.76,1.79.75.38,1.45-.62,2.16-.84-.04.97-2.03,1.88-2.64,1.44-.05-.04.14-1.04-.72-.12l.72.12c-.07,1.14-1.27.34-2.4.72.39-.45.73-.94,1.2-1.32.11-.58-.45-.37-.78-.3-.91.19-1.26.36-1.14,1.38-.43.12-.57-.34-.89-.42-1.61-.43-.71.25-.76.76-.02.17-.71.06-.5.49.51,1.07,2.19-.37,2.88-.6-.04.05,0,.32-.13.47-.66.76-3.11,1.53-3.45.34-.17-.58.71-.83.35-1.28-.4.47-2.62.42-2.04,1.44-.38-.03-1.2-.33-1.4-.21-.09.05-.12.44-.27.57-.29.26-.73.26-.73.59,1.14.48,2.68.14,3.36-.96.15.02.32-.02.48,0,.72.88-5.34,3.31-3.84-.24-.22-.18-2.9,1.22-2.4,1.67l1.44-.72c.14.78-.56,1.38-1.28,1.21-.26-.06-.12-.46-.15-.49-.03-.03-.29.07-.42-.07-.2-.22.17-.79-.42-.65l-.84.84,1.44.6c-.66,1.12-1.79.08-2.64,0l.72-1.19c-.84-.34-2.36,1.68-2.52,1.67-.23-.01-.3-.77-.48-.71-.28.1-.7.71-.6,1.07.15.56,1.19.1,1.2.6-.53.58-2.39-.18-2.39-.6,0-.27.98-.2.71-.84-.34-.01-1.92.29-1.91.6,0,.27.98.2.71.84-.93-.16-1.26-1.33-2.15-.36,1.24.43-.03.66,0,.72,1.63.89-.16.84-1.2.6l.72-1.43c-.17-.14-1.35.26-1.58.46-.55.49,0,1.22-1.06.97v-.72c-.85.27-1.53.16-1.45,1.32.12,1.76,2.77-.48,2.88-.36.36.38-1.32,1.35-1.62,1.4-.91.14-1.36-.56-2.21-.68l.96-1.08c-.83-.53-2.27,1.01-2.8,1.05-.39.03-.55-.53-.8-.34-.06.05-.95,1.13-.95,1.21,0,.15.7.53.71.84-.84,0-1.28-.64-2.15-.35l1.19-1.2c-.89-.29-2.19.27-2.16,1.32-.44-.04-.64-1.32-1.2-.84l-.95,1.56c1.14.38,1.86-.08,2.88-.48-.46,1.03-2.83,1.26-3.31.43-.36-.63,1.17-1.88-1.4-.72-.33.15-.98.73-1.16.76-.06.01-.2-.8-.83-.48.14.9-.14.77-.96.72-.07.66.69.88,1.2.96-.73,1.27-1.45-.29-2.4-.25l.72-.84c-.19-.23-1.82.1-1.89.16-.13.13.02.62-.03.67-.26.28-1.29-.55-1.55-.48-.4.1-.07,1.07-1.09.48-.07.34.2.7.48.83.58.27,1.44-.14,1.67.36-.49-.03-.96.2-1.45.14-1.25-.17-.83-.9-2.63-.61.13-.25.32-.38.24-.72-.46-.28-1.87.82-1.68.95.38-.04.85.07,1.2,0-1.75,1.58-1.38-.73-2.27-.73-1.46,0-.26,1.83-.36,1.93-.87.12-1.26-.57-2.16-.48.47-.26,1.13-.97,1.44-1.44l-2.16.24c.69,1.47-.76.31-1.59.24-.73-.06-1.86.74-1.29,1.08.72.42,2.33.35,3.12.12-.06.03-.07.39-.59.48-.59.1-2.48.1-2.91-.22-.34-.26-.12-.81-.81-.74.1-.06.7-.54.72-.72l-2.4.24.12.72c-.93.22-.4-.49-.74-.74-1.08-.79-1.51.6-1.77,1.45.57.12,1.35.4,1.92.24-2.33.5-2.06-.35-2.75-.42s-2.54,1.93-4.51.42c-.31-.24-.31-.64-.41-.73l.72-1.2c-.67.05-1.89-.36-1.92.72-.31-.08-.84.13-1.15-.05s-.25-1.31-1.43-.75c-.34.16-.54.84-.48,1.13.11.54.87.42.91.86-1.44.03-2.82-1.13-1.2-2.15h-2.4s1.2.48,1.2.48c-.66,1.43-2.87-.71-3.24-.68-.25.02-.43.56-.6.75-.3.34-.81,0-.13.67l2.77.35c-1.49.57-3.68.81-4.08-1.08.35-.13.55-.32.48-.72-1.27-.1-2-.09-2.99.72-.24-1.61-1.65-.51-1.56.83,1.23.48,2.31-.53,3.43-.92.3-.1.39.09.41.09-1,1.24-3.96,2.26-4.8.48.07-.05.34-1.21.72-1.44-.62.08-1.66-.2-2.16.12-.17.11-.2.55-.35.6-.9.31-.5-.62-.6-.72-.19-.18-1.31.28-1.67.24.39,1.7,1.72.96,2.74.97.19,0,.33.23.38.23-1.15.28-2.1.8-3.14-.1-.27-.23-.44-.85-.6-.87-.48-.07-1.45.88-2.37.98-1.67.19-2.08-.54-3.48-.72.12-.13.28-.56.24-.72.71-.02,1.28-.21,1.92-.24-.04.2-.33.48-.23.81.36,1.12,3.47-.48,4.3-.33-.15-1.41-1.44-.35-2.09-.29-.55.05-1.26-.23-1.98-.19.03-.15.02-.31-.01-.46-.81-.24-1.98-.59-2.62.1.01.15.65.34.71.6-.25,0-1.13.05-1.19-.01-.07-.07.1-1.05-.38-1.19-.78-.22-1.58,1.04-.69,1.66.61.42,1.39.17,2.02.26-1.24,1.4-2.79-.32-3.6-1.2-.05-.06-.01-.35-.13-.47-.57-.54-1.07-.63-1.78-.25v-.72c-.39-.11-.69.18-.96.24.03-.23-.02-.48,0-.72-.78.12-3.07-.78-1.94.62.46.56,1.29.24,1.94.1-.02.19-.34.48-.23.81.23.72,2.42.27,3.11.39-.5.82-2.75.58-3.45.21-.2-.11-1.51-.87-1.59-.93-.02-.02.07-.32-.05-.42-.23-.18-.72.09-.93-.19s-.16-1.26-.21-1.3c-.54-.52-1.29,1.13-1.09,1.45.64.59,1.48.49,2.3.47-.37.91-2.06.4-2.56-.07-.87-.8.09-1.27-1.99-1.12.2-.04.62-.45.48-.72.6.22,1.03.33,1.68.24.5-.46-1.98-1.72-1.92-.48-.61-.34-1.95-1.59-2.37-.32-.37,1.12,1.33,1.43,2.13,1.28-.04,0-.28.24-.59.25-1.15.06-1.95-.17-2.53-1.21.06-.11-.05-.44.13-.7s.78-.41.83-.62c.19-.73-2.23-1.01-2.4-.83-.53.54,1.04.94.16.92-.96-.11-.49-.79-.75-1.4l-.84,1.2s-.75-.29-.96-.72c-.05-.09.03-.34,0-.48,1.73-.25-.25-1.54-.96-1.44-.21.03-.64.59-.72.48v-1.44c-.98-.31-2.34.78-.72.72-.89.9-.09,1.98.96,2.15.22,1.68.83,3.15.96,4.91.02.28.2,1.31-.23,1.31-.34-1-.29-2.18-.55-3.17-.15-.57-.7-2.45-.9-2.88-.16-.36-.91-.34-1.22-.76-.39-.54-.05-1.4-.7-1.82.06-.02.68-.53.71-.61.32-.83-.41-.46-.65-.63-.2-.14-.37-1.38-1.39-1.4-.62-.01-1.01,1.56-.8,1.89.05.09,1.75.74,1.89.75l-.36,1.92c-.29,0,.17-2.16-.84-1.92.19,1.29.63,2.51-.24,3.59-.4.07-.26-.59-.25-.84.04-.57.5-2.98.25-3.23-.81-.81-1.08,1.94-1.67,2.15.08-.62-.13-1.42,0-1.99.04-.19.46-.21.48-.28.28-.84-.49-.83-.85.12-.89,2.38.47,3.74.39,5.88-.02.44-.46.32-.5.51-1.19,5.31.07,12.58.23,18.18.2,6.81.23,14.07-1.5,20.77-.32,1.22-2.03,3.74.31,3.54.32-.62-.49-.78-.48-.83.14-.99.73-.25,1.33-.6-.2.83-.09,1.57.12,2.39-.44-.06-3.13-1.24-2.63.36.09.31.68.31.72.36v-.48c.44-.06.7,0,.96.36l-.96.12c.45.53.68,1.61,2,1.17,1.04-.35,0-1.57-.08-1.89.22.03.78.05.92-.04.31-.19.03-1.36.51-1.4l-.24,2.39c.4.19.83-.6.96-.48.05.05-.05.38,0,.48l-.96,1.55c.09.38,3.11,1.58,3.5,1.51.27-.05.24-.65.5-.69.24-.04.94.38,1.04.26.75-.87-1.9-1.13-2.39-1.2,0-.4,1.22-.27,1.44-.24.86.14,1.53,1.4,1.8,1.4.07,0,1.21-.68,1.26-.74.37-.38,1.19-2.89,1.02-3.54.95-.18.39,1.9.24,2.4-.19.62-.77,1.74-.96,2.4-.62-.47-1.36-.2-1.2.6.06.29.97.27,1.2.36.96.37,1.93.79,2.88,1.2.46-1.08-.05-.53-.49-1.06-.26-.31-.39-.94-.53-1.05-.07-.05-1.22-.1-.65-.77.06-.07.54.05.72,0,.2.22.67,1.38.74,1.43.08.05.52-.32.67-.22.09.06.16.68.38.7.43.04,1.08-1.51,3.24-.24-.93-.25-4.33.28-2.74,1.41,1.27.9,1.55-.46,1.68-.47,1.26-.09.45,1.09.57,1.21.52-.28,2.31.57,2.4.48.04-.05.48-1.14.48-1.2,1.27-.72,1.94-.9,3.29-.29.36.16.69.67.94.71.44.07.46-.22,1.29.06l-.72,1.91c.62.56,2.24-.37,2.4-.24.49.43-.99.54-.48.96.12.1,1.34-.06,1.68,0,.13-1.47-1.8-1.47-2.16-1.92.48,0,1.4-.06,1.78.22.27.19.09.69.14.74.2.2,2.06-.84,3.12-.36.27.12.34.49.47.6-.11-.23-2.11-.82-2.52,0-1,1.99,3.33,1.65,2.52,0,1.3,1.06.69.34,1.57.25.92-.1,2.84-.38,2.99.71-.48-.04-3.43-1.14-3.11.58.18.98,2.46-.1,3.11-.1-.17.56-1.08.33-.48.84l1.44.11c-.09-.88-.17-.96-.96-.96.03-.09.02-.36,0-.48.9.07.99-.66,1.56-.72.16-.02,2.63.3,2.76.36.52.26.43,1.04.48,1.08.25.24,2.85-1.61,3.35-.24-2.1-.62-3.37,1.83-.72,1.68l.24-.96c-.05,1.36,1.36,1.23,2.4,1.2l-.48-1.68c.32-.09.65-.39.96-.48l.6.24-.84.12c.09,2.7,1.21.92,2.64.84-.62.7.22,1.47.84,1.42.33-.03.41-1.08.59-1.42.51-.91,2.71-.97,3.46-.5.25.16.1.31.14.5-.77-.03-1.14-.6-2.17-.38-1.7.36-1.12,1.91.6,1.59.23-.04-.04-1.15.6-.73.09.06-.54,1.06,1.44.72.22-.64-.41-.39-.48-.64-.05-.19.03-.41,0-.56.62.02,1.09-.34,1.68-.48l-.48,1.68h3.84c-.68-.74-.49-1.13,0-1.92,1.49-.47,3.37-1.75,4.79-.36-.94,0-5.65.07-4.29,1.89s1.28-1.93,2.52-.83c.39.35.22,1.65,1.4.77.37-.28-.36-1.76,1.27-2.13.7-.16,2.43-.06,2.9.49.12.14.02.38.05.42-.48-.03-.86-.4-1.33-.47-3.14-.44-2.88,2.31-.73,1.68.27-.08.11-1.09.74-.97.53.96.93,1.1,2.04.96.2-.17-.55-.98-.72-1.2.33.02,1.13-.31,1.2-.24.05.05-.13.54.14.74.96.71,2.52-.8,3.69-.62-.67-.85-1.65-.5-2.52-.6-.36-.04-.73-.19-.35-.48,1.03-.46,2.67.49,3.22.49.1,0,.63-.97,1.5-1.16.29-.06,1.65-.12,1.75-.05.06.04-.06.4,0,.48-.41-.42-2.43.06-2.61.26-.14.16-.06,1.12.19,1.31.7.51,1.1-.32,1.46-.49.65-.31,1.41.29,1.19-.84.14.45.29.52,0,1.2l1.44-.24c-1.97-2.11,1.93-2.94,3.6-2.63.83.63-1.81.46-2.02.49-.72.12-1.87,1.12-1.33,1.66.17.18,2.62.03,1.68-.96,1.3-.41.99.79,1.2.96.06.04,1.04-.44,1.44-.24-.14-.83-.65-1.59.24-2.15.97-.17.07,1.14.87,1.4.37.12.88,0,1.29.03l-.24-.96c.09-.1.67.27.72.24-.02,1.18,2.19.58,1.67-.23-.05-.07-.74-.17-.95-.25-.63-.26-1.2-.48-1.92-.48.39-1.18,2.66.44,2.87.24.09-.09-.15-.72.79-1.25,1.53-.85,2.69,0,3.36-.21.12-.04.99-1.06,1.84-1.41l1.68.48c-.83-.03-2.31-.13-2.76.73-.19.37-.06.67-.12.95-.42.04-1.13-.01-1.2,0,.12-.99-2.11-.36-2.46-.18-.53.26-1.37,1.07-.5,1.35,1.19.38,1.49-.55,2.48-.92l-.24.72c.87-.16,1.7.02,1.92-.96.47-.04,1.11.1,1.51,0,.26-.06.27-.56.51-.74.4-.31,1.12-.18,1.47-.7.98.07-1.08.9-.84,1.19,1.59-.02,2.56-.14,1.92-1.91.24-.16.44-.7,1.03-1.01.93-.47,2.36-.82,3.04.17-.98-.17-1.73-.27-2.65.22-.45.24-1.36,1.06-.71,1.46,1.08.34,1.87.18,1.69-1.08.87.76,1.86.52,2.87.24-1.41-1.01-.57-1.47.48-2.15-.45.7-.9,1.72.34,1.67,1.14-.04.77-.82.88-.92.17-.15.85.06.94-.03.03-.03.03-.92,0-.96-.08-.08-1.35.05-1.68,0,.33-.14.37-.46,1.08-.5.64-.03,1.46.36,1.87.27.21-.04.34-.64.63-.87.9-.72,1.79-.87,2.89-1.06.16.74-.99.47-1.57.7-1.47.58-.89,1.72-1.06,1.93-.07.09-1.69-.72-1.68.72.18.16,2.42-.7,2.86-.85.2-.07.36-.44.66-.53.54-.17,2.85.05,2.47-1.13-.16-.49-.93-.22-1.2-.48.33-.57,1.09-.24,1.44-.36,0,.6.8,1.1,1.29.95.68-.22-.18-1.68,1.59-1.19-.04-.22.06-.55,0-.72.88-.14,1.13-.26,1.92-.72-.04.3.02.65,0,.96,2.17.27,1.42-.84,1.68-1.2.04-.05.93.59.96-.35-.08-.37-1.13-.47-1.44-.36.24-.07.34-.25.82-.27s1.38.32,1.58.17c.17-.13.32-.78.58-1.11.7-.87,1.85-1.05,2.9-.96.49.04.33.24.35.25-1.04.1-2.07.02-2.77.95-.74.97-.13,1.4.96,1.21.96-.16.58-1.18,1.45-1.44.35,1.14,1.67-.1,2.51,0-.29-.78-1.02-.24-1.69-.33-.4-.06-.44-.37-.46-.38.3-.03,1.04.09,1.18-.02.08-.06.12-.93.31-1.25.33-.57,2.11-1.24,2.78-1.31.6-.07,1.2.24,1.25.19.33-.35-.47-.77,1.2-1.2-1.08,2.01,1.61,1.39,2.83,1.03.26-.08,1.9-.71,1.97-.79.2-.28-.43-.74-.48-.95,1.41.13,3.31.82,2.64-1.44.61-.14.92.52,1.5.45.75-.1,1.85-1.27,2.82-1.17l-3.43-.39c-1.24.05-2.22.53-3.28,1.11.75-2.07,4-1.49,5.75-1.2-.9-2.47,2.84-3.61,4.55-2.39-.11-2.6,2.28-2,4.08-1.67-.36.9-1.39.04-2.07.01s-1.67.63-1.51,1.28c.31,1.3,3.94-.46,4.78-.58-3.06-4.22,3.83-2.37,4.08-2.63.04-.04-.07-.81.12-1.2.3-.64,2.9-1.35,3.48-.6-.51.25-1.16.04-1.75.17-1.27.28-1.67,2.03-.49,2.04,1.02.01,1.24-1.12,1.43-1.15.55-.08,2.44.88,2.48-.46-.42-.04-.63.02-.61-.6.04-1.56,1.9-2.38,3.25-1.79l-2.09.55c-.73.8-.53,1.07-.55,1.85.35.03,2.03-.12,2.16-.24.5-.5-.62-.39-.48-.71.45-.11,1.91.45,2.16.24.13-.11-.96-2.39,1.14-2.83.35-.07,1.85.07,1.98.2.73.7-1.11.23-1.29.24-3.14.3-.59,3.62.09.71l.48.96,1.92-.24c.23-.87-1.05-.33-.96-1.06.17-1.39,2.21-2.47,3.36-1.45-.7.3-2.07-.23-2.36.76-.38,1.32,1.53,1.15,1.64,1.03.08-.09-.13-.72.04-.92.04-.05,1.17-.5,1.28-.52.97-.21-.18,1.15-.12,1.2l1.44-.24c-2.61-2.58,2.15-3.89,3.36-2.15-.7-.04-2.67-.14-3.2-.01-.82.19,0,1.69,1.18,1.69.96,0,.27-1.13.35-1.2.43-.41,1.13.9,1.56.97.66.11,1.37-.32,2.04-.25.11-1.17-1.61-.51-1.91-.74-.09-.07.03-.4,0-.46.12,0,.39.28.57.25.19-.03.2-.49.54-.69.66-.39,3.71-1.58,4.16-.52-1.61.08-3.34-.54-2.88,1.68.93.03,1.76.22,1.68-.96.66.61,1.56.29,2.4.48l-.72-1.19c1.37-.13,3.85-2.24,4.55,0-.75-.26-3.73-.98-3.33.56.38,1.44,1.77,0,2.05-.04s.49.35.87.38c1.31.1.69-.85,1.01-1.61.57-1.35,3.14-.6,2.51,0-.61-.75-2.8.28-2.15.96.09.09,1.39-.77,2.4-.72-.44.47-1.91.62-1.91,1.08,0,.49,2.03.46,2.41.25.19-.72.19-1.29-.49-1.33.06-.06,0-.46.37-.7.96-.63,1.29.25,1.07-1.94.72.53.75,1.45,1.92,1.2v-4.91s.35-.48.48-.24c.91,1.31-.67,4.54.49,5.5,1.62,1.33.97-.99.95-1.66-.04-1.05-.12-2.6-.01-3.6.04-.36.05-.74.49-.83.46,1.01-.02,7.16.25,7.43.03.03.96.05.96,0v-4.31c.35-.04.43.63.46.86.11,1.03.09,3.28-.23,4.24-.09.26-.67.05-.47.65l2.16.48c.12-.34-.95-.2-.48-.71.03-.03.73-.23.81-.22.47.09.43,1.02.6,1.27.43.61,1.21-.21.82-.99-.25-.51-.66-.43-.79-.55-.25-.22.46-.11.5-.58.07-.76-.25-1.44-.27-2.16-.16-5.81.39-11.74,1.52-17.43.25-1.27.57-2.86.96-4.07.08-.25.06-.72.41-.67-1.38,7.02-2.7,14.12-2.39,21.32l.71-1.68c.03,1.26-.02,3.18.96,4.07l.24-.72c0,.32,0,.66.12.96.16.38,1.17,2.81,1.32,1.56l.24-2.28c0,1.4-.14,3.95,1.44,4.55.09-.79-.59-1.32-.7-2.05s.15-1.81-.04-2.35c-.16-.43-1.15-.13-1.31-1.57-.12-1.15.48-3.94-1.06-4.32.03.75-.07,1.52.01,2.26.06.6.85,1.07.1,1.57l-.84-2.28c.87.05.4-3.64.23-3.94-.05-.09-.95.66-.47-1.44.51,0,.06.78.29,1.15.07.12.52.12.63.44.12.37,0,1.81.3,1.99,1.32.81.28-1.94.46-2.14,1.13.12.87,2.04,1.02,2.94.04.22.1.72.42.66,0-1.04.09-2.02-.2-3.03s-1.08-3.83-1.4-4.58c-.17-.39-.56-.26-.56-.29v-4.07c.99-.23.23,1.85.48,2.16l.72-.24.24.96c-.15-.62,1.16-2.71,0-2.63l-.24,1.2c.02-.99.09-2.21.3-3.17.05-.23.08-.72.41-.66.21,0-.58,3.18.24,2.39.1-.1.5-2.47.5-2.77,0-.44-.47-.3-.51-.5-.1-.54.41-1.37.25-2,.48-.13-.02,2.18.71,1.44.12-.12.69-2.73.89-3.3,1.36-3.8,2.83-7.65,4.91-11.15.46-.78.99-1.55,1.63-2.2-.24-.36-.64-.47-1.04-.37-.28.07-.2.83-.63.61l.47-1.56-.96.48c.3-.72.06-1.07-.72-1.2,1.61-1.93-.35-.76-.48-.82-.64-.31-.11-1.28-1.08-1.1-1.16.22-.56,1.54.36,1.8,0,.19-1.11.09-.97.84-.51-.24-.21-1.47-.71-1.81-.55-.37-2.36.48-2.98.39-.26-.04-.22-.56-.39-.74.82.19,3.29.15,3.84-.72l-1.8-.48c-.45.18-.09.69-.12.71-1.17.6-.41-.9-.48-.95-.66-.2-1.75.47-1.68,1.2-.1-.09-1.57-1.06-1.67-1.09-.36-.12-1.1-.04-1.19-.14-.15-.14.35-1.09-.92-.6-.09.03.02.58-.54.15.12,2.99-.77.83-1.1.75-.15-.04-.75.18-1.06.21.05-.05-.01-.33.12-.48.44-.49,1.48-.15,1.32-.96-.47.05-1.1-.12-1.53.03-.39.13-.34.76-.51.69-.77-.34.07-2.04-1.68-.47-.34.31-1,.16-.37.84.78.85,1.74.44,2.65.35-.82.93-1.94.97-2.87.11-.57-.53-.27-1.59-1.45-.83.34-.18,1.01-.61,1.2-.96-.42.08-2.26-.11-2.4,0-.54.46.99.44.36.96-.66.19-1.21-1.19-1.44-1.2-.34,0-1.88,2.16.46,1.91.1-.01,1.67-.64,1.82-.72ZM187.88,41.9c-.94.04-1.92.18-2.84.4-.55.13-1.63.3-1.96.8,1.48.12,2.9-.11,4.27-.66.37-.15.65.14.53-.54ZM134.65,56.99c-.72.01-1.44,0-2.16,0,.27-1.29,1.28-.51,2.27-.47,5.38.21,9.92-1.19,15-2.65.18-.72-.58-.5-1.07-.47-1.89.11-3.95.91-5.88.95-.16,1.23,1.85-.27,2.16.48-1.32.35-2.84.63-4.2.72-.33.02-1.48.21-1.56-.23.54-.11,1.64-.18,1.92-.72h-4.68c-.82,0-3.37-1.13-4.08-1.68-1.24-.95-1.08-1.71-1.75-2.8-1.13-1.85-1.88.28-1.85,1.61-.91-1.15-1-2.63-2.58-3.17-1.1-.37-1.47.11-2.17.01-.39-.06-2.15-1.46-2.98-1.82-1.3-.55-2.71-.92-4.14-.77-.17.78.93.38,1.62.66,1.56.64,1.74,3.63,2.42,5.01.99,2.04,3.15,3.99,5.56,3.91.13.46-.48.62-.44,1.04.11,1.36,3.39,1.4,4.39,2.09,1.09.02,2.2-.22,3.25-.49.38-.1.74-.33,1.2-.24v-.23c-.6.07-1.5-.24-1.92.24-.32-.02-.64.01-.96,0,.44-.73,1.8-.71,2.64-.72.32,0,.64,0,.96,0l-.48.47c1.09-.13,2.81-.11,3.6-.95-1.38-.05-2.69.21-4.08.24ZM169.54,46.45v.24c.16-.08.16-.16,0-.24ZM39.78,52.83c-.24-.25-.48-.96-.93-.87-1.4,1,1.1,3.06,1.79,2.39.46-.44-.66-1.3-.87-1.52ZM148.08,52.44c-1-.04-2.31-.42-2.88.71.72-.02,1.46-.18,2.16-.36.27-.07.78.02.72-.35ZM56.24,53.4s.02-.5-.13-.7c-.97-1.33-1.09,1.28-.44,1.43.5.12,1.85,0,2.24-.37.97-.96-.67-.97-1.44-1.08l.24.6c.03.2-.46.13-.47.12ZM68.94,60.34c-2.61-1.22-6.5-2.6-7.38-5.68-.16-.57.26-1.55-.42-1.51-1.19.06-1.57,1.38-1.56,2.4-.45-.07-.15-.62-.83-.61-2.2.02-2.07,3.51.11,3.73-.15-.56.37-.78.6-1.2,1.58,1.37,3.84,2.06,5.88,2.39.23-.5-1.89-.82-.85-.95,1.37.76,2.77,1.01,4.21,1.43,1.56.46,2.99,1.11,4.67,1.21.28.02,1.33.17,1.33-.25l-5.75-.96ZM113.19,61.06c1.02.17,2.41-.12,3.48,0l-2.88-.48c-.31-.63.49-.78.48-.83-.04-.59-1.5-1.2-1.98-1.56-.54-.4-.3-1.07-1.5-.99-.61.04-.51.75-.6,1.22-.71-.04-.95-.77-1.78-.71-2.35.16-3.69,4.21-.99,4.56.39.05,2.34.25,2.05-.49-.84.01-1.78.21-2.16-.72.74.42,1.46-.04,2.02.02.96.1,1.95.7,3.02.46l-2.15-.6-1.09-.59,2.04.24c.14-.31-1-.25-.48-.72.14-.13,2.03,1.12,2.52,1.2ZM122.42,59.15c-1.35.06-2.75-.14-4.08.12,0,.2,3.62.13,4.08.12.74-.02,1.36-.23,2.03-.25,1.59-.05,3.15.32,4.69-.11,0-.27-4.89-.14-5.41-.13s-.93.23-1.31.25ZM120.26,60.35c-1.92-.12-3.81-.62-5.75-.48-.84.64,2.02.47,2.26.5.45.06.84.3,1.27.41l2.22-.43ZM39.69,66.57l.24-5.03c-.58.38-.7,2.06-.73,2.75-.03.62-.15,1.97.49,2.29ZM242.8,67.29c.27-.26.4-2.56.24-3.11-.34-.06-.32.42-.4.67s-.72,3.29.16,2.44ZM97.46,67.33c-.89-.86-2.55,1.52-.53,1.83.33.05,1.37-.21,1.69-.37s.29-.44.47-.55c.34-.21,1.06-.21,1.27-.6.33-.62-2.02-.46-2.16,0l.36.6c-1.24.03-.99-.82-1.1-.92ZM242.08,81.19c.04-.5,0-.99-.07-1.49-.03-.24-.07-.96-.41-.9.11.7-.72,2.4.48,2.39ZM238.72,80.95c-1.01-.09-.81,1.8-.66,2.46.34,1.49,1.8.87,1.38-.54l-.72.24v-2.15ZM232.25,83.83c.77,1.11,1.57.24.73-.85s-4.49-1.41-3.8.44c.54,1.44,1.84-.04,2.24-.08s.88.27,1.32.25l-.48.24ZM240.16,86.94c.01-.39-.58-2.61-1.2-2.15-.49,1.07,0,2.04,1.2,2.15ZM242.08,87.18c-.17-1.07-.9-2.02-1.91-2.4.17,1.07.9,2.02,1.91,2.4ZM243.76,89.57l-.18-1.14-1.26-1.5c-.03.29.91,3.24,1.44,2.63ZM193.4,91.02c-.88-.29-5.04-.68-5.05.59,0,.84,1.46,1.03,2.04.86.29-.09.04-.64.13-.73.11-.11,2.54.5,2.87-.72ZM184.05,94.61c-1.28-.45-3-.88-4.2,0-.62.45-1.17,1.34-.18,1.63,1.79.53,1.49-1.12,2.11-1.39.53-.18.39.66.71.7.15.02,1.76-.69,1.57-.93ZM192.44,97c-.55-.02-.91.41-1.42.58-1.49.5-3.02,1.47-4.34,1.93-.59.21-1.33,0-2.14.5-2.01,1.24.25,3,1.97,2.45.34-.11.55-.59.8-.64.32-.06.66.35.98.41,1.41.24,1.59-1.96,2.12-2.81.25-.4,2.33-2.1,2.02-2.42ZM224.57,102.63c-.06-1.15.04-2.32,0-3.47h-.24v5.51h.48c.25-.69-.22-1.58-.24-2.04ZM166.54,101.32c-.97.06-2.83.59-2.89,1.79-.03.69,1,.35,1.39.18.89-.39.51-1.32,1.5-1.5-.05.2-.32.42-.24.72.23.2,2.58-.45,2.64-.6.19-.52-.51-.34-.81-.4-.39-.07-1.24-.22-1.59-.2ZM167.29,107.81c-.14.34.19.73.55.68,1.38-1.14,3.44-1.61,4.87-2.57.31-.21.66-.27.55-.77-1.53.88-3.54,1.2-5.06,2.02-.11.06-.89.59-.91.64ZM158.63,106.35c.38-.53-1.11-1.16-1.44-.35-.43,1.04,1.37.44,1.44.35ZM158.87,110.66c-1.39.6-5.31,1.16-6.33,1.89-.3.21-.1.67-.14.98l4-1.4,2.47-1.48ZM45.92,116.89c-2.45-1.96-5.66-2.83-7.79-5.27-.25,1.19-.51,2.56-2.04,2.4-.06.64,0,.39.36.47,1.26.3,2.73.31,3.97.59,1.95.45,3.54,1.64,5.5,1.81ZM136.57,119.29c-.68.38-1.34.5-1.75.74-.24.13-1.03,1.03-1.12.94-.17-.19.71-1.07.83-1.19.53-.5,1.35-.9,1.8-1.57-1.43-.11-2.96,1.25-3.96,2.28l.6-1.44c-1.05-.11-2.88.09-3.11,1.33-.32,1.71.94,1.69.97,1.94.04.28-.28.93-.28,1.41-.02,2.48,4.08,1.25,3.38,4.19,2.6-.35,2.99-2.55,2.64-4.79,2.42,2.58,1.97-.15,2.58-1.62.3-.73,2.28-2.28,3.01-2.75.41-.26,1.14-.35,1.37-.55.31-.27.2-.79.24-.84.03-.04.46.27.95.15s1.16-.72,1.68-.98c.4-.2,1.21-.27,1.45-.47.37-.33.16-.99.24-1.07.21-.22,2.65.47,2.87-.73-.06-.04-2.43.51-1.68-.24.09-.09,2.99-1.05,2.16,0h.72c.08-.07-.22-.9-.27-.93-.73-.45-8.37,2.61-9.57,3.21-2.34,1.15-4.73,2.63-6.35,4.67.01-.52.53-1.04.84-1.43.22-.28.79-.7.96-.96.13-.07,1.44-.53.96-.96-.7-.62-.84.77-.96.96-.46.25-.81.5-1.2.72ZM62.47,116.41c.04-.98-.51-1.53-1.37-1.86-3.23-1.26-3.55,2.02-1.19,1.39.19-.05.15-.41.19-.44.35-.23,1.52,1.34,2.36.91ZM79.02,118.33c-.36-1.23-4.02-1.29-3.08.21.6.96,2.22-.87,3.08-.21ZM60.55,120.72c-1.43-.07-2.89.05-4.32,0l.24-.48c-.79-.09-1.75.13-2.51-.01-.48-.09-.74-.52-1.06-.59-.44-.1-2.69.34-2.91.12.1-.36-.33-.96.36-.97,1.86,0,4.03,1.5,6.11.96l-6.16-1.64c-1.2-.08-1.05,3.78,1.72,3.58.45-.03,1.44-.61,1.56-.5.13.12-.05,1.59,1.34,1.67,1.81.11,1.21-1.36,1.3-1.43.24-.18,3.7-.23,4.32-.24.37,0,2.4.1,2.4-.12-.78-.22-1.59-.32-2.4-.36ZM79.73,119.76c.23-1.6-1.02-1.29-2.16-.95.36.79,1.36.97,2.16.95ZM126.98,121.2s.09-.51-.12-.47l-1.72.43-1.76,1c.5-.15,3.47-.82,3.6-.96ZM118.34,122.16c-1.29.05-2.65.12-3.93.27-1.14.13-2.32.32-3.38.45-1.84.24-4.24-.24-3.67,2.22.25,1.08,1.45,1.11,1.88,1.71.54.76-.3,1.26,1,1.04,1.12-.19,1.87-.61,1.62-1.86,1.54.76,2.24-1.28,3.37-2.02l3.1-1.81ZM79.01,123.6c-3.08-.48-5.82,1.94-4.31,5.03,2-3.52,5.02,1.26,7.19-2.16.23,2.46,2.44.13,3.6-.36,3.45-1.45,8.52-1.43,12.23-1.8-.13-.57-.42-.29-.67-.31-.48-.05-1.21-.19-1.61-.18-3.3.06-7.73-.3-10.79.02-.75.08-1.4.53-2,.59-.63.06-1.3-.28-2.03-.06-.29.09-1.68,1.53-1.84,1.39-.11-.09.26-.81-.72-.24.3-.36-.06-1.62,0-1.68.13-.13,1.02.26.96-.24ZM105.87,123.84l-1.77.03-6.14,1.16,5.36-.51,2.55-.68Z"/>
  <path class="cls-3" d="M114.27,67.29c.07-.01.17-.23.24-.24-.04.07-.16.17-.24.24Z"/>
  <path class="cls-3" d="M104.67,67.77c-.18.11-.35.16-.48.24.15-.14.26-.22.48-.24Z"/>
  <path class="cls-3" d="M179.49,50.52c-.35.35-.48.59-.96.96.17-.32-.33-.91.96-.96Z"/>
  <path class="cls-3" d="M104.19,68.01s.07.31-.16.49c-.42.33-1.02.37-1.52.47.09-.03,1.44-.82,1.68-.96Z"/>
  <path class="cls-3" d="M241.36,41.66c-.19-.04-.22,0-.24-.24.09.08.16.16.24.24Z"/>
  <path class="cls-3" d="M109.47,68.01c-.18.1-.2.16-.48.24.12-.06.11-.2.48-.24Z"/>
  <path class="cls-3" d="M184.29,49.56c.07-.09.16-.16.24-.24-.08.08-.15.17-.24.24Z"/>
  <path class="cls-3" d="M172.06,98.92c-.12.31-.08.62-.37.95-.2.22-1.33.85-1.53.71-.52-.36.2-1.19-1.7-.7.22-.42.92-.83,1.38-.91.24-.04,1.92-.07,2.22-.05Z"/>
  <path class="cls-3" d="M203.71,43.81c.06-.06.07-.22.24-.24-.08.09-.14.16-.24.24Z"/>
  <path class="cls-3" d="M203.71,43.81c-.25.23-.33.57-.73.83-.25.16-.55.07-.7.13.08-.03,1.3-.85,1.44-.96Z"/>
  <path class="cls-3" d="M173.02,97.72c-.13.36-.32,1.08-.24,1.44-.15-.01-.43-.22-.72-.24.08-.2-.06-.51.22-.86.25-.32.55-.23.74-.34Z"/>
  <path class="cls-3" d="M155.51,105.39c-.05.02-.89.44-.96.48.42-.6.44-.33.96-.48Z"/>
  <path class="cls-3" d="M184.53,49.32c.07-.06.12-.23.24-.24-.07.09-.16.16-.24.24Z"/>
  <path class="cls-3" d="M202.27,44.77c-.87.34-.46.58-1.68,0,.47-.09,1.3.12,1.68,0Z"/>
  <path class="cls-3" d="M154.31,106.35c.04-.29.11-.3.24-.48-.03.02-.07.38-.24.48Z"/>
  <path class="cls-3" d="M178.53,51.48c-.21.16-.36.16-.48.24.09-.04.47-.22.48-.24Z"/>
  <path class="cls-3" d="M194.36,46.45s.1-.3.24-.48c-.02.01-.11.28-.24.48Z"/>
  <path class="cls-3" d="M152.39,107.07c-1.86.29-1.63.54-2.88.96,0-1.31,2.68-1.53,2.88-.96Z"/>
  <path class="cls-3" d="M194.36,46.45c-.12.18-.12.46-.3.65-.11.11-.37.03-.42.07.03-.02.01-.38.25-.58.15-.13.44-.1.47-.14Z"/>
  <path class="cls-6" d="M105.39,60.34c0,.14.5.98.24,1.44l-8.98-.46c-.29-.05.03-.7-.26-.75-1.13-.22-2.62.14-3.7.5-.06.43.52.22.78.18.62-.1,1.2-.45,1.86-.42-.31,1.59-1.9.64-2.76.69-.57.03-.83.49-1.4.49-1.94,0-5.97-1.69-7.27-3.19l-1.76-3.75c-.58,2.59,2.09,3.37,2.15,5.75l-2.52-1.43,1.32,1.43-1.44-.36,3.6,2.16c-2.63.3-5-1.77-5.96-4.11-.56-1.35-1.2-3.42.92-3.44.1-.55-.54-.69-.67-1.13-.64-2.12,3.52-4.73,1.64-7.14-.6-.77-1.41-.61-1.92-1.31,2.46-.16,5.65,1.97,5.5,4.64-.08,1.43-1.39,2.94-1.18,4.47.6-.32.48-1.08.85-1.67.73-1.18,1.94-1.34,3.23-1.2-.94,3.67,3.77,6.64,6.72,7.78,3.11,1.2,4.51.44,7.32.83.95.13,2.41,1.09,3.46.25.09-.07.17-.15.24-.24ZM82.85,51.72c-.72-.19-.51.59-.49,1.09.03.79.26,1.8.61,2.51.67-.96-.28-2.5-.12-3.59ZM91.01,58.91c-.48.01-2.7.98-2.16,1.67.08.11,2.06-1.36,2.16-1.67ZM90.29,60.82l1.92-1.44c-.78-.29-3.37,1.37-1.92,1.44l-.24.48c.13.09,2.89-.07,2.64-.96l-2.4.48Z"/>
  <path class="cls-6" d="M151.67,50.76c.24-.76-.73-1.07-.72-1.8.01-.55.96-.88.7-1.3-.01-.02-.34.02-.47-.17-.97-1.39,1.22-2.89,1.68-2.47.07.06-.5.78.35,1.69.48.51,3.04,1.38,3.24,1.19.04-.04.1-1.07.26-1.18.51-.36,2.21.71,2.8.89.36.11.73,0,1.02.05.16.03.87.64,1.2,0,.16,0,.32,0,.48,0v.72c-.45.04-.96-.26-1.53-.23-1.26.08-2.46.85-3.99.23.21.26.37,1.02.53,1.14.37.26,1.64,0,1.86.53-1.3.4-2.64.34-3.93.51-.26.03-1.12.09-1.11.45h3.6c-.64.92-2.45.81-3.46.7-.5-.06-1.11-.48-1.44-.47-.13,0-.81.81-2.18.97-.26.03-1.32.19-1.31-.23.61.08.98-.28,1.44-.48.53-.23.64.31.96-.72Z"/>
  <path class="cls-6" d="M159.83,111.38c.47-.25,1.27-.98,1.91-1.32,1.37-.73,3.27-1.78,4.8-1.67-.36.61-1.82.16-1.68,1.08,3.58-.6.76.66.29,1.61-.32.65-.22,1.91-.29,1.98-.1.1-1.03-.13-1.19.03s.44,1.01-1.09.69.49-2.28.12-2.63c-1.17-.26-1.78.81-2.88.96-.01-.24,0-.48,0-.72Z"/>
  <path class="cls-6" d="M208.03,35.67c.29,0,1.31.51,1.92.24l-.41.43c-2.73-.17-5.64,1.38-8.15-.14-.65-.39-1.51-1.29-.79-1.96.38-.36,1.16,1.55,1.86,1.37,1.19.43,2.42.28,3.65.3.73.01,1.31-.25,1.92-.24Z"/>
  <path class="cls-3" d="M70.62,124.08c-.89.53-5.14-.04-5.52.48-.05.07.72,1.38-.15,1.65-1.17.36-1.91-.9-1.15-1.88.79-1.03,4.22-.8,5.51-.72.4.02,1.19-.03,1.31.46Z"/>
  <path class="cls-6" d="M179.49,42.85c.74.3,1.29.65,2.16.48,0,.22-.21.37-.41.42-.92.26-4.03.76-4.98.78-.78.02-.95.18-.84-.73.32-.05.64-.19.96-.24-.08.85.2.27.62.26.84-.03,1.67-.02,2.5-.02.02-.16-.02-.32,0-.48s-.01-.32,0-.48Z"/>
  <path class="cls-6" d="M45.92,118.57s.38-.08.24-.24c-.09-.1-1.01-.04-.96-.48.39-.05,2.24.09,2.4.24.12.12-.58.73.24.96-.31-.07-1.9-.15-1.92-.48Z"/>
  <path class="cls-2" d="M167.98,45.73c.27-.01,3.59-.79,3.6-.36-1.12.63-2.43.43-3.6.6v-.24Z"/>
  <path class="cls-6" d="M149.52,116.41c-.19.04-1.44.35-1.44,0,1-.3,1.79-1.21,2.87-1.2.08.32-.33.28-.48.48-.13.18-.16.58-.28.67-.03.02-.42,0-.68.05Z"/>
  <path class="cls-3" d="M179.49,43.33c-.02.16.02.32,0,.48-.83,0-1.67-.01-2.5.02-.41.02-.7.59-.62-.26.97-.14,2.13-.2,3.12-.24Z"/>
  <path class="cls-1" d="M208.27,42.61c1.1,0,3.13.89,1.2-.96,1.36.24,2.24-1.44,3.47-1.45.88,0-.34.91.36,1.57,1,.94,2.7.56,3.36-.6-1.22.42-2.33,1.11-3.35-.12.4-.34.75-.99,1.32-1.08,1-.15.43.51.62.69.07.06.89.06.94.03.55-.43-.62-.42-.48-.71,1.26-.15,3.18-1.32,1.44.71,1.56,1.17,2.83.81,4.07-.6-.85.09-1.59.99-2.51.85-1.21-.18-.43-1.72.69-1.46.17.04.14.42.18.45.2.14,2.12-1.42,2.84-.8-.7.46-.86,1.04-.13,1.58.68.5,3.58-.18,3.97-1.1.1-.49-.21-.41-.55-.31-.97.28-1.61,1.62-3.04,1.15.46-2.82,1.38-.77,1.57-.72.67.16,1.69-1.55,2.75-.95-1.49,2.16.91,2.87,2.73,1.88.37-.2.51-.61.63-.68,1.18-.76.88.29,1.45.83.92.87,2.04.82,2.87-.11-.91.1-1.87.5-2.65-.35-.63-.69.02-.54.37-.84,1.75-1.56.91.13,1.68.47.16.07.12-.55.51-.69.43-.15,1.06.02,1.53-.03.16.81-.88.47-1.32.96-.13.15-.07.43-.12.48.31-.03.91-.25,1.06-.21.32.08,1.22,2.24,1.1-.75.56.43.45-.12.54-.15,1.27-.49.77.46.92.6.1.09.83.01,1.19.14.09.03,1.56,1,1.67,1.09.02.24.05.2.24.24.17.18.13.7.39.74.62.08,2.43-.77,2.98-.39.5.34.2,1.57.71,1.81-.14-.75.96-.65.97-.84-.92-.26-1.52-1.58-.36-1.8.97-.19.44.79,1.08,1.1.13.06,2.08-1.11.48.82.78.13,1.02.48.72,1.2l.96-.48-.47,1.56c.42.21.35-.55.63-.61.4-.1.8,0,1.04.37-.64.65-1.17,1.42-1.63,2.2-2.08,3.49-3.55,7.34-4.91,11.15-.2.57-.77,3.18-.89,3.3-.74.75-.24-1.57-.71-1.44.16.63-.35,1.46-.25,2,.03.19.51.06.51.5,0,.31-.4,2.67-.5,2.77-.82.79-.03-2.39-.24-2.39-.33-.06-.36.43-.41.66-.21.96-.28,2.18-.3,3.17l.24-1.2c1.15-.08-.16,2.01,0,2.63l-.24-.96-.72.24c-.25-.31.51-2.39-.48-2.16v4.07s.39-.11.56.29c.32.75,1.13,3.6,1.4,4.58s.2,2,.2,3.03c-.31.06-.38-.44-.42-.66-.15-.9.11-2.82-1.02-2.94-.18.2.86,2.94-.46,2.14-.3-.18-.18-1.62-.3-1.99-.11-.32-.55-.32-.63-.44-.23-.37.22-1.15-.29-1.15-.48,2.1.42,1.35.47,1.44.17.3.64,3.99-.23,3.94l.84,2.28c.74-.49-.04-.97-.1-1.57-.08-.75.02-1.52-.01-2.26,1.54.38.94,3.17,1.06,4.32.16,1.44,1.15,1.14,1.31,1.57.2.55-.06,1.65.04,2.35s.79,1.26.7,2.05c-1.58-.6-1.44-3.15-1.44-4.55l-.24,2.28c-.16,1.25-1.17-1.17-1.32-1.56-.12-.3-.11-.65-.12-.96l-.24.72c-.98-.9-.93-2.81-.96-4.07l-.71,1.68c-.31-7.2,1.01-14.3,2.39-21.32-.35-.06-.32.42-.41.67-.39,1.22-.71,2.8-.96,4.07-1.13,5.7-1.68,11.62-1.52,17.43.02.72.34,1.4.27,2.16-.04.47-.75.37-.5.58.13.12.54.04.79.55.39.78-.39,1.61-.82.99-.17-.25-.14-1.18-.6-1.27-.08-.02-.78.19-.81.22-.48.52.6.37.48.71l-2.16-.48c-.2-.6.38-.39.47-.65.31-.96.34-3.21.23-4.24-.03-.23-.1-.9-.46-.86v4.31s-.92.03-.96,0c-.26-.26.21-6.42-.25-7.43-.44.09-.45.47-.49.83-.11,1-.03,2.55.01,3.6.03.67.68,2.99-.95,1.66-1.17-.96.42-4.19-.49-5.5-.13-.24-.48.21-.48.24v4.91c-1.16.25-1.19-.67-1.92-1.2.22,2.19-.11,1.31-1.07,1.94-.37.24-.31.63-.37.7-1-.06-2.31.81-2.4.72-.65-.68,1.55-1.71,2.15-.96.63-.59-1.94-1.34-2.51,0-.32.76.3,1.71-1.01,1.61-.38-.03-.6-.42-.87-.38s-1.67,1.48-2.05.04c-.4-1.54,2.58-.82,3.33-.56-.7-2.23-3.18-.12-4.55,0l.72,1.19c-.84-.18-1.74.13-2.4-.48.08,1.18-.75.99-1.68.96-.47-2.22,1.27-1.6,2.88-1.68-.45-1.05-3.5.14-4.16.52-.34.2-.35.66-.54.69s-.45-.24-.57-.25c-1.21-1.73-5.96-.43-3.36,2.15l-1.44.24c-.06-.05,1.09-1.41.12-1.2-.11.02-1.24.47-1.28.52-.16.2.05.83-.04.92-.11.12-2.02.29-1.64-1.03.29-1,1.66-.46,2.36-.76-1.15-1.02-3.19.06-3.36,1.45-.09.73,1.19.2.96,1.06l-1.92.24-.48-.96c-.68,2.9-3.23-.41-.09-.71.18-.02,2.02.46,1.29-.24-.13-.13-1.64-.27-1.98-.2-2.09.44-1,2.71-1.14,2.83-.25.22-1.7-.35-2.16-.24-.14.33.98.22.48.71-.13.12-1.8.27-2.16.24.02-.78-.19-1.05.55-1.85l2.09-.55c-1.35-.58-3.21.23-3.25,1.79-.01.62.19.56.61.6-.04,1.34-1.93.38-2.48.46-.2.03-.41,1.16-1.43,1.15-1.18-.01-.78-1.76.49-2.04.58-.13,1.24.08,1.75-.17-.58-.76-3.18-.04-3.48.6-.19.39-.08,1.16-.12,1.2-.25.26-7.13-1.59-4.08,2.63-.84.11-4.47,1.88-4.78.58-.15-.65.87-1.3,1.51-1.28.67.02,1.71.88,2.07-.01-1.79-.32-4.18-.92-4.08,1.67-1.71-1.21-5.45-.08-4.55,2.39-1.75-.29-5.01-.87-5.75,1.2-.19.11-.49.02-.74.34-.28.35-.14.65-.22.86-.3-.02-1.98,0-2.22.05-.46.08-1.15.49-1.38.91-1.67.43-.87.85-1.2,1.2-.04.05-.65-.26-1.25-.19-.68.07-2.46.75-2.78,1.31-.18.32-.23,1.19-.31,1.25-.14.12-.87,0-1.18.02.03.01.06.32.46.38.67.1,1.4-.45,1.69.33-.84-.1-2.17,1.14-2.51,0-.87.26-.5,1.27-1.45,1.44-1.09.19-1.7-.23-.96-1.21s1.73-.85,2.77-.95c-.02-.01.15-.21-.35-.25-1.06-.09-2.21.09-2.9.96-.26.33-.41.99-.58,1.11-.21.15-1.13-.19-1.58-.17-.48.02-.58.2-.82.27-.52.15-.54-.12-.96.48-.13.18-.2.19-.24.48-.79.46-1.04.58-1.92.72-.2-.57-2.88-.35-2.88.96-.35.12-1.11-.21-1.44.36.27.26,1.04,0,1.2.48.39,1.18-1.93.96-2.47,1.13-.3.09-.46.47-.66.53-.44.15-2.68,1.01-2.86.85-.02-1.44,1.61-.63,1.68-.72.17-.21-.41-1.35,1.06-1.93.59-.23,1.73.04,1.57-.7-1.1.2-2,.35-2.89,1.06-.28.23-.42.83-.63.87-.41.08-1.23-.31-1.87-.27-.72.04-.75.35-1.08.5-.08.04-.43.21-.48.24-1.05.68-1.89,1.14-.48,2.15-1.02.29-2.01.53-2.87-.24.18,1.27-.61,1.43-1.69,1.08-.64-.4.26-1.22.71-1.46.92-.49,1.66-.4,2.65-.22-.68-.99-2.11-.64-3.04-.17-.6.3-.79.85-1.03,1.01-.88.57-1.59-.75-3.36,0-.85.36-1.72,1.38-1.84,1.41-.67.22-1.84-.64-3.36.21-.95.53-.71,1.16-.79,1.25-.21.2-2.48-1.42-2.87-.24-.63,0-.88-.12-1.44.24-.89.57-.38,1.33-.24,2.15-.39-.2-1.38.29-1.44.24-.21-.16.1-1.37-1.2-.96.94.98-1.51,1.13-1.68.96-.54-.54.61-1.54,1.33-1.66.21-.04,2.85.14,2.02-.49-1.66-.31-5.56.52-3.6,2.63l-1.44.24c.29-.68.14-.75,0-1.2-.03-.11-.19-.17-.24-.24-.05-.08.06-.44,0-.48-.1-.07-1.46-.01-1.75.05-.87.19-1.4,1.16-1.5,1.16-.56,0-2.2-.96-3.22-.49-.38.29,0,.44.35.48.87.1,1.85-.25,2.52.6-1.17-.18-2.73,1.33-3.69.62-.27-.2-.09-.69-.14-.74-.06-.07-.87.26-1.2.24-.03-.04.07-.29-.05-.42-.46-.54-2.2-.64-2.9-.49-1.62.37-.89,1.85-1.27,2.13-1.18.88-1.01-.42-1.4-.77-1.24-1.1-1.17,2.64-2.52.83s3.35-1.9,4.29-1.89c-1.42-1.4-3.3-.11-4.79.36-.35.11-.5.26-.96.24-.36-.02-.78-.26-1.44-.24-.59.02-.64.16-.96.24-.59.14-1.06.5-1.68.48-.04-.19.11-.35-.14-.5-.75-.47-2.94-.41-3.46.5-.46.04-1.7-1.4-1.84-1.43-.79-.18-1.34.04-1.99.23-.31.09-.64.39-.96.48-1.34.39-1.13-.15-1.44-.24-.5-1.37-3.1.48-3.35.24-.04-.04.05-.82-.48-1.08-.12-.06-2.6-.37-2.76-.36-.58.06-.66.79-1.56.72-.15-1.09-2.07-.81-2.99-.71-.88.09-.27.81-1.57-.25-.13-.11-.2-.47-.47-.6-1.06-.48-2.92.55-3.12.36-.05-.05.13-.55-.14-.74-.38-.27-1.29-.22-1.78-.22-.17-.21.22-.4-.72-.72-.83-.28-.85.02-1.29-.06-.25-.04-.58-.55-.94-.71-1.35-.61-2.02-.43-3.29.29,0-.03-.18-.26-.24-.48-.19-.73-.44-1.61-1.2-.48-.48.05-.68-.31-.96-.48-2.16-1.28-2.81.28-3.24.24-.22-.02-.29-.64-.38-.7-.15-.1-.6.26-.67.22-.07-.04-.54-1.2-.74-1.43,1.2-.36.06-.77-.11-.97-.26-.32.11-.93-.85-.7.15-.49.71-2.57-.24-2.4.17.65-.65,3.15-1.02,3.54-.05.05-1.19.74-1.26.74-.27,0-.93-1.25-1.8-1.4.03-.23-.05-.52,0-.72.07-.29.57-1.84.12-1.92-1.11-.19-.43,1.27-.6,1.92-.91,0-2.13.45-2.64-.48-.05-.1.05-.43,0-.48-.13-.12-.56.66-.96.48l.24-2.39c-.48.04-.2,1.21-.51,1.4-.15.09-.7.07-.92.04-.2-.82-.32-1.56-.12-2.39-.6.35-1.19-.4-1.33.6,0,.05.8.21.48.83-2.33.2-.62-2.32-.31-3.54,1.72-6.7,1.69-13.96,1.5-20.77-.16-5.59-1.42-12.87-.23-18.18.04-.2.49-.08.5-.51.08-2.14-1.28-3.5-.39-5.88.35-.94,1.13-.95.85-.12-.02.07-.44.09-.48.28-.13.57.07,1.38,0,1.99.59-.21.87-2.96,1.67-2.15.25.25-.21,2.66-.25,3.23-.02.26-.15.91.25.84.87-1.08.43-2.3.24-3.59,1.01-.24.55,1.92.84,1.92l.36-1.92c.07,0,.18.02.24,0,.65.42.32,1.28.7,1.82.3.42,1.06.4,1.22.76.19.43.75,2.31.9,2.88.26.99.2,2.17.55,3.17.43,0,.26-1.03.23-1.31-.13-1.76-.74-3.23-.96-4.91.43.07.99-.05,1.44,0,.21.43.92.67.96.72.1.13.22.41.48.72.13.15.15.6.28.68.28.15.74-.13.93.19.35.6.37,3.09.47,3.92.19-.03.67.05.72,0,.14-.13-.44-3.15-.48-3.83.11-.09.45-.17.48-.24.59,1.04,1.38,1.27,2.53,1.21.31-.02.54-.25.59-.25,2.08-.15,1.13.32,1.99,1.12.51.47,2.19.98,2.56.07.08.06,1.39.82,1.59.93.7.37,2.95.61,3.45-.21.8.88,2.36,2.6,3.6,1.2,1.4.19,1.82.91,3.48.72.92-.1,1.89-1.05,2.37-.98.16.02.33.64.6.87,1.04.91,1.99.38,3.14.1.18.02.92.03.96,0,.84,1.78,3.8.76,4.8-.48.08-.01.18.02.24,0,.4,1.88,2.58,1.64,4.08,1.08l-2.77-.35c-.68-.66-.18-.33.13-.67.17-.19.35-.73.6-.75.37-.03,2.58,2.12,3.24.68l-1.2-.48h2.4c-1.62,1.02-.24,2.18,1.2,2.15-.03-.45-.8-.32-.91-.86-.06-.29.15-.97.48-1.13,1.18-.56,1.13.57,1.43.75s.84-.03,1.15.05c.37.09.92.24,1.2.48.1.09.1.49.41.73,1.97,1.5,3.85-.48,4.51-.42.69.06.42.91,2.75.42.5-.11,1.1-.14,1.52-.47.23-.18.14-.47.16-.49.13-.08.3-.13.48-.24.7-.07.47.48.81.74.43.32,2.32.32,2.91.22.52-.09.54-.45.59-.48.28-.08.3-.14.48-.24.9-.09,1.29.6,2.16.48.11-.1-1.1-1.92.36-1.93.89,0,.52,2.31,2.27.73.07-.07.2-.17.24-.24,1.8-.29,1.38.45,2.63.61.49.07.96-.16,1.45-.14-.23-.5-1.1-.09-1.67-.36-.28-.13-.55-.49-.48-.83,1.01.59.69-.38,1.09-.48.26-.07,1.29.76,1.55.48.05-.06-.1-.55.03-.67.07-.07,1.7-.4,1.89-.16l-.72.84c.95-.05,1.67,1.51,2.4.25-.51-.08-1.27-.3-1.2-.96.82.05,1.1.18.96-.72.64-.31.77.49.83.48.18-.03.83-.61,1.16-.76,2.57-1.16,1.04.08,1.4.72.48.83,2.85.59,3.31-.43-1.02.4-1.74.86-2.88.48l.95-1.56c.56-.48.76.8,1.2.84-.03-1.05,1.27-1.61,2.16-1.32l-1.19,1.2c.88-.28,1.32.36,2.15.35,0-.3-.71-.68-.71-.84,0-.08.88-1.16.95-1.21.25-.19.42.37.8.34.53-.04,1.96-1.57,2.8-1.05l-.96,1.08c.85.12,1.3.82,2.21.68.3-.05,1.98-1.02,1.62-1.4-.12-.12-2.76,2.12-2.88.36-.08-1.16.59-1.05,1.45-1.32v.72c1.07.25.52-.48,1.06-.97.22-.2,1.4-.6,1.58-.46l-.72,1.43c1.04.25,2.83.29,1.2-.6-.03-.06,1.24-.28,0-.72.9-.98,1.22.2,2.15.36.27-.64-.71-.57-.71-.84,0-.31,1.57-.61,1.91-.6.27.64-.72.57-.71.84,0,.41,1.86,1.18,2.39.6-.01-.5-1.04-.04-1.2-.6-.1-.36.32-.97.6-1.07.17-.06.25.7.48.71.15,0,1.68-2.01,2.52-1.67l-.72,1.19c.85.09,1.98,1.12,2.64,0l-1.44-.6.84-.84c.59-.15.22.43.42.65.13.14.39.04.42.07.03.03-.11.43.15.49.72.17,1.42-.43,1.28-1.21l-1.44.72c-.5-.46,2.18-1.86,2.4-1.67-1.5,3.55,4.56,1.12,3.84.24-.16-.02-.32.02-.48,0-.3-.04-.65.03-.96,0-.58-1.02,1.64-.97,2.04-1.44.37.46-.52.7-.35,1.28.34,1.19,2.79.42,3.45-.34.13-.15.09-.41.13-.47-.68.23-2.37,1.66-2.88.6-.21-.44.48-.32.5-.49.05-.51-.85-1.19.76-.76.33.09.46.54.89.42-.12-1.02.23-1.19,1.14-1.38.33-.07.89-.29.78.3-.46.39-.81.88-1.2,1.32,1.13-.38,2.33.43,2.4-.72l-.72-.12c.86-.92.67.08.72.12.61.45,2.59-.47,2.64-1.44h.24c-.02,1.2,1.47,1.06,2.34.77.42-.14,2.69-1.36,2.22-1.97-.1-.13-2.04,1.59-2.77,1.67-1.9.21-.4-1.58.05-1.66.31-.05.82.71,1.05.46.05-.05-.09-.51.04-.66.08-.09,2.22-.86,2.36-.77-1.14,1.17.93,1.27,1.68,1.19.04-.45-.88-.37-.96-.48-.15-.21.97-1.91,1.44-1.44l.24.72c-.21-1.08.46-.55.95-.84.13-.08,1.97-1.86,1.93-.71,0,.1-1.1,1.05.41,1.51,1.32.4,1.5-.23,2.23-.67.12-.08.27-.08.48-.24.48-.37.61-.61.96-.96,1.5-.06,2.23,1.69,4.2,0,.49-.42.43-.76.6-.96.09-.07.16-.16.24-.24s.17-.15.24-.24c.5-.04,2.44,1.21,2.17-.36-.04-.23-.61.04-.49-.36.12-.09.61.23.48-.36-.06-.26-.7.09-.48-.6.53-.08,1.27.13,1.75,0,.11-.03,1.1-1.46,1.85-.84l-.95.96c1.04-.48,1.41.43,2.09.56,1.02.2,1.77-.42,2.46-.92.05-.04.3.05.42-.07.19-.19.18-.47.3-.65.13-.2.22-.47.24-.48.17-.1,1.17.54,1.8.5.53-.03.84-.4,1.32-.5-.2-.46-.91.14-1.5-.04-1.2-.35-.15-1.11.43-1.64,1.95,1.69.98.08,1.07,0,.04-.04.38.05.54-.06.46-.32.77-1,1.49-.9s-.11.73-.01.96c.16.36.6.36.85.48,1.22.58.81.34,1.68,0,.16-.06.46.03.7-.13.4-.26.49-.6.73-.83.1-.08.16-.15.24-.24.39-.04.87.4,1.33.47,1.48.21,2.28-.27,2.98-1.43-1.23,0-1.28.96-2.15,1.1-1.6.26-1.1-1.45-.37-1.82.43-.22.34,1.07,1.07.96-.14-.95.49-.78.94-1.11.37-.27.22-.83,1.22-.56-.33.4-.49,1.06-.72,1.44ZM241.6,43.09c.17-.34-.15-.64-.23-.48-.17.34.15.64.23.48ZM237.52,67.53c1.01-5.91,2.08-11.87,4.59-17.34.94-2.06,2.41-3.92,2.97-6.14-2.08,2.45-3.5,5.77-4.61,8.81-1.53,4.21-3.14,9.86-3.43,14.31-.03.48.05.37.48.36ZM235.12,77.12c.32-2.9.19-5.81.51-8.71.68-6.19,2.7-13.75,5.28-19.4.69-1.5,1.79-2.9,2.12-4.47-2.69,3.18-4.15,7.81-5.34,11.8-1.66,5.58-3.5,13.44-3.05,19.23.02.32.12,1.45.47,1.56ZM246.15,45.73l-1.39,1.84-2.2,4.63.54-.53,3.05-5.94ZM247.35,45.97l-2.2,2.95c-2.52,4.94-4.06,10.28-4.99,15.73.51-.25.72-1.16.84-1.67.8-3.15,1.13-6.43,2.57-9.42l3.78-7.6ZM245.99,50.59c.16-.21.58-.27.86-.7.47-.73.7-2.08,1.22-2.85-.53.03-.9.85-1.15,1.25-1.57,2.48-2.82,5.84-3.4,8.7.41-.07.42-.48.54-.77.6-1.42,1.08-4.51,1.93-5.62ZM239.92,47.17c-.64-.13-.41.16-.6.47-1.37,2.33-2.42,5.28-3,7.91.54.09.65-.34.84-.72.56-1.1.73-2.66,1.2-3.83.54-1.32,1.68-2.4,1.55-3.84ZM235.6,54.12c-.37-.45-.51.34-.59.47-.3.5-.64,1.07-.6,1.68.64.12.42-.14.59-.48.12-.25.69-1.58.61-1.67ZM241.84,54.83c.12-1-.35-1-.23,0h.23ZM241.12,56.99l.48-1.91c-.36.11-1.01,1.78-.48,1.91ZM240.64,58.67c.1-.11.32-1.26.24-1.43-.36-.11-.59,1.19-.47,1.44.08-.01.2.03.23,0ZM243.4,57.23v.24c.16-.08.16-.16,0-.24ZM146.16,60.35c-.3-.16-.84.38-.72.47.3.16.84-.38.72-.47ZM44.24,61.3c-.25-.09-.45,0-.46-.02-.12-.26.18-.76-.26-.7v2.87s-.72-.72-.72-.72c-.05.75.06,1.52,0,2.27s-.5,2.24-.48,2.86c0,.16.44.02.5.48.43,3.15-.77,7.1-.98,10.32-.14,2.27.26,4.6-.25,6.83l-.24-.24c-.21-1.34.27-2.68.26-3.97,0-.51-.26-.99-.26-1.06,0-.32.01-.64,0-.96.38-.16.38-1.04,0-1.2-.15-2.24-.7-4.64-.49-6.84s1.23-4.24.73-6.58c-1.27.77-.59,3.06-.71,4.44-.09,1.14-.42,2.47-.49,3.59-.13,2.3.66,4.8.72,7.54.03,1.67.01,3.36,0,5.03-.03,4.32-.16,8.63-.48,12.94l.96-4.43v-4.31s.32-.38.48-.36c.06,1.83.69,3.67-.23,5.4l-.73,7.54.95-2.53c-.06-1.98.06-3.93.49-5.86.37-.06.28.45.35.72.22.86.61,2.41.62,3.23.01,1.1-.6,1.9-.5,2.99l-.72-.24c.26,1.21-.32,2.62-.27,3.72.03.74.4.95.49,1.44.11.54-.1,1.2,0,1.66.05.27.61.04.71.15.26.26-.43,1.67.51,1.42.52-1.21-.89-2.17-.72-2.96.03-.16.44-.13.48-.31.09-.38-.24-1.25.24-1.27v2.4c1.9.31,1.02-1.9,1.2-3.11,1.63-.28.32,1.85,1.68,1.91-.02-.94-.25-2.02-.5-2.93-.05-.18-.41-.18-.45-.35-.14-.6.08-2.88.29-3.49.15-.43.88-.75.63-1.11-.03-.04-.47-.01-.45-.13.05-.29.41-.7.46-1.23.86-9.22,1.33-17.24.24-26.55-.03-.21-.39-1.75-.46-1.82-.13-.12-.6.07-.64.35-.12.78.72,3.94.85,5.07.88,7.67.58,17.92-1.04,25.5-.13.59-.27,1.62-.85,1.9-.22-1.58-.08-2.77.23-4.31-.44-.04-.15.58-.47.84-1.06.86-.68-2.39-.72-2.59s-.4-.19-.46-.36c-.79-2.24-.06-6.86.22-9.29.04-.36.19-.73.48-.35.09,2.27-.22,4.79.3,7.01.09.39.55.66.65,1.27.16.98-.09,2.21.01,3.22.35.06.31-.45.36-.71.13-.65.31-1.65.35-2.29.41-6.09.06-12.83-.25-18.92-.06-1.23.07-2.49,0-3.73l-.48.24c-.01-.8,0-1.6,0-2.4.41-.53.27-1.67.24-2.4.7.14.49-.38.49-.84,0-.86-.19-3.31-.97-3.72-.1-.05-.35.04-.48,0ZM234.88,61.54c-.69-.12-.4.15-.51.55-.35,1.21-.45,2.52-.69,3.76.51.09.57-.23.72-.6.38-.96.36-2.64.48-3.71ZM125.3,64.9c-.97-.03-1.27,1.04-2.4.72v.72c1.54.1,2.14.25,2.4-1.44ZM49.76,66.81c-.34-.35-.44.02-.48.36-.09.71.06,1.55,0,2.28h.72c.1-.1-.09-2.48-.24-2.64ZM237.28,69.21c-.68-.1-.44.12-.48.6-.05.7.03,1.35-.24,2.04.72.11.41-.16.47-.6.09-.64.07-1.37.25-2.03ZM236.8,82.39v-8.99c0-.28.69-1-.24-1.32.25.58-.24,1.48-.24,1.8v8.51h.48ZM48.8,72.33c-.3-.4-.43.03-.48.35-.13.94.18,1.84.24,2.76.42.06.23-.54.24-.83.03-.76-.02-1.52,0-2.28ZM48.92,75.68v.24c.16-.08.16-.16,0-.24ZM51.2,76.64c-1.58.46.01,3.52-.48,4.92l.48.36v-5.27ZM49.52,77.6l-.92.82.21,2.53c.63.06.4.03.47-.36.19-1.01.09-2,.25-2.99ZM49.28,81.43h-.48v6.95c.16.02.48-.32.48-.36v-6.59ZM50.96,88.86v-5.15c0-.11.43-.6.24-.84-.06-.08-.48.31-.48.36v5.03c0,.23-.7.71.24.6ZM47.36,98.2c1.45-1.41,1.07-3.99,1.22-5.84.09-1.07.65-2,.21-3.26-.35-.04-.42.62-.46.86-.35,2.74-.57,5.51-.98,8.25ZM39.69,104.19c.3-1.67,1.01-3.02.72-4.79l-.93,3.74.21,1.04ZM47.6,99.64c-1.17.04-.61,1.64-.72,2.39.32-.04.48-.97.54-1.25.09-.38.25-.73.17-1.14ZM41.09,104.87c.15-.23.3-2.88-.68-2.59v2.87c.16-.1.65-.25.68-.28ZM47.84,108.98l.72-4.31c-.98.68-1.19,2.82-1.21,3.95,0,.48.04.38.49.36Z"/>
  <path class="cls-1" d="M203.95,43.57c-.17.02-.18.18-.24.24-.14.11-1.36.93-1.44.96-.38.12-1.21-.09-1.68,0-.31-.59.97-2.61,1.43-1.73.23.44-.16.48.85.77l-.36-.95c.46.03,1.54-.73,1.8-.72.45.02.28.29.11.59-.11.2-.44.81-.47.84Z"/>
  <path class="cls-1" d="M193.64,47.17c-.07.05-1.43.45-1.58.47-2.16.31-1.26-2.08-.26-1.86.37.08.55.8,1.23.67.74-.13-.19-.9-.12-.96l2.28-.72c.08.35-.39.93-.6,1.2-.14.18-.2.44-.24.48s-.32,0-.47.14c-.23.2-.22.56-.25.58Z"/>
  <path class="cls-1" d="M178.05,51.72c-.73.31-1.62.24-2.4.24-.48-.47,1.07-1.59,1.57-1.68.21-.04,1.41,1.45.83-.23.92.04,1.8-.94,2.64-.6-.35.42-.82.7-1.2,1.08-1.29.05-.79.64-.96.96-.01.02-.39.2-.48.24Z"/>
  <path class="cls-1" d="M152.39,107.07c.06.17-.03.5,0,.72-1.76-.49-.91.97-1.59,1.19-.5.16-1.29-.35-1.29-.95,1.25-.42,1.01-.67,2.88-.96Z"/>
  <path class="cls-1" d="M184.77,49.08c-.12.01-.17.18-.24.24-.08.08-.17.15-.24.24-.89.74-2.39,1.77-3.36.6.73-.19.47-.66.48-1.32.72-.32,1.53.58,2.03.48.3-.06.16-.87.71-1.21.41-.25.91-.26,1.33-.47.18.21-.53,1.21-.72,1.44Z"/>
  <path class="cls-1" d="M241.12,41.42c-.07-.73,1.01-1.4,1.68-1.2.07.05-.69,1.55.48.95.03-.02-.33-.53.12-.71l1.8.48c-.55.87-3.01.91-3.84.72-.08-.08-.15-.16-.24-.24Z"/>
  <path class="cls-1" d="M172.78,99.16c.05.22.68.68.48.95-.06.09-1.71.72-1.97.79-1.22.36-3.91.98-2.83-1.03,1.9-.49,1.18.34,1.7.7.2.14,1.33-.49,1.53-.71.29-.33.24-.64.37-.95.29.02.57.23.72.24Z"/>
  <path class="cls-1" d="M102.52,68.97c-.57.15-1.35-.12-1.92-.24.27-.85.69-2.24,1.77-1.45.34.25-.19.96.74.74l-.12-.72,2.4-.24c-.02.17-.62.66-.72.72-.22.02-.33.1-.48.24-.24.14-1.58.93-1.68.96Z"/>
  <path class="cls-1" d="M155.51,105.39c.31-.1,1.36-.01,1.44.36-.03.94-.92.31-.96.35-.26.37.49,1.47-1.68,1.2.02-.31-.04-.66,0-.96.17-.1.21-.46.24-.48.07-.04.91-.46.96-.48Z"/>
  <path class="cls-1" d="M173.02,97.72c1.06-.58,2.04-1.06,3.28-1.11l3.43.39c-.97-.1-2.06,1.07-2.82,1.17-.58.08-.89-.58-1.5-.45.67,2.26-1.23,1.57-2.64,1.44-.08-.35.11-1.07.24-1.44Z"/>
  <path class="cls-1" d="M114.27,67.29c-.35.07-.82-.05-1.2,0-.2-.14,1.21-1.24,1.68-.95.08.33-.11.47-.24.72-.07.01-.17.23-.24.24Z"/>
  <path class="cls-1" d="M108.99,68.25c-.79.23-2.41.31-3.12-.12-.57-.34.56-1.13,1.29-1.08.82.06,2.28,1.23,1.59-.24l2.16-.24c-.3.47-.97,1.17-1.44,1.44-.37.04-.36.18-.48.24Z"/>
  <path class="cls-5" d="M36.33,108.98c1.06.17,2.94,1.89,4.15,2.44,4.34,2,11.57,3.84,16.32,5.02,41.22,10.24,74.07,1.96,112.13-13.58,18.08-7.38,41.86-19.6,61.75-18.08,6.77.52,16.4,5.34,15.12,13.43-1.02,6.44-6.61,5.44-11,3.06-7.85-4.28-11.82-8.29-21.84-7.35-10.56.99-16.92,13.38-4,16.15,10.16,2.18,22.93-4.3,32.06.79,4.47,2.5,7.13,9.05.93,11.08-4.81,1.57-9.17-1.43-13.75-2.34-3.11-.61-9.34-1.36-11.28,1.77-.63.32-.26,2.39-.87,2.23-2.53-.65.19-4.41,1.63-5.31,5.99-3.76,15.34,2.64,22.11,1.96,4.2-.42,4.97-4.4,1.64-6.9-7.14-5.38-24.98.69-34.13-1.36s-10.6-10.91-3.71-16.65c7.73-6.44,19.27-3.95,27.37.43,2.76,1.49,8.64,6.22,11.81,4.45,3.61-2.01,1.04-7.73-1.44-9.78-10.61-8.78-35.25-.86-46.73,3.82-13.6,5.54-26,11.87-40.11,16.47-33.41,10.89-64.47,16.58-99.32,7.58-6.58-1.7-13.93-4.15-18.84-8.97,0-.12,0-.24,0-.36Z"/>
  <path class="cls-5" d="M78.78,59.14c-7.09-1.62-13.5-5.97-18.95-10.66-4.34-3.73-8.16-8.68-12.73-11.96-2.74-1.96-8.54-5.3-9.75.03-1.04,4.58,1.38,10.86,5.1,13.72.26-.53-.48-1.06.12-1.56.29-.24,1.97-.52,2.15-.35.12.12-.09,1.4.49,1.43l.25-2.15c2.54.28,1.06,1.17,1.73,3.18,1.53,4.59,5.98,4.7,9.54,6.76-.15.31-.66,0-.9-.05-2.92-.75-9.25-3.6-11.01-6.02-.21-.29-.32-.64-.32-1v1.2s-1.56-1.2-1.56-1.2l-.11.47c1.42,1.09,2.78,2.26,4.33,3.22,17.74,10.97,54.21,10.35,74.4,7.29,28-4.24,53.92-16.94,81.65-22.65,12.49-2.57,38.04-6.33,48.49,2.2.74.6,3.15,2.83,1.92,3.48-1.68-2.8-5.98-4.38-9.07-5.2-17.62-4.71-40.43,1.14-57.55,6.1-33.79,9.79-62.28,21.54-98.49,20.19-14.72-.55-45.9-3.79-52.27-19.65-1.75-4.36-2.21-13.64,4.35-13.88,9.58-.34,23.38,17.93,32.54,22.79,1.02.54,4.25,1.6,4.71,2,.55.49.57,1.64.97,2.27Z"/>
  <path class="cls-5" d="M71.1,5c-.48,3.78-6.06,3.81-9,3.6-5.39-.38-19.02-9.44-20.43.89s11.82,17.77,20.51,19.39c11.99,2.24,31.39-3.62,39.09,8.62,4.09,6.49,1.24,12.64-4.44,16.81-.88.65-4.33,2.86-5.23,2.83-.39-.02-2.51-1.8-2.27-2.06,10.16-2.71,17.73-13.37,6.07-20.56-12.87-7.94-29.46,1.39-44.75-8-6.07-3.72-15.57-14.5-8.81-21.41,5.2-5.32,11.68-.63,17.22.78,3.99,1.01,8.42,1.38,12.04-.89Z"/>
  <path class="cls-6" d="M133.69,58.19c-1.04.27-2.15.52-3.25.49-1-.69-4.28-.73-4.39-2.09-.03-.41.57-.57.44-1.04-2.41.08-4.56-1.88-5.56-3.91-.68-1.39-.86-4.37-2.42-5.01-.69-.28-1.79.12-1.62-.66,1.43-.15,2.83.22,4.14.77.84.36,2.59,1.76,2.98,1.82.69.1,1.07-.39,2.17-.01,1.58.54,1.68,2.02,2.58,3.17-.03-1.33.72-3.45,1.85-1.61.67,1.1.51,1.85,1.75,2.8.71.54,3.26,1.68,4.08,1.68h4.68c-.28.55-1.38.61-1.92.72.07.44,1.23.26,1.56.23,1.36-.09,2.88-.37,4.2-.72-.31-.75-2.32.76-2.16-.48,1.93-.05,3.99-.84,5.88-.95.49-.03,1.26-.25,1.07.47-5.08,1.46-9.62,2.86-15,2.65-.99-.04-2-.82-2.27.47.72,0,1.44.02,2.16,0v.24c-.84,0-2.2-.01-2.64.72.32.02.64-.01.96,0,.26.01.6-.08.72.24Z"/>
  <path class="cls-6" d="M180.93,38.54c.42.75.76.92,1.67,1.32,1.98.87,5.62,1.01,7.8.83.93-.08,1.79-.6,2.76-.47.06.34-.4.32-.66.42-1.51.56-2.39.33-3.75.57-1.9.33-6.24,1.6-7.83,1.31-.88-.16-2.89-1.31-2.6-2.37.09-.32.62-.55.64-.76.03-.38-1.24-1.44-1.37-2.17-.35-1.92.69-3.98-.2-5.79-.68-1.38-2.3-1.42-3.64-1.15,1.75-2.39,5.54-.68,6.67,1.47.27.51.25,1.02.44,1.47.13.31.55.28.57.44.09.82-1.51,2.46-.37,3.45.04-.48.32-3.07,1.31-2.39.14.1.77,2.64,1.8,2.87.62-3.1,2.51.39,3.19.71.52.25,3.64.44,4.49.49,1.55.09,3.14-.16,4.68.12,0,.31-4.68,1.03-5.28.6l.24.48c-1.6-.02-3.06.35-4.69.25-2.19-.13-3.91-.86-5.87-1.69-.08-.15-.53-1.44-.96-.96-.59.66.65.83.96.96Z"/>
  <path class="cls-6" d="M136.81,119.53c-.31.39-.83.92-.84,1.43,1.62-2.04,4.01-3.53,6.35-4.67,1.2-.59,8.85-3.66,9.57-3.21.05.03.35.86.27.93h-.72c.83-1.05-2.06-.09-2.16,0-.75.75,1.62.2,1.68.24-.22,1.2-2.66.5-2.87.73-.08.09.13.75-.24,1.07-.24.21-1.05.27-1.45.47-.52.26-1.2.86-1.68.98s-.92-.18-.95-.15c-.04.05.08.57-.24.84-.23.2-.97.29-1.37.55-.72.46-2.71,2.02-3.01,2.75-.61,1.47-.15,4.2-2.58,1.62.35,2.24-.04,4.44-2.64,4.79.69-2.94-3.41-1.71-3.38-4.19,0-.48.33-1.12.28-1.41-.04-.25-1.3-.23-.97-1.94.23-1.23,2.07-1.44,3.11-1.33l-.6,1.44c.99-1.02,2.53-2.38,3.96-2.28-.45.67-1.27,1.06-1.8,1.57-.13.12-1.01,1-.83,1.19.09.09.89-.8,1.12-.94.42-.24,1.08-.36,1.75-.74l.24.24Z"/>
  <path class="cls-6" d="M79.01,123.6c.06.5-.83.11-.96.24-.06.06.3,1.32,0,1.68.99-.58.62.14.72.24.16.14,1.55-1.3,1.84-1.39.73-.22,1.4.12,2.03.06s1.25-.51,2-.59c3.06-.32,7.5.03,10.79-.02.4,0,1.12.13,1.61.18.25.03.55-.26.67.31-3.72.37-8.78.35-12.23,1.8-1.16.49-3.37,2.82-3.6.36-2.17,3.42-5.19-1.37-7.19,2.16-1.51-3.09,1.23-5.51,4.31-5.03Z"/>
  <path class="cls-6" d="M219.94,34.09c.81.39,2.07.07,3.32.13,4.08.19,10.09,0,13.9.97.33.08.75,0,.84.48-3.74.17-7.94-.96-11.65-.5-.46.06-.23.46-.69.52-.95.12-2.15-.12-3.14-.03-2.32.21-6.16,1.24-8.11-.26-1.13-.88-2.3-3-.75-4.04.88,2.57,4.17,1.73,6.28,2.73Z"/>
  <path class="cls-6" d="M118.34,122.16l-3.1,1.81c-1.13.74-1.83,2.78-3.37,2.02.25,1.25-.5,1.67-1.62,1.86-1.31.22-.46-.28-1-1.04-.43-.6-1.63-.63-1.88-1.71-.57-2.46,1.83-1.98,3.67-2.22,1.07-.14,2.24-.32,3.38-.45,1.28-.15,2.64-.22,3.93-.27Z"/>
  <path class="cls-6" d="M68.7,60.34c-1.44-.42-2.83-.67-4.21-1.43-1.04.13,1.08.45.85.95-2.04-.33-4.29-1.02-5.88-2.39-.23.42-.75.64-.6,1.2-2.19-.23-2.32-3.71-.11-3.73.68,0,.38.54.83.61-.01-1.02.37-2.34,1.56-2.4.68-.03.26.94.42,1.51.88,3.08,4.77,4.46,7.38,5.68h-.24Z"/>
  <path class="cls-6" d="M113.19,61.06c-.49-.08-2.37-1.32-2.52-1.2-.53.46.62.4.48.72l-2.04-.24,1.09.59,2.15.6c-1.07.24-2.06-.36-3.02-.46-.55-.06-1.27.41-2.02-.02.38.93,1.32.73,2.16.72.29.74-1.66.54-2.05.49-2.7-.36-1.36-4.4.99-4.56.83-.06,1.07.67,1.78.71.09-.47,0-1.18.6-1.22,1.2-.08.97.59,1.5.99.48.36,1.93.97,1.98,1.56,0,.05-.79.2-.48.83l2.88.48c-1.07-.12-2.46.17-3.48,0Z"/>
  <path class="cls-6" d="M192.44,97c.32.31-1.77,2.02-2.02,2.42-.54.86-.72,3.06-2.12,2.81-.32-.06-.66-.47-.98-.41-.25.05-.46.53-.8.64-1.72.55-3.98-1.21-1.97-2.45.81-.5,1.55-.29,2.14-.5,1.31-.46,2.85-1.43,4.34-1.93.51-.17.87-.6,1.42-.58Z"/>
  <path class="cls-6" d="M60.55,121.2c-.62.01-4.07.06-4.32.24-.09.07.51,1.54-1.3,1.43-1.39-.09-1.21-1.55-1.34-1.67-.12-.11-1.11.46-1.56.5-2.77.2-2.93-3.66-1.72-3.58l6.16,1.64c-2.08.54-4.25-.97-6.11-.96-.69,0-.26.61-.36.97.22.23,2.47-.21,2.91-.12.32.07.58.5,1.06.59.75.14,1.72-.08,2.51.01l-.24.48c1.43.06,2.89-.07,4.32,0v.48Z"/>
  <path class="cls-6" d="M45.92,116.89c-1.97-.17-3.55-1.36-5.5-1.81-1.24-.28-2.71-.29-3.97-.59-.37-.09-.42.17-.36-.47,1.53.17,1.79-1.2,2.04-2.4,2.14,2.44,5.35,3.31,7.79,5.27Z"/>
  <path class="cls-2" d="M42.33,108.74c.51.93,1.73.47,2.64.48.16,0,.32,0,.48,0-.05.2.03.49,0,.72-.22-.04-1.45-.17-1.44.24.49.07,3.15.33,2.39,1.2-.1.11-.8-.3-1.04-.26-.26.04-.23.64-.5.69-.38.07-3.41-1.14-3.5-1.51l.96-1.55Z"/>
  <path class="cls-2" d="M134.89,112.58c.64,1.78-.33,1.9-1.92,1.91-.23-.29,1.82-1.12.84-1.19-.34.52-1.06.4-1.47.7-.23.18-.24.67-.51.74-.4.1-1.04-.05-1.51,0-.21.97-1.05.8-1.92.96l.24-.72c.16-.06.34-.21.48-.24.07-.01.78.04,1.2,0,.06-.28-.07-.58.12-.95.45-.86,1.92-.76,2.76-.73l-1.68-.48c1.76-.75,2.47.57,3.36,0Z"/>
  <path class="cls-2" d="M55.75,112.82c.28.17.48.53.96.48-.51.76-.27,1.61.72,1.44l.48-.96c.06.22.24.45.24.48,0,.06-.44,1.15-.48,1.2-.08.09-1.87-.77-2.4-.48-.13-.12.68-1.3-.57-1.21-.14,0-.42,1.37-1.68.47-1.59-1.13,1.81-1.66,2.74-1.41Z"/>
  <path class="cls-2" d="M85.01,117.85c.65-.19,1.21-.41,1.99-.23.14.03,1.39,1.47,1.84,1.43-.19.34-.26,1.39-.59,1.42-.62.05-1.47-.71-.84-1.42-1.43.08-2.55,1.86-2.64-.84l.84-.12-.6-.24Z"/>
  <path class="cls-2" d="M49.76,109.46c.97-.23.59.38.85.7.17.2,1.31.61.11.97-.18.05-.66-.07-.72,0-.57.66.58.72.65.77.15.11.28.73.53,1.05.43.53.94-.02.49,1.06-.94-.41-1.92-.83-2.88-1.2.05-.29-.07-.72,0-.96.19-.66.77-1.78.96-2.4Z"/>
  <path class="cls-1" d="M184.05,94.61c.19.24-1.42.95-1.57.93-.31-.03-.17-.87-.71-.7-.62.27-.32,1.92-2.11,1.39-.99-.29-.44-1.19.18-1.63,1.2-.87,2.92-.44,4.2,0Z"/>
  <path class="cls-2" d="M232.25,83.83l.48-.24c-.43.03-.91-.29-1.32-.25s-1.7,1.52-2.24.08c-.69-1.85,2.92-1.58,3.8-.44s.05,1.96-.73.85Z"/>
  <path class="cls-2" d="M213.78,84.3c.04.06-.08.39,0,.46.29.22,2.01-.43,1.91.74-.67-.06-1.38.36-2.04.25-.43-.07-1.13-1.38-1.56-.97-.07.07.61,1.19-.35,1.2-1.17,0-2-1.49-1.18-1.69.53-.13,2.5-.03,3.2.01Z"/>
  <path class="cls-1" d="M193.4,91.02c-.33,1.22-2.76.61-2.87.72-.09.09.16.64-.13.73-.59.17-2.04-.02-2.04-.86,0-1.28,4.17-.88,5.05-.59Z"/>
  <path class="cls-2" d="M62.47,116.41c-.84.43-2.01-1.15-2.36-.91-.04.03,0,.39-.19.44-2.37.64-2.04-2.65,1.19-1.39.85.33,1.41.88,1.37,1.86Z"/>
  <path class="cls-2" d="M82.61,118.09c.31.09.1.62,1.44.24l.48,1.68c-1.04.03-2.45.17-2.4-1.2l-.24.96c-2.65.15-1.38-2.3.72-1.68Z"/>
  <path class="cls-6" d="M49.04,61.54l.84-1.2c.27.61-.21,1.28.75,1.4.88.02-.69-.38-.16-.92.17-.18,2.59.11,2.4.83-.05.21-.66.35-.83.62s-.07.59-.13.7c-.03.07-.37.15-.48.24,0-.11-.31-.38-.22-.46.11-.1.56.16.46-.25l-2.16-.24c-.26-.31-.38-.59-.48-.72Z"/>
  <path class="cls-2" d="M106.11,118.57c.17.22.92,1.02.72,1.2-1.11.14-1.51,0-2.04-.96-.63-.11-.47.89-.74.97-2.15.63-2.41-2.12.73-1.68.47.07.85.44,1.33.47Z"/>
  <path class="cls-2" d="M97.46,67.33c.11.11-.14.96,1.1.92l-.36-.6c.13-.47,2.48-.62,2.16,0-.21.39-.92.39-1.27.6-.17.11-.16.4-.47.55s-1.36.42-1.69.37c-2.03-.31-.36-2.69.53-1.83Z"/>
  <path class="cls-6" d="M158.87,110.66l-2.47,1.48-4,1.4c.04-.31-.15-.77.14-.98,1.02-.73,4.94-1.29,6.33-1.89Z"/>
  <path class="cls-6" d="M40.17,107.79c.08.32,1.13,1.54.08,1.89-1.32.44-1.55-.64-2-1.17l.96-.12c-.26-.37-.51-.42-.96-.36v.48s-.62-.06-.72-.36c-.49-1.59,2.2-.42,2.63-.36Z"/>
  <path class="cls-2" d="M77.82,67.77s-.19-.23-.38-.23c-1.02,0-2.35.73-2.74-.97.36.04,1.49-.41,1.67-.24.11.1-.29,1.03.6.72.15-.05.18-.49.35-.6.5-.32,1.55-.04,2.16-.12-.38.23-.65,1.39-.72,1.44-.04.03-.78.02-.96,0Z"/>
  <path class="cls-2" d="M95.08,118.33c.84.6,1.17.41.96,1.68l.48-1.44c.46.02.61-.13.96-.24-.49.79-.68,1.17,0,1.91h-3.84s.48-1.67.48-1.67c.32-.08.37-.22.96-.24Z"/>
  <path class="cls-2" d="M43.76,58.43c-.14-.01-1.83-.66-1.89-.75-.21-.33.18-1.91.8-1.89,1.02.02,1.19,1.26,1.39,1.4.24.17.97-.2.65.63-.03.08-.64.59-.71.61-.06.02-.17,0-.24,0Z"/>
  <path class="cls-2" d="M46.64,60.82c-1.05-.18-1.84-1.25-.96-2.15-1.62.06-.26-1.03.72-.72v1.44c.08.11.51-.45.72-.48.06.88-.07,1.58.96,1.44.03.14-.05.38,0,.48-.45-.05-1.01.07-1.44,0Z"/>
  <path class="cls-2" d="M83.57,67.29s-.11-.19-.41-.09c-1.12.39-2.2,1.41-3.43.92-.08-1.35,1.32-2.44,1.56-.83,1-.81,1.72-.82,2.99-.72.07.39-.13.59-.48.72-.06.02-.16-.01-.24,0Z"/>
  <path class="cls-2" d="M63.67,114.73c.94.31.55.51.72.72.36.44,2.29.45,2.16,1.92-.34-.06-1.56.1-1.68,0-.51-.42.97-.52.48-.96-.15-.13-1.78.79-2.4.24l.72-1.91Z"/>
  <path class="cls-2" d="M167.29,107.81c.02-.05.8-.58.91-.64,1.52-.82,3.53-1.14,5.06-2.02.11.5-.24.56-.55.77-1.43.96-3.49,1.43-4.87,2.57-.36.05-.68-.34-.55-.68Z"/>
  <path class="cls-2" d="M92.44,119.05c.03.15-.06.37,0,.56.07.25.71,0,.48.64-1.98.34-1.35-.66-1.44-.72-.64-.43-.37.68-.6.73-1.72.32-2.31-1.24-.6-1.59,1.03-.21,1.4.36,2.17.38Z"/>
  <path class="cls-2" d="M69.9,116.65c.81,1.65-3.52,1.99-2.52,0,.41-.82,2.41-.23,2.52,0Z"/>
  <path class="cls-2" d="M68.22,67.05c-.63-.08-1.41.17-2.02-.26-.89-.62-.09-1.87.69-1.66.48.13.3,1.11.38,1.19.06.06.93.02,1.19.01.04.16-.12.59-.24.72Z"/>
  <path class="cls-2" d="M68.46,66.33c-.06-.26-.7-.44-.71-.6.64-.69,1.81-.35,2.62-.1.03.15.04.31.01.46-.63.03-1.2.22-1.92.24Z"/>
  <path class="cls-2" d="M70.38,66.1c.73-.04,1.44.24,1.98.19.65-.06,1.95-1.12,2.09.29-.83-.15-3.94,1.46-4.3.33-.11-.33.19-.61.23-.81Z"/>
  <path class="cls-2" d="M114.75,117.13c.05.07.21.13.24.24.22,1.14-.54.53-1.19.84-.37.18-.76,1-1.46.49-.26-.19-.34-1.15-.19-1.31.18-.2,2.2-.69,2.61-.26Z"/>
  <path class="cls-1" d="M128.65,114.97c-.99.38-1.29,1.3-2.48.92-.87-.28-.04-1.09.5-1.35.36-.17,2.58-.81,2.46.18-.14.03-.32.18-.48.24Z"/>
  <path class="cls-2" d="M162.23,47.65c2.4-.04,4.59-1.01,6.96-.84-2.25.66-4.61,1.34-6.96,1.56v-.72Z"/>
  <path class="cls-1" d="M166.54,101.32c-.02.15.04.35,0,.48-.99.17-.61,1.11-1.5,1.5-.39.17-1.42.51-1.39-.18.06-1.2,1.91-1.73,2.89-1.79Z"/>
  <path class="cls-2" d="M141.12,110.18c.33.06,1.6-.08,1.68,0,.03.03.03.92,0,.96-.09.09-.78-.12-.94.03-.11.1.26.88-.88.92-1.23.04-.79-.97-.34-1.67.05-.03.4-.2.48-.24Z"/>
  <path class="cls-6" d="M56.24,53.4s.51.09.47-.12l-.24-.6c.77.11,2.41.12,1.44,1.08-.38.38-1.73.49-2.24.37-.65-.16-.53-2.76.44-1.43.15.21.09.67.13.7Z"/>
  <path class="cls-6" d="M55.28,62.98c.09.05.17.21.24.24.14.27-.28.68-.48.72-.8.15-2.5-.16-2.13-1.28.42-1.27,1.76-.02,2.37.32Z"/>
  <path class="cls-2" d="M39.78,52.83c.21.23,1.33,1.08.87,1.52-.7.66-3.19-1.39-1.79-2.39.45-.09.69.62.93.87Z"/>
  <path class="cls-2" d="M74.46,117.61c.02.12.03.39,0,.48-.64,0-2.93,1.08-3.11.1-.32-1.72,2.63-.62,3.11-.58Z"/>
  <path class="cls-2" d="M122.66,115.21c.72,0,1.29.22,1.92.48-.84-.26-.67.45-.72.48s-.63-.33-.72-.24l.24.96c-.4-.03-.91.09-1.29-.03-.81-.26.1-1.57-.87-1.4.56-.36.81-.24,1.44-.24Z"/>
  <polygon class="cls-6" points="105.87 123.84 103.32 124.52 97.96 125.03 104.11 123.87 105.87 123.84"/>
  <path class="cls-2" d="M61.75,64.66c-.65.14-1.48.46-1.94-.1-1.13-1.4,1.16-.49,1.94-.62-.02.23.03.49,0,.72.27-.06.57-.35.96-.24v.72c.72-.38,1.21-.29,1.78.25.12.12.08.41.13.47-.68-.12-2.87.33-3.11-.39-.11-.33.2-.62.23-.81Z"/>
  <path class="cls-1" d="M238.72,80.95v2.15s.72-.24.72-.24c.42,1.42-1.04,2.04-1.38.54-.15-.66-.34-2.55.66-2.46Z"/>
  <path class="cls-6" d="M187.88,41.9c.12.68-.16.39-.53.54-1.37.54-2.79.77-4.27.66.32-.49,1.4-.67,1.96-.8.91-.21,1.9-.36,2.84-.4Z"/>
  <path class="cls-1" d="M79.02,118.33c-.87-.67-2.48,1.17-3.08.21-.94-1.5,2.73-1.44,3.08-.21Z"/>
  <path class="cls-2" d="M154.31,57.71c.31.03.66-.04.96,0-.67,1.1-2.21,1.43-3.36.96,0-.33.44-.34.73-.59.15-.13.17-.52.27-.57.2-.12,1.02.18,1.4.21Z"/>
  <path class="cls-2" d="M230.33,39.98c-.15.08-1.72.71-1.82.72-2.34.25-.8-1.92-.46-1.91.22,0,.78,1.38,1.44,1.2.63-.52-.89-.5-.36-.96.13-.11,1.98.08,2.4,0-.19.35-.85.77-1.2.96Z"/>
  <path class="cls-6" d="M120.26,60.35l-2.22.43c-.43-.11-.82-.35-1.27-.41-.23-.03-3.09.14-2.26-.5,1.94-.14,3.83.36,5.75.48Z"/>
  <path class="cls-2" d="M227.45,82.87c.68.04.69.6.49,1.33-.38.21-2.41.24-2.41-.25,0-.46,1.48-.61,1.91-1.08Z"/>
  <path class="cls-2" d="M59.59,65.14c-.81.02-1.65.11-2.3-.47-.19-.32.55-1.97,1.09-1.45.05.05,0,1.02.21,1.3s.71.02.93.19c.12.1.03.4.05.42Z"/>
  <path class="cls-1" d="M39.69,66.57c-.64-.32-.51-1.66-.49-2.29.03-.69.15-2.36.73-2.75l-.24,5.03Z"/>
  <path class="cls-2" d="M68.94,60.34l5.75.96c0,.42-1.05.26-1.33.25-1.67-.09-3.11-.75-4.67-1.21h.24Z"/>
  <path class="cls-2" d="M134.65,56.99c1.38-.03,2.7-.29,4.08-.24-.79.84-2.51.83-3.6.95l.48-.47c-.32,0-.64,0-.96,0v-.24Z"/>
  <path class="cls-2" d="M166.54,101.32c.35-.02,1.2.13,1.59.2.3.05,1-.12.81.4-.05.15-2.41.8-2.64.6-.08-.3.18-.52.24-.72.04-.13-.02-.33,0-.48Z"/>
  <path class="cls-2" d="M79.73,119.76c-.79.02-1.79-.17-2.16-.95,1.14-.34,2.38-.65,2.16.95Z"/>
  <path class="cls-2" d="M164.86,54.59h-.24c-.71.22-1.41,1.22-2.16.84.53-1.29,1.69-1.25,2.76-1.79.08.33-.36.52-.36.95Z"/>
  <path class="cls-2" d="M122.42,59.15c.37-.02.81-.23,1.31-.25.52-.01,5.41-.14,5.41.13-1.54.43-3.1.06-4.69.11-.67.02-1.29.23-2.03.25v-.24Z"/>
  <path class="cls-6" d="M240.16,86.94c-1.21-.11-1.68-1.09-1.2-2.15.61-.46,1.21,1.76,1.2,2.15Z"/>
  <path class="cls-1" d="M224.57,102.63c.02.46.49,1.35.24,2.04h-.48s0-5.51,0-5.51h.24c.04,1.15-.06,2.32,0,3.47Z"/>
  <path class="cls-1" d="M242.08,87.18c-1.02-.38-1.74-1.33-1.91-2.4,1.02.38,1.74,1.33,1.91,2.4Z"/>
  <path class="cls-1" d="M242.8,67.29c-.88.85-.24-2.2-.16-2.44s.06-.73.4-.67c.16.55.03,2.85-.24,3.11Z"/>
  <path class="cls-6" d="M47.12,58.91c.71-.1,2.69,1.19.96,1.44-1.03.15-.9-.56-.96-1.44Z"/>
  <path class="cls-1" d="M124.58,115.69c.21.09.9.18.95.25.52.81-1.69,1.41-1.67.23.04-.03-.12-.74.72-.48Z"/>
  <path class="cls-6" d="M126.98,121.2c-.13.14-3.1.81-3.6.96l1.76-1,1.72-.43c.2-.03.13.45.12.47Z"/>
  <path class="cls-2" d="M55.28,62.98c-.06-1.24,2.42.02,1.92.48-.65.09-1.08-.02-1.68-.24-.07-.03-.15-.19-.24-.24Z"/>
  <path class="cls-2" d="M93.64,67.77c.03-1.08,1.25-.66,1.92-.72l-.72,1.2c-.28-.24-.83-.38-1.2-.48Z"/>
  <path class="cls-1" d="M243.76,89.57c-.52.61-1.47-2.34-1.44-2.63l1.26,1.5.18,1.14Z"/>
  <path class="cls-6" d="M148.08,52.44c.06.37-.45.28-.72.35-.69.18-1.44.34-2.16.36.57-1.14,1.87-.75,2.88-.71Z"/>
  <path class="cls-6" d="M48.8,111.86c-.07.24.05.67,0,.96-.23-.09-1.14-.07-1.2-.36-.16-.8.58-1.06,1.2-.6Z"/>
  <path class="cls-1" d="M242.08,81.19c-1.19,0-.37-1.69-.48-2.39.34-.05.38.67.41.9.07.5.11.99.07,1.49Z"/>
  <path class="cls-6" d="M74.46,118.09c.78,0,.87.08.96.96l-1.44-.11c-.6-.51.32-.28.48-.84Z"/>
  <path class="cls-2" d="M158.63,106.35c-.06.09-1.86.68-1.44-.35.33-.8,1.82-.18,1.44.35Z"/>
  <path class="cls-4" d="M122.42,59.15v.24c-.46.01-4.08.08-4.08-.12,1.33-.26,2.73-.06,4.08-.12Z"/>
  <path class="cls-2" d="M60.55,120.72c.81.04,1.62.14,2.4.36,0,.22-2.03.11-2.4.12v-.48Z"/>
  <path class="cls-2" d="M137.77,118.57c.12-.19.26-1.58.96-.96.48.42-.83.88-.96.96Z"/>
  <path class="cls-2" d="M137.77,118.57c-.16.26-.74.68-.96.96l-.24-.24c.38-.21.74-.47,1.2-.72Z"/>
  <path class="cls-2" d="M132.97,57.95c.41-.48,1.32-.17,1.92-.24v.23c-.46-.09-.82.14-1.2.24-.12-.31-.46-.23-.72-.24Z"/>
  <path class="cls-2" d="M161.75,47.65c-.33.64-1.04.03-1.2,0,.4,0,.8,0,1.2,0Z"/>
  <path class="cls-2" d="M169.54,46.45c.16.08.16.16,0,.24v-.24Z"/>
  <path class="cls-3" d="M82.85,51.72c-.16,1.1.79,2.63.12,3.59-.35-.71-.58-1.72-.61-2.51-.02-.49-.23-1.27.49-1.09Z"/>
  <path class="cls-3" d="M90.29,60.82c-1.45-.07,1.14-1.72,1.92-1.44l-1.92,1.44,2.4-.48c.26.88-2.5,1.04-2.64.96l.24-.48Z"/>
  <path class="cls-3" d="M91.01,58.91c-.09.32-2.07,1.78-2.16,1.67-.55-.7,1.68-1.66,2.16-1.67Z"/>
  <path class="cls-3" d="M41.37,85.26l.24.24c.5-2.23.1-4.56.25-6.83.2-3.22,1.4-7.17.98-10.32-.06-.46-.5-.32-.5-.48-.02-.62.41-2.09.48-2.86s-.04-1.52,0-2.27l.72.72v-2.87c.45-.07.15.43.27.7,0,.02.2-.07.46.02-.08,1.13.07,2.25.24,3.35-.02-.18-.4-.57-.24-.96-1.64,1.47-.96,3.5-.95,5.4,0,.75-.3,1.41-.26,2.14.04.78.61,1.46.49,2.28l-.72-.24c.02,2.1-.61,4.28-.72,6.35-.1,1.93.07,4.26.27,6.2.03.27.11,1.32.45,1.35l.48-4.62.92-.81.52-4.39c.12,4.71-.75,9.48.12,14.14.94,0,.68-17.2.12-18.69-1.26.94.31,3.65-.95,4.48l-.49,2.82c.24-1.13-.55-3.35.48-3.83-.92-.23-.34-1.46-.48-2.27l.47.72c-.25-3.21.9-6.91.48-10.06.21,1.36.46,1.93.48,3.59.01.8,0,1.6,0,2.4l.48-.24c.06,1.23-.07,2.49,0,3.73.31,6.08.65,12.83.25,18.92-.04.64-.22,1.64-.35,2.29-.05.26-.01.77-.36.71-.11-1.01.15-2.24-.01-3.22-.1-.61-.56-.88-.65-1.27-.52-2.22-.21-4.74-.3-7.01-.29-.38-.44,0-.48.35-.29,2.43-1.01,7.05-.22,9.29.06.17.43.17.46.36s-.33,3.45.72,2.59c.32-.26.03-.88.47-.84-.31,1.54-.45,2.74-.23,4.31.58-.28.72-1.32.85-1.9,1.62-7.58,1.92-17.83,1.04-25.5-.13-1.13-.97-4.29-.85-5.07.04-.28.51-.47.64-.35.07.06.44,1.6.46,1.82,1.09,9.32.62,17.33-.24,26.55-.05.53-.41.94-.46,1.23-.02.12.42.09.45.13.25.36-.48.68-.63,1.11-.21.61-.43,2.89-.29,3.49.04.17.4.17.45.35.25.91.48,1.98.5,2.93-1.36-.06-.05-2.2-1.68-1.91-.18,1.22.7,3.42-1.2,3.11v-2.4c-.49.03-.15.89-.24,1.27-.04.18-.45.15-.48.31-.17.8,1.24,1.75.72,2.96-.93.25-.24-1.16-.51-1.42-.1-.1-.66.13-.71-.15-.09-.46.11-1.11,0-1.66-.1-.49-.46-.71-.49-1.44-.05-1.1.53-2.51.27-3.72l.72.24c-.1-1.09.51-1.89.5-2.99-.01-.83-.41-2.38-.62-3.23-.07-.27.01-.78-.35-.72-.44,1.93-.56,3.87-.49,5.86l-.95,2.53.73-7.54c.92-1.73.29-3.57.23-5.4-.15-.02-.48.32-.48.36v4.31l-.96,4.43c.32-4.31.45-8.62.48-12.94h.24ZM41.85,88.14l-.12-1.91c-.64.21-.43,2.63.12,1.91ZM44,99.16c-.5-.47-.72,1.06-.7,1.3.03.44.54,2.03.71,2.65.09.33-.01.75.48.84.04-.56.52-1.8.43-2.25-.06-.27-.5-.45-.61-.8s-.1-1.55-.3-1.74ZM42.81,105.15c.87-.47.35-1.83.47-2.63-.77.49-.4,1.87-.47,2.63Z"/>
  <path class="cls-3" d="M235.12,77.12c-.36-.11-.45-1.24-.47-1.56-.45-5.79,1.39-13.64,3.05-19.23,1.19-3.99,2.64-8.61,5.34-11.8-.34,1.57-1.44,2.97-2.12,4.47-2.58,5.65-4.6,13.22-5.28,19.4-.32,2.9-.2,5.82-.51,8.71Z"/>
  <path class="cls-3" d="M237.52,67.53c-.43.02-.51.12-.48-.36.29-4.45,1.9-10.1,3.43-14.31,1.11-3.04,2.53-6.36,4.61-8.81-.55,2.22-2.02,4.08-2.97,6.14-2.51,5.47-3.59,11.43-4.59,17.34Z"/>
  <path class="cls-3" d="M247.35,45.97l-3.78,7.6c-1.44,2.99-1.77,6.26-2.57,9.42-.13.51-.33,1.42-.84,1.67.94-5.46,2.47-10.79,4.99-15.73l2.2-2.95Z"/>
  <path class="cls-3" d="M41.37,78.08c.03.4-.02.8,0,1.2.01.32,0,.64,0,.96h-.24c-.06-2.75-.85-5.24-.72-7.54.06-1.12.39-2.45.49-3.59.11-1.39-.57-3.67.71-4.44.5,2.34-.53,4.48-.73,6.58-.21,2.2.34,4.59.49,6.84Z"/>
  <path class="cls-3" d="M239.92,47.17c.12,1.43-1.02,2.51-1.55,3.84-.47,1.17-.64,2.73-1.2,3.83-.19.37-.3.81-.84.72.58-2.64,1.63-5.58,3-7.91.18-.31-.04-.6.6-.47Z"/>
  <path class="cls-3" d="M47.36,98.2c.41-2.73.63-5.5.98-8.25.03-.24.1-.9.46-.86.44,1.26-.13,2.19-.21,3.26-.15,1.85.23,4.43-1.22,5.84Z"/>
  <path class="cls-3" d="M236.8,82.39h-.48v-8.51c0-.32.49-1.22.24-1.8.93.32.24,1.04.24,1.32v8.99Z"/>
  <path class="cls-3" d="M49.52,62.26l2.16.24c.1.42-.35.15-.46.25-.09.08.22.36.22.46.04.68.62,3.7.48,3.83-.05.05-.52-.03-.72,0-.09-.84-.11-3.32-.47-3.92-.19-.33-.65-.04-.93-.19-.14-.08-.16-.52-.28-.68Z"/>
  <path class="cls-3" d="M49.28,81.43v6.59s-.32.38-.48.36v-6.95h.48Z"/>
  <path class="cls-2" d="M44.72,61.3c.19,1.52.42,3.02.48,4.55.03.72.17,1.87-.24,2.4-.02-1.66-.27-2.23-.48-3.59-.17-1.11-.32-2.22-.24-3.35.13.04.38-.05.48,0Z"/>
  <path class="cls-3" d="M51.2,76.64v5.27l-.48-.36c.49-1.39-1.1-4.46.48-4.92Z"/>
  <path class="cls-3" d="M234.88,61.54c-.12,1.07-.11,2.75-.48,3.71-.14.37-.2.69-.72.6.24-1.24.34-2.54.69-3.76.12-.4-.18-.67.51-.55Z"/>
  <path class="cls-3" d="M47.84,108.98c-.45.02-.49.11-.49-.36.01-1.13.22-3.27,1.21-3.95l-.72,4.31Z"/>
  <path class="cls-3" d="M44.72,61.3c.78.41.96,2.85.97,3.72,0,.46.21.97-.49.84-.06-1.54-.29-3.03-.48-4.55Z"/>
  <path class="cls-3" d="M245.99,50.59c-.85,1.11-1.33,4.2-1.93,5.62-.12.3-.13.71-.54.77.58-2.86,1.83-6.22,3.4-8.7.25-.4.62-1.21,1.15-1.25-.53.77-.75,2.12-1.22,2.85-.28.43-.7.49-.86.7Z"/>
  <path class="cls-3" d="M125.3,64.9c-.26,1.69-.86,1.53-2.4,1.44v-.72c1.13.33,1.43-.75,2.4-.72Z"/>
  <path class="cls-3" d="M39.69,104.19l-.21-1.04.93-3.74c.29,1.77-.42,3.12-.72,4.79Z"/>
  <path class="cls-3" d="M41.09,104.87s-.52.18-.68.28v-2.87c.98-.29.83,2.37.68,2.59Z"/>
  <path class="cls-3" d="M49.52,77.6c-.16.99-.06,1.99-.25,2.99-.07.39.16.41-.47.36l-.21-2.53.92-.82Z"/>
  <path class="cls-3" d="M57.91,113.78l-.48.96c-.99.18-1.23-.67-.72-1.44.76-1.13,1.01-.25,1.2.48Z"/>
  <path class="cls-2" d="M41.37,85.26h-.24c.01-1.67.03-3.36,0-5.03h.24c0,.07.26.55.26,1.06.01,1.29-.47,2.62-.26,3.97Z"/>
  <path class="cls-3" d="M49.76,66.81c.15.16.35,2.54.24,2.64h-.72c.06-.73-.09-1.57,0-2.28.04-.33.14-.71.48-.36Z"/>
  <path class="cls-3" d="M50.96,88.86c-.94.11-.24-.37-.24-.6v-5.03c0-.05.41-.44.48-.36.19.24-.24.73-.24.84v5.15Z"/>
  <path class="cls-3" d="M44.96,109.22c.17-.65-.51-2.11.6-1.92.45.08-.05,1.63-.12,1.92-.16,0-.32,0-.48,0Z"/>
  <path class="cls-3" d="M96.52,118.57l-.48,1.44c.21-1.27-.12-1.07-.96-1.68.65-.02,1.08.22,1.44.24Z"/>
  <path class="cls-3" d="M48.8,72.33c-.02.75.03,1.52,0,2.28-.01.29.18.89-.24.83-.06-.92-.37-1.82-.24-2.76.04-.33.17-.75.48-.35Z"/>
  <path class="cls-3" d="M47.6,99.64c.08.41-.08.76-.17,1.14-.06.28-.23,1.21-.54,1.25.11-.76-.45-2.35.72-2.39Z"/>
  <path class="cls-3" d="M235.6,54.12c.07.09-.49,1.42-.61,1.67-.17.34.05.6-.59.48-.03-.61.3-1.18.6-1.68.08-.13.22-.93.59-.47Z"/>
  <path class="cls-3" d="M237.28,69.21c-.18.66-.15,1.39-.25,2.03-.06.44.24.71-.47.6.27-.69.19-1.34.24-2.04.03-.47-.2-.7.48-.6Z"/>
  <polygon class="cls-3" points="246.15 45.73 243.1 51.67 242.56 52.2 244.76 47.57 246.15 45.73"/>
  <path class="cls-3" d="M240.64,58.67s-.16-.01-.23,0c-.11-.25.11-1.54.47-1.44.08.17-.14,1.32-.24,1.43Z"/>
  <path class="cls-2" d="M41.37,79.27c-.02-.4.03-.8,0-1.2.38.16.38,1.04,0,1.2Z"/>
  <path class="cls-3" d="M146.16,60.35c.12.09-.42.63-.72.47-.12-.09.42-.63.72-.47Z"/>
  <path class="cls-3" d="M241.12,56.99c-.53-.14.12-1.81.48-1.91l-.48,1.91Z"/>
  <path class="cls-3" d="M241.84,54.83h-.23c-.12-1,.35-1,.23,0Z"/>
  <path class="cls-3" d="M241.6,43.09c-.08.16-.41-.14-.23-.48.08-.16.41.14.23.48Z"/>
  <path class="cls-3" d="M48.92,75.68c.16.08.16.16,0,.24v-.24Z"/>
  <path class="cls-3" d="M243.4,57.23c.16.08.16.16,0,.24v-.24Z"/>
  <path class="cls-1" d="M44.48,64.66c.42,3.15-.73,6.85-.48,10.06l-.47-.72c.14.81-.44,2.04.48,2.27-1.04.48-.24,2.71-.48,3.83l.49-2.82c1.25-.83-.31-3.55.95-4.48.56,1.49.82,18.69-.12,18.69-.87-4.66,0-9.43-.12-14.14l-.52,4.39-.92.81-.48,4.62c-.34-.03-.42-1.07-.45-1.35-.2-1.94-.37-4.27-.27-6.2.11-2.07.74-4.25.72-6.35l.72.24c.12-.82-.45-1.5-.49-2.28-.04-.73.27-1.38.26-2.14-.01-1.91-.7-3.93.95-5.4-.16.39.22.78.24.96Z"/>
  <path class="cls-1" d="M44,99.16c.2.19.18,1.38.3,1.74s.55.53.61.8c.09.45-.39,1.69-.43,2.25-.49-.09-.39-.51-.48-.84-.17-.62-.68-2.21-.71-2.65-.02-.24.2-1.77.7-1.3Z"/>
  <path class="cls-2" d="M42.81,105.15c.08-.77-.3-2.14.47-2.63-.12.8.4,2.17-.47,2.63Z"/>
  <path class="cls-1" d="M41.85,88.14c-.54.72-.76-1.7-.12-1.91l.12,1.91Z"/>
</svg>