<?xml version="1.0" encoding="UTF-8"?>
<svg id="Layer_1" data-name="Layer 1" xmlns="http://www.w3.org/2000/svg" viewBox="0 0 288 144">
  <defs>
    <style>
      .cls-1 {
        fill: #e0d37b;
      }

      .cls-2 {
        fill: #ac67aa;
      }

      .cls-3 {
        fill: #96853f;
      }

      .cls-4 {
        fill: #5d4b24;
      }
    </style>
  </defs>
  <path class="cls-4" d="M185.42,43.17c.1-5.18-3.46-12.33,1.2-16.41,7.67-6.74,24.88-.21,34.18.36,4.1.25,14.38.02,17.7-2.43,1.93-1.42-.26-1.5-.89-1.9-1.25-.8,1.52-1.96,2.55-1.85,2.8.32,3.03,3.69,2.36,5.84-1.6,5.06-9.1,8.95-13.8,10.65-5.35,1.94-11.3,2.64-16.91,3.59.04.32.33.42.61.47,1.92.33,6.96.13,9.1,0,10.92-.63,16.83-5.72,26.56-8.69,8.55-2.61,28.28-7.77,29.44,5.94s-.53,30.62-4.14,43.54c-4.31,15.42-8.9,22.94-25.55,25.75-23.63,3.99-56.51-1.68-79.42-8.67-29.25-8.93-55.35-29.65-87.05-29.83,3.23,6.04,3.82,12.97,5.53,19.51.55,2.11,1.65,4.06,1.87,6.28.81,8.04-2.68,15.43-10.47,18.23-14.79,5.3-30.57,4.52-43.09-5.69-16.56-13.5-23.13-35.25-20.48-56.15,2.3-18.18,21.03-25.55,36.47-30.16,45.64-13.63,92.53,3.86,134.23,21.63ZM219.96,56.11s.65-.29,1.08-.26c15.45.86,34.99,3.48,48.78-5.15,1.69-1.06,6.97-5.7,6.97-7.65v-4.19h-.72c-.31,4.97-3.84,8.59-8.07,10.75-14.98,7.64-40.06,4.83-56.24,1.87-27.96-5.11-52.56-20.06-79.76-27.41-31.93-8.63-70.1-10.58-99.73,6.12-2.63,1.48-7.02,3.96-8.94,6.16-.2.23-1.36,1.62-1.2,1.79,7.23-5.64,15.92-9.68,24.57-12.7,39.36-13.74,78.74-3.1,116.01,11.33,14.44,5.59,28.46,12.67,43.58,16.35,4.34,1.06,9.48,1.39,13.51,2.51.26.07.14.46.16.48-29.79-4-55.44-19.38-83.99-28.1-31.33-9.56-69.16-13.31-99.31,2.25-1.03.53-1.38.41-1.59,1.64-.15-.04-.37-.24-.48-.24-1.96,0-3.53,1.75-5.04,2.64-.08.05-.38.04-.72.24-.76.46-1.43.95-2.16,1.44-.11.07-.3.12-.48.24-1.43.97-5.03,3.25-5.62,4.81s-.16,3.13-.39,4.64c-.15.99-1.91,3.61-.23,3.97.25-2.68.66-5.55,1.31-8.15.14-.57.22-1.41.85-1.67-.17,3.43-1.35,6.76-1.67,10.19-.24,2.55-.55,6.33-.49,8.87,0,.49.22,3.37.28,3.56.12.35.68.32.7.53.07.66-.54,1.58-.22,3.06.19.87.04.93.92.75-.45.76-.18,1.78-.23,2.64l.71,2.28c-.05-1.15.07-2.32,0-3.47-.3-4.71-1.46-8.71-.98-13.44.4-3.94.66-8.55,1.52-12.37.22-.95.55-2.2,1.37-2.82-.32,4.02-1.84,8.4-2.15,12.34-.11,1.41.23,2.58.25,3.82.03,2.55-.35,6.29-.03,8.65.06.46.49.32.51.49.11,1.06-.35,2.09.22,3.57.21.56.68.55.73.76.24.93-.6,4.38,1.19,3.66-.08,1.51,0,2.88.48,4.32l.72-.24c-.5,2.01.36,4.11,1.08,5.99.24.63.82,1.12,1.02,1.85.02.09.3,1.66-.19,1.39-1.1-.94-.34-2.75-1.67-3.48.04.72-.15,1.69.16,2.35.23.49.74.14.82.42.19.7-.32,1.75-.02,2.5-.16.02-.43.33-.72.24-.09-.45.14-2.2-.02-2.38-.09-.11-.57.05-.7-.01-.7-.32-.45-2.41-.48-3.11l.71.96c.09-1.3-.04-2.5-.46-3.73-.15-.43-.58-.66-.68-.99-.2-.63-.26-3.71-.53-3.9l-.71.24c.01-1.11-.21-2.76-.66-3.77-.15-.33-.03-.38-.54-.3-.42,1.74.36,3.13.72,4.79l.47-.48c-.09.85-.27,1.54,0,2.39-.25-.07-.67.05-.96,0-.11-2.22-1.28-6.96-2.14-8.81-.59-1.26.07-3.02-.37-4.13-.04-.1-.36-.4-.36-.12l.24,8.38-.48-.36c.06-.76,0-1.62,0-2.4-.01-1.34-.21-2.52-.24-3.83,0-.32-.02-.64,0-.96.12-1.99.78-3.88.48-5.99-.42-.06-.2.45-.24.72h-.24c-.02-.12-.49-.17-.5-.59,0-.9.69-2.08.49-3.07-.04-.2-.91-.67-.91-.76,0-.7.4-1.89.44-2.65.14-2.83-.04-4.59.66-7.25.1-.39,1.03-5.27-.17-4.37-.55.41-.49,4.4-.72,5.27-1.16-.06-.55-.96-.51-1.59.02-.27.22-.86-.21-.81-.99,1.67-.94,3.02-1.2,4.79-.08.54-.55,1.09-.5,1.54.02.18.53.02.5.47-.06.92-.99,1.96-.72,3.1.05.19.43.06.5.51.19,1.39-.51,2.68-.02,3.97.45-.15.64-.68.7-1.09.42-2.62-.39-5.74.25-8.49.06-.28.1-.97.48-.96-.09,1.68.13,3.48,0,5.15-.07.98-.71,2.08-.47,3.07.05.19.43.06.49.51.17,1.21-.54,2.7-.25,3.81.05.19.47.15.48.3,0,.08-.21,1.43-.24,1.54,0,.03-.33.24-.24.48-.41-.09-.23-.75-.24-1.08-.04-.99.03-2,0-2.99-1.04.07-1.07,2.77-.98,3.49.06.46.46.23.52.69.11.88-.11,1.96-.02,2.89.21,2.04.5,4.08.72,6.11,2.08-.73.32-3.4.24-4.79l.72-.24c-.09,1.13.24,2.05.24,3.11,0,1.14-.84,3.29-.74,3.92.04.28.74.28.98.39-.07.88-.18,1.82.96,1.68-.32,2.32.17,4.3.96,6.47.39.07.28-.61.24-.84-.11-.76-1.52-4-.73-4.43.12.96.41,1.9.65,2.83.11.42-.15.9.55.76.03.6.51,1.79.48,2.26,0,.15-.43.11-.48.3-.17.63.08,1.56.6,1.99.88.42-.19-1.84-.12-1.91.59-.66.62,1.98,1.44,1.19.26-.25-.86-3.47-.96-4.07h.96c.31.38-.68,2.78.72,2.4-.12.82,0,1.83.24,2.64-.05-.03-.6.04-.96-.48.12.38.61,2.29.72,2.4.43.43.72-1.12.72-1.2h.24c-.12.33.37,1.18.24,1.75-.05.22-.32.91-.49,1.68-.04.2-.5.07-.5.51,0,.25.39,1.66.51,1.86.17.31.64.36.92.82.4.65.78,1.51,1,2.24.96-.43.17-1.57.24-2.4l-.48.72c-.25.25-1.14-2.15-1.19-2.53-.05-.46.3-.51.47-.35.18.18.2,1.58.72,1.68.01-1.33-1.06-2.56-.84-3.83.18.16.38.41.6.48-.05.37.34,2.01.48,2.16.68.68.46-1.75.48-1.92.04-.32.24-.55.24-1.2.27-.26.54-.53.66-.9,1.71-5.27,5.59-9.14,10.13-12.28.23-.16.49-.33.72-.48.59-.38,1.32-.86,1.92-1.2.06-.04.49.01.96-.24.57-.31,1.1-.68,1.68-.96.3-.15.55-.4.72-.48,15.53-7.14,38.85-8,55.44-4.72,21.99,4.34,41.36,16.73,62.17,24.37,16.17,5.94,31.68,9.19,48.69,11.73.43.06.9-.11,1.08.48-14.7-.64-34.88-6.07-48.8-11.02-22.88-8.12-43.7-22.48-68.13-25.85-17.35-2.39-41.99-.59-56.75,9.59-9.35,6.45-14.65,18.29-5.56,27.51l-1.74-4.25c-8.66-23.63,26.83-30.25,42.99-31.45,36.77-2.73,64.88,20.85,98.44,30.55,13.33,3.85,28.25,6.75,42.09,8.03,12.41,1.14,38.32,2.07,48.19-6.23.37-.31,2.18-1.91,1.8-2.39-2.55,1.43-5.11,2.82-7.91,3.71-.5.16-2.72.55-2.83.64-.16.14-.37,1.8-1.13,2.11-1.01.42.72-1.83.24-1.92-1.57.47-3.21.91-4.82,1.17-1.16.19-2.72-.38-3.33.99-.18.11.06-.44-.46-.5s-4.97.24-5.19.38-.21.58-.23.6c-.04.04-.55-.43-1.06-.49-2.65-.34-6.32.12-9.14.02-1.9-.07-4.02-.38-5.87-.49,3.91-.07,7.84.1,11.75,0,.16,0,.32,0,.48,0,.64-.02,1.28.03,1.92,0,.41-.02.78-.23.96-.24,2.73-.14,6.77-.06,9.36-.83,1.51-.44.47-1.07,1.07-1.33s.18.65.49.73c.7.19,1.59-.13,2.27-.26.28-.05.49-.18.72-.24.58-.15,1.7-.24,2.09-.55.69-.56.95-3.06,1.87-3.76.63.81-1.13,2.91-1.08,3.23.35.54.53.2.96.13.53-.09.97-.19,1.44-.48,1.45-.89,2.64-6.16,3.24-6.47.66-.12.29.61.19.91-.51,1.62-1.24,3.33-2.23,4.72.03.82,2.19-.45,2.33-.66.17-.26.42-1.53.67-2.08,1.16-2.48,2.42-4.79,3.23-7.44.63.07.83-.17,1.16-.64,1.55-2.16,2.3-5.69,3.75-7.99.56,1.56-1.71,3.59-1.76,4.96-.04,1.17.55.1.68.07-.24.75-.41,1.54-.72,2.27l.72-.12c.38,1.67-1.24,2.78-1.73,4.14-.37,1.02-.2,1.71.74.74.36-.38,1.84-3.15,1.91-3.62.1-.6-.21-2.66-.45-3.25-.11-.28-.2-.23-.48-.17.36-1.14.8-2.23,1.2-3.35.83.2-.69,2.09.48,1.92-.25.87-.34,1.75-.48,2.64,1.48-1.16,1.32-3.21,1.75-4.84.19-.71.52-2.46.65-2.83.01-.04.45-.23.59-.48.62-1.15.49-2.65,0-3.84l-.6,1.56.48-.12c.05,1.15-.68,1.76-.96,2.88-.31,1.27-.25,2.05-.72,3.35-.99-.55-.31-1.94-.24-2.76.02-.26.15-.66-.24-.59.11,1.1-1.75,1.05-1.89,1.23-.09.11-.33,2.16-.77,2.6-.1-.04-.18-.23-.22-.23-.38-1.5.85-2.28,1.22-3.22.43-1.09.65-2.98,1.18-4.45.29-.81,1.43-2.34.24-3.11l-.24,2.88h-.48c.01-.08,0-.16,0-.24.04-.6.18-1.51.16-2-.02-.32-.23-1.48-.63-1.59-.77,2.01-.96,5.75-3.11,6.59.89-2.53,2.09-4.99,2.87-7.55h.72c0,.13.42,1.42.72,1.44.35-3.11,1.62-6.14,1.89-9.25.23-2.63-.18-5.38.51-8l.72.24c.04-.22-.05-.53,0-.72.05-.17.5-.76.72-.48.3.38-.51,3.45-.25,4.2l.49,2.98.5-5.87c-.22-.97-.47-2.05.46-2.75.04,2.97.07,5.94-.47,8.86.7-.49,1.72-1.36,1.7-2.28-.01-.53-.43-.8-.49-1.2-.33-2.28-.49-5.81-.51-8.14,0-.4,0-1.45.5-1.55-.1.6.16,1.13.24,1.68.3,2.05.16,4.05.24,6.11.01.29-.18.89.24.83.61-2.51.5-5.09.48-7.67-.01-1.35,0-2.72,0-4.07-.56-.15-.4.13-.55.3-.83.98-1.75,2.73-2.57,3.53-.47.46-3.2,2.01-3.31,2.2-.45.77.44,3.27.19,4.27h-.72c-.06-.84-.16-1.67-.25-2.51-.03-.29.21-1.04-.35-.85-.27.09-.06.72-.12.96-.4.11-.11-.44-.39-.49-.85-.17-6.57,2.44-8,2.89-.23.07-.63.15-.96.24-.8.22-1.88.57-2.64.72-.35.07-.75.21-.96.24-11.46,1.89-24.76,1.06-36.21-.48ZM236.98,26.64c-.09-.08-1.89.56-2.35.65-6.57,1.22-13.2.98-19.79.03-7.32-1.06-20.66-5.45-26.86-.4-.26.22-.67.38-.64.8,2.18-.67,4.32-1.56,6.63-1.76,12.24-1.07,32.16,6.91,42.54,1.29.16-.09.88-.22.47-.6ZM192.62,34.3c.47.52.44,1.84.48,2.64.98.16.26-1.68.23-2.27-.02-.26-.15-.91.25-.84.35.93.05,2.42.23,3.19.06.24.94.43,1.21.64.52-.71-.89-6.05-.95-7.31-.03-.51-.21-.98.47-.83-.23.96.37,1.65.49,2.51.21,1.5-.04,3.86.24,5.27.07.38.34.72.71.84l-.96-8.98c.37-.4.19.52.47.74.21.17.52-.1.73-.14-.33,1.63.69,2.98.94,4.45.2,1.2-.32,4.58,1.22,4.41l-.84-9.1c1.3,2.88,1.1,6.31,1.31,9.42l.97.4c.27-2.94-.55-5.83-.73-8.73-.02-.32-.18-1.5.25-1.57.26,1.69.61,3.44.72,5.15.09,1.32-.28,4.28-.01,5.24.06.23.95.32,1.21.39.08-3.93.01-7.87-.72-11.74.34.12.51,1.09.6,1.44.15.64.6,2.49.6,3v7.31c0,.1,1.49.64,1.68-.36.21-1.13.08-4.46,0-5.75-.13-1.89-.67-3.77-.96-5.63.73-.11.39.17.47.6.59,3.44,1.28,6.63.97,10.18.52-.1,1.39-.33,1.46-.83.42-3.45-.76-7.1-1.46-10.43.72-.13.38.19.5.56.56,1.65.9,3.46,1.18,5.19.42.06.22-.54.24-.83.02-.53.05-1.16,0-1.68-.06-.62-.82-3.11-.71-3.24.4-.48.92,1.12.94,1.33.37,2.75-.11,6.41-.22,9.21l1.69-.64-.49-8.95.95,3.96v4.91c1.77-.05,1.11-1,1.21-2.39l.71.96-.23-7.43c.44.09.45.47.49.83.15,1.36.29,4.13.25,5.52-.01.39-.43,1.87-.26,2.04.14.13,1.2-.05,1.2-.36v-7.79l.96,3.48-.24,4.43h1.44s-.24-4.79-.24-4.79l.72.24c.02-.68-.03-1.36,0-2.04.01-.29-.18-.89.24-.84v6.35c0,.12-.38.5-.24.84h1.44s0-5.15,0-5.15l.48-1.8c-.02.87.27,1.63.26,2.51-.02,1.61-1.21,4.77,1.42,4.43l-.48-6.47c.72-.12.38.18.48.58.27,1.09.27,2.13.24,3.25.71-.26-.35-2.15.72-1.91-.08.6.15,1.47-.03,2.01-.14.4-1.04.32-.66.84.03.04.38-.05.45.19.23.82-.3,1.44,1.2,1.27.14-.14-.13-3.12-.02-3.7.06-.29.69.02.75-.26.09-.47-.12-2.63-.48-2.88-6.49-.75-13.07-2.34-19.56-2.98-3.96-.39-7.14-.09-10.91,1.2l1.56,8.39c1.15.95.92-.88.82-1.78-.13-1.1-.77-2.22-.7-3.38l1.2,1.55-.24-3.11c.65-.11.41.12.54.52.37,1.15.44,2.51.9,3.67-.24.47-.29-.93-.61-.12-.14.37-.09.61-.12.96l-.48-.72.24,2.87.24-2.15ZM188.78,28.08s-.7-.09-.71.11c.28,1.32.81,2.61,1.12,3.91.23.96.14,2.04.3,2.76.05.22.84.5.97.4-.5-.87-1.4-6.95-1.68-7.18ZM232.43,29.63c-.18,1.19.13,2.72,0,3.95,1.56-.43.24-3.28.72-4.55-.42-.18-.68.33-.72.6ZM221.63,29.27c-.24.06-1.19.18-1.22.38-.2,1.42,1.34,4.77.74,6.57,1.54.06,1.29-.79,1.17-2.01-.16-1.61-.95-3.24-.69-4.94ZM223.55,31.55c.17,1.37-.12,3.02,0,4.43,1.77-1.14.46-3.36.72-5.03.15-.02.48.32.48.36v3.83c0,.07-.33.34-.24.6h.96c-.09-1.65-.31-3.24-.24-4.91.01-.29-.18-.89.24-.84.13,1.71.24,3.46.49,5.15.06.42-.13.4.47.36v-4.19c0-.12-.38-.51-.24-.84h.48s0,4.43,0,4.43c0,.25.68.46.96.36v-5.27c.42-.05.23.54.24.84.03.76-.02,1.52,0,2.28l.47-1.2c.07.4.14,2.77.24,2.87.2.21,1.12-.23,1.15-.65l.53-3.9v4.07c.35.2.72-.34.72-.6v-4.19c-.55.07-1.25-.11-1.76,0-.4.09.4.23-.99.24-2.14,0-4.23-.18-6.36-.24l.72,3.59.35-1.92c.32-.55.59.24.6.36ZM231.95,29.51h-.48v4.07h.48v-4.07ZM203.17,43.17c10.52,1.39,21.39,1.39,31.65-1.56,7.16-2.06,13.33-6.27,20.62-8.15,6.09-1.57,13.25-2.43,18.83,1.08-.4-2.88-4.01-3.66-6.47-3.84-17.61-1.3-30.63,10.62-47.72,11.52-10.76.57-22.61-.64-32.01-6.14l-2.65-2.26c-.04.64.25,1.18.56,1.71.9,1.52,4.75,3.54,6.47,4.32s3.72,1.2,5.44,2.11c-1.44-.38-2.86-.59-4.31-1.09-.8-.27-4.42-2.07-4.67-2.02-.21.04-.51.57-.38.71.08.08.79-.15,1.14.66.4.94.22,4.59.55,4.85.03.02.69.03.71,0,.21-.2-.45-3.11-.49-3.71-.02-.28-.17-1.33.25-1.33.23.73.59,5.34.86,5.54s2.16.31,2.26.21l-.36-4.07c.98.65.63,3.89.87,4.28.2.31,5.84,1.95,6.68,2.19.68-.77-1.22-4.34,0-5.03.44.79.33,5.05.51,5.25.08.09,2.01.44,2.37.5.2-.21-.45-3.33-.49-3.94-.02-.26-.17-1.13.25-1.09.76,1.01.2,4.49.59,5.04.08.11,2.27.72,2.41.7.56-.08.12-.57.12-.6v-4.31c0-.1-.62-.42.12-.36.83,1.39.4,3.59.6,5.15.06.44-.08.39.48.36v-3.83h.24v3.83l11.03,1.68v-3.59l.94,3.73,5.53.58c.49-.53-1.27-5.83-1.42-6.85-.07-.5-.12-.67.46-.58.46,2.47,1.56,4.87,1.44,7.43l4.32.24-1.69-8.26.49-.36c.1,2.16,1.1,4.29,1.42,6.38s-.78,2.75,2.42,2.49c.3-.3-1.53-6.7-1.65-7.82-.03-.26-.24-1.09.21-1.05.23,1.38.81,2.67,1.13,4.02.18.77.68,4.61.84,4.8.23.26,1.9.31,2.35.29v-3.47l-1.68-6.35c.37.19.67,1.04.83,1.44,1.03,2.53,1.6,5.66,1.56,8.38h1.68c.18-1.19-.18-2.34-.25-3.47-.01-.22-.16-1.05.37-.85.53,1.38.33,2.87.36,4.32h2.16c.41-3.31-.91-6.37-1.2-9.58.65-.16.54.49.64.91.68,2.93.94,5.97,1.52,8.91,2.66.15,1.04-4.12.96-5.75.49-.18.96.88.96,1.08v4.67l4.06-.25.26-5.98c.36.11.45,1.24.47,1.56.07.91-.04,1.84,0,2.75,1.33-.02.07-2.39,1.67-1.08-.52.75-1.73,3.87-.04,2.35l.76-3.91c.59,1.41-.16,2.81-.48,4.19.52.66,1.56-1.13,1.63-1.49.11-.52-.36-1.68-.38-2.34,0-.32.14-1.28.2-1.68s-.13-.4.47-.36v3.59c.54.05,1.19-.74,1.33-1.18.36-1.1-.46-1.89.23-2.65.6-.11.32.47.35.84.06.68.27,1.58.26,2.14-.02.92-.74,1.61-.73,2.52,2.82-.3,1.86-3.78,1.92-5.75l.72,3.11c1.62-.23.79-2.36.8-3.44,0-.45.33-.92.32-1.44-.03-1.05-1.04-2.25-.64-3.51l1.2,3.47v4.07c0,.14-.39.49-.24.84.75-.34.55-2.25,1.32-2.63s-.09.92-.12,1.08c-.09.43.1,1.01-.03,1.4s-1.9.69-1.41,2.06c2.46.55,1.37-1.54,1.71-1.9.07-.07.46.04.62-.06.77-.52-1.06-6.4-.65-7.62.6-.18.6.52.65.9.1.72,0,1.39.1,2.07.26,1.87,1.01,3.78.21,5.66.69.12.4-.15.51-.55,1.16-4.07-.66-8.53-.99-12.62.41.07.43.47.54.77.17.43,1.13,4.36,1.13,4.62v4.67l1.44-.48-.71,3.35c1.31-.25,1.44-2.65,1.19-3.67-.18-.73-.31-1.04-.48-2.2-.27-1.88-.62-3.76-.96-5.63.69-.18.73.98.84,1.43.37,1.49.51,5.98.97,6.69.19.28.8.45.94.98.35-.13,1.2-1.7,1.27-2.09.11-.57-.14-3.22-.2-4-.08-.95-.15-1.88-.23-2.86-.06-.71-.69-1.47-.47-2.3.62-.11.43.1.59.48.64,1.57.22,3.09.38,4.67s.56,3.28.72,4.92l.48-.24v1.2c.69.11.4-.14.51-.55.14-.52.25-1.05.21-1.6l-.71.72c0-.85.37-1.67.26-2.53-.06-.46-.49-.34-.49-.45.03-.41.45-1.04.46-1.69.03-1.41-1.03-2.07-.71-3.47.35-.03.39.56.48.83.73,2.12,1.16,4.34,1.2,6.59.67-.25.51-1.23.49-1.81-.03-.88-1.07-5.3-.73-5.62h.72c-.02,2.41.7,4.82.24,7.19,2.38-1.23-.01-4.04,1.43-5.51-.25.58.24,1.48.24,1.8v3.71c.75-.46,1.6-.94,1.87-1.85l-.67-7.02c.73-.11.39.18.47.6.35,1.93.23,3.92.49,5.86.63-.2.5-1,.48-1.55-.08-1.89-.74-3.73-.48-5.76.06-.44-.08-.39.48-.36v3.47c0,.08.21,1.36.72,1.08.12-.78-.2-1.51-.25-2.27-.02-.26-.15-.91.25-.84.33.79-.08,2.17.72,2.63,1.05-8.41-11.87-6.99-17.03-5.87-8.07,1.75-14.62,6.09-22.01,8.44-3.11.99-8.38,1.7-11.72,2.19-1.85.27-3.73.45-5.6.52l.48,2.87c-1.3.06-.83-2.75-.96-2.87-5.2.23-10.07-.46-15.11-1.44ZM220.44,36.22v-3.59l-.5,2.52.5,1.08ZM192.02,33.11v.24c.16-.08.16-.16,0-.24ZM233.86,33.83l-2.16,1.19c.45.28,2.62-.75,2.16-1.19ZM230.99,35.02c-.49.01-6.15,1.44-5.75,1.91,1.52.27,4.03-.41,5.3-1.29.29-.2.59-.01.45-.62ZM220.44,36.94c-3.85.36-7.75.09-11.57.78-1.81.33-4.47.97-5.22,2.81,1.65.5,2.76-.79,4.37-1.26,3.39-.99,6.31-.42,9.67-.64,1.31-.09,3.22,0,2.75-1.69ZM266,47l-.84,2.15c.26-.3.6-.22.79-.64.03-.07.44-1.52.05-1.51ZM264.8,48.2h-.96s0,1.19,0,1.19c.71.09.71-.74.96-1.19ZM15.89,57.31c-.57-.03-.42-.08-.48.36-.12,1-.55,2.72.48,3.24v-3.59ZM272.95,62.34c.18-1.02.3-2.07.24-3.11-1.51.85-.8,2.77-.96,4.19-.38,3.47-.98,8.33-1.74,11.68-.3,1.32-1.46,2.99-1.54,3.94-.05.65.24.96.88.8,1.4-3.84,2.11-7.95,2.88-11.98.31-1.63.74-2.98.72-4.68,0-.46.23-.96-.48-.83ZM276.07,60.9c-2.4.85-1.68,2.6-1.95,4.4s-.92,3.7-.69,5.66l.66-.41c.48-3.25,2.03-6.33,1.97-9.65ZM16.12,62.58c-.69-.11-.4.14-.51.55-.26.94-.23,1.83-.21,2.8,1.32-.14.51-2.38.72-3.35ZM16.6,70c.03-1.13.29-2.32-.36-3.35-.51.64-.8,3.31.36,3.35ZM71.76,69.76v4.31c-.36-.11-.45-1.23-.48-1.56-.07-.83.04-1.68,0-2.51h-1.44s0,2.4,0,2.4l-.72-2.04-2.16.13v3.47s-.35.48-.48.24c-.52-.37-.11-2.73-.24-3.48-1.14-.12-1.9.78-3.12.48v4.79c-.97-.3.02-2.39-.24-2.63-.65-.28-1.24.35-1.6.41-.87.12-1.53-.88-1.54,1.15,0,.81.37,1.58.27,2.39-.05.45.06.39-.49.36v-3.59l-.96.13.72,7.06c8.72-1.94,18.53-.89,25.65,4.79l-3.84-14.62c-.32-.34-.45.03-.49.36-.09.91.34,2.15.25,3.35-.04.51-.24,1.77-.71,2.04-.5-1.4-.61-2.89-.78-4.37l-.9-2.58v5.27c-1.41-1.32.43-5.89-1.92-5.99v5.03l-.48-1.8c-.18-.9.45-2.43-.48-2.99.05,2.26.1,4.45,0,6.71-.22.02-.48-1.25-.48-1.32v-4.55c0-.78-.38-1.34-1.2-1.08l-.48,4.79-.24-4.55h-1.44ZM79.91,69.52c-.76-.23-.51,1.08-.48,1.56.04.58.16,1.99.71,2.28l-.24-3.83ZM62.65,71.2c-1.11.08-1.69.54-1.44,1.68h1.44s0-1.68,0-1.68ZM60.97,71.68h-1.2s0,1.44,0,1.44c1.19.16,1.3-.38,1.2-1.44ZM59.29,71.92c-.7-.69-2.99,1.95,0,1.44-.05-.3.07-1.37,0-1.44ZM57.16,73.8c-.18-.28.19-1.09-.39-1.4-.33,0-.65,1.44-.61,1.79l.73,7.31h-.72c-.04-1.39.25-3.35-.96-4.31-.14,1.02.2,1.98.25,2.98.01.28.17,1.33-.25,1.33.04-1.63-.75-3.58-.74-5.15,0-1.09.9-1.93.26-3.23-.46-.07-.64.19-.72.6-.24,1.35-.08,3.48-.24,4.91l-.45-1.83c0-.6-.13-1.33-.05-1.9.05-.35.88-.62.5-1.54-.1-.1-1.76.06-1.89.27-.19.32.25,1.37-.5.77-.21-.17-.13-.53-.96-.32l.72,6.71c-1.07-.09-.43-4.38-1.2-3.72l-.47.6c-.23-.9-.14-1.89-.24-2.76-.04-.36-.19-.73-.48-.35l.72,7.19c.75-.42-.41-2.77.72-2.63-.14,1.29.55,3,.51,4.2,0,.23-.96.88-.51,1.79l7.33-3.35c-.18-2.25-.87-4.41-.61-6.71.43.09.45.47.49.83.13,1.2.04,2.5.34,3.74.1.42.45,1.44.85,1.66l-.47-7.03c-.08-.35-.82-.25-.94-.43ZM272.71,75.75c1.2-.67.95-2.22.95-3.35-.97.68-.96,2.28-.95,3.35ZM17.3,72.9c-.14-.08-.48,0-.7-.02-.19.18.36,2.29.96,2.39.04-.43.02-2.21-.26-2.38ZM48.26,75.27c-.23.04-.9-.06-.96,0-.08.08-.05,1.96,0,2.28.1.84.61,1.1.72,1.68.37,1.97.17,5.01.55,7.36.04.22.1.72.42.66-.05-3.06.18-6.16-.27-9.19-.04-.27-.09-1.12-.45-1.11l-.48,1.44c-.36-1.43.75-1.78.48-3.11ZM51.14,98.04c-2.45-1.68-3.33-4.75-3.6-7.55l-.75-9.07-.45-.28-.48.84v-4.91c0-1.34-.96-1.43-.96-.24v4.43l-.49-2.03c.06-.92-.18-1.91.25-2.76-.23-.2-.96.51-.96.6v5.51c0,.17.42.68.24,1.08h-.36c-.05-.01-.36-1.02-.36-1.08v-5.39c-1.25.27-.87,2.63-.96,3.59l-.25-2.05.25-1.06c-1.88-.07-1.07,2.77-1.22,4.17-.11.98-.65,2.01-.7,3.02-.42.06-.22-.54-.24-.83-.02-.53-.06-1.17,0-1.68.07-.62.97-3.46.72-3.71-.14-.14-.63.02-.84.24-.45.47-.98,5.32-1.08,6.35-.06.67.04,1.36,0,2.03l-.48-1.8c.43-1.68.18-3.44.24-5.15-.5-.28-1.92.44-1.92.84v3.95c-.91.17-.24-.75-.26-1.29-.03-.67-.52-1.31.02-2.06-.85-.27-.89.56-.96,1.32-.07.83.17,2.15,0,2.83-.07.28-.75.27-.92.81s0,1.2-.05,1.75c-.33-.08-.49-1.33-.49-1.57,0-.92.39-1.8.25-2.74-1.81,1.28-.48,1.1-.48,1.2v4.91c0,.23-.37,1.56-.72,1.56v-6.23c-1,.51-.59,1.41-.47,2.27l-.49,3.25v-3.59c-.69-.12-.39.18-.54.52-1.11,2.42-.93,4.9-.88,7.49l1.91,5.64c.33.05.33-1.78.95-1.2.12.11.83,2.64,1.44,3-.15.38-1.51-.53-1.19.23.52,1.25,3.43,4.32,4.55,5.28,9.21,7.94,26.19,9.3,37.3,5.15,7.74-2.89,13.61-9.8,11.38-18.45l-.96.48c-.25-.84-.07-3.41-.46-3.93-.2-.28-.47-.11-.74-.14.25,1.03.12,2.15.3,3.17.23,1.29,1.27,3.37,1.38,4.39.02.23-.08,1.08-.47,1.06l-2.88-11.5-.47.11.95,4.44-.71-.96c-.28,2.62,1.74,4.82,1.32,7.43-1.57-3.54-1.8-7.74-3.3-11.32-.26-.61-.58-1.62-1.38-1.61.53,4.41,2.03,8.62,2.88,12.94-.19-.03-.67.05-.72,0-.11-.1-.25-2.43-.35-2.89-.48-2.32-1.51-4.44-2.17-6.7-.32-1.11-.42-4.35-1.68-4.55-.4-.06-.39,0-.37.36.09,1.28.34,2.93.6,4.2.44,2.21,1.53,4.71,1.75,6.88.04.36.25.63-.3.54-.67-.35-1.36-5.67-1.63-6.76s-1.03-4.21-1.43-5.04c-.36-.73-1.09-.96-1.86-.9l3.12,12.58c.1.28-.09.5-.36.36-.62-.34-1.15-5.4-1.43-6.47-.08-.32-1.39-4.32-2.04-3.59.08.95-.12,2.05.01,2.98.07.47.4.91.5,1.42.97,4.82,2.32,9.58,2.6,14.53-.72.12-.39-.18-.48-.58-.58-2.35-.78-5.16-1.27-7.61-.15-.77-1.13-5.76-1.37-5.94-.5-.39-.52.99-.95.48-.14-.16.05-3.46-.03-4.16-.07-.59-.9-4.17-1.16-4.36-.21-.16-.74-.21-.74.02,1.23,2.37.84,4.99.96,7.54-.3-1.26-.97-7.79-1.81-8.14-.11-.04-.59-.1-.59.11.18,2.14,1.27,4.08,1.44,6.23.13,1.69-.54,4.41-.23,5.7.04.17.41.15.45.35.18.8-.03,2.69.98,2.69.09,1.8.08,3.96.24,5.87.1,1.16.67,2.49.71,3.6.02.5.15.69-.48.59l-2.16-12.7c-.92.39-.26,1.38-.24,2.04.07,2.54-.14,5.39.25,7.89.2,1.3,1.64,3.03,1.18,4.69-.41-.07-.42-.48-.54-.77-1.44-3.43-1.08-8.06-1.96-11.69-.22-.33-.35-.19-.63-.13-1.54.29-.13,4.07,0,5.08.11.86-.08,1.78.03,2.61.2,1.52.87,3.09.72,4.67-.63.17-.56-.49-.64-.9-.42-2-.7-4.58-1-6.67-.15-1.06-.13-2.35-.27-3.45h-.96c-.09.26.24.53.24.6v7.55l-1.21-7.42c-.06-.04-.66-.03-.7,0-.25.16-.04,5.09,0,5.87.05,1.1.41,2.5.48,3.6.03.46-.29.55-.48.36-.34-.36-1.18-8.5-.72-9.58h-1.68c.68,1.32.3,2.65.49,3.94.13.86.62,1.84.7,2.89.03.32.21,1.48-.23,1.55-.94-2.28-.86-4.48-1.23-6.8-.3-1.84-.5-1.66-2.37-1.58-.18.18.69,4.22.71,4.95,0,.38-.04.7-.47.8-.08-.91-.39-1.85-.48-2.76-.21-2.27.88-3.59-2.4-3.47-.43.42.72,5.13.73,6.11,0,.5.14.7-.49.61l-1.08-6.47c-.36-.82-3.85-1.67-4.91-2.4.12.13.28,1.81.24,2.16-.46.07-.64-.19-.72-.6-.04-.24-.12-2.21.48-1.56ZM19.48,82.46c-.35,1.31.94,4.22,1.63,5.44.32.57.42.7,1.01.31.24,1.47.13,3.47,1.92,4.07-.38-1.54-.49-3.28-1.56-4.55-.14-.06-.17.35-.36.48-.08-.49-.23-3.14-.84-3.11-.26.01-.22.79-.6.71-.12-.95-.09-2.29-.29-3.18-.14-.62-.57-.71-.67-.89-.34-.65-.66-2.87-1.08-2.87-.81,0-.28,3.4.84,3.59ZM86.38,91.09c-.23-6.91-10.8-9.69-16.41-10.07s-18.77,1.22-21.04,7.75c-.21.61-.75,2.07.05,2.33,1.08-2.99,4.17-5.11,6.96-6.34,7.98-3.52,20.17-3.03,27.09,2.62,1.38,1.13,2.25,2.35,3.35,3.72ZM49.46,86.06l.63-.59-.87-3,.24,3.59ZM73.4,84.41c-.19-.13-.98-.24-.91.31.04.38.37,2.67.47,2.77.07.07.72-.04.95,0,.19-.18-.27-2.92-.51-3.08ZM63.84,84.62s-.72-.09-.72.12l.72,2.51c-.54-.32-.67-1.32-.9-1.87-.15-.36.15-.65-.54-.53l.48,2.63-.71-.96-.25,1.2c-.31.07-.28-.25-.35-.48-.23-.74-.34-1.62-.37-2.39-.25-.25-2.99.33-3.24.71-.54.81.46,3.91.13,5.04,1.03-.02,1.85-.65,2.82-.89.54-.13,2.6-.21,2.69-.3.06-.06-.04-1.96.51-.62.25.61-.03,1.03.93.86-.17-.66-1-4.87-1.2-5.03ZM65.28,84.62c-1.71.53.34,3.64.24,5.03l.71-.48c-.11,1.19,1.83,1.19,2.64,1.92.23-.67-.36-1.73-.25-2.25.04-.2.45-.14.47-.17.37-.5-.47-.43-.65-.86-.26-.62.01-1.92-.76-2.24l-.24,1.2-.24-1.67c-1.22,0-.31,1.66-.24,2.52.02.26.18.89-.23.83-.08-1.15-.28-2.56-.84-3.59-.41.94.23,1.91.12,2.87l-.24-.72-.47.48v-2.87ZM24.52,89.65c.41-.49-1.18-3.36-1.91-3.59.07.34,1.35,4.27,1.91,3.59ZM56.41,94.92s-.25.05-.25-.14l-.23-7.65-.48-.36v3.59c-.37-.11-.45-1.23-.48-1.56-.07-.75.04-1.52,0-2.27-.02-.03-.65.29-.72.36-.6.71.29,3.99.24,5.15-.57.09-.45-.03-.56-.46-.32-1.18-.06-2.85-.16-4.09-.92-.19-.31,1.39-.48,1.91-.47.08-.13-.59-.24-.72-.52-.59-.44.71-.6.72-.49-1.42-1.65-.25-1.52.77.09.73,1.63,2.8,2.24,3.06.72.3.02-1.24.59-1.19l.73,2.39.71-2.39c.31,1.09-.26,3.42,1.2,3.59.02-.24-.02-.48,0-.72,0,.01.17-.08.24.15.23.77-.19,2.06.96,1.76l-.72-6.95c-.36.11-.45,1.24-.47,1.56-.09,1.15.08,2.33,0,3.47ZM82.04,87.77c-.97-.59-.5.76-.33,1.4.06.23.78,2.72,1.32,2.15-.15-.59-.64-3.34-.99-3.56ZM266.78,89.59c-.24-.42.39-1.36.3-1.86-.8,1.07-1.78,2.11-2.04,3.47-.13.7.73-.23.48.47-.21.56-1.1,1.47-1.16,1.73-.11.48.38.85.03,1.68-.76,1.79-2.88,2.06-3.42,3.9,2.64-.63,3.38-2.95,5.03-4.67l-.72-.47c.44-.91,2.13-3.11,1.93-4.04-.04-.16-.39-.15-.43-.21ZM70.08,94.92c.13-.17-.08-1.09-.16-1.39-.96-3.39-8.74-4.3-10.99-2.2-.44.41-1.14,1.69,0,1.43.7-.16,1.8-.99,2.82-1.26,2.54-.68,5.29-.42,7.01,1.76.13.17.98,2.12,1.33,1.66ZM63.61,92.05v5.39c0,.21.45.87.24,1.32-.32-.04-.42-.32-.47-.61-.29-1.75.24-4.41-.97-5.62.19,1.27.08,6.07,1.2,6.6.9.43,4.34-1.43,4.68-2.51.51-1.62-.44-3.8-2.29-3.85.12,1.32.73,3.03.62,4.31-.01.12-.18.74-.38.35.23-1.02-.74-.34-1.34-.81-.49-.39-.52-3.21-.74-4.06-.12-.43.07-.62-.55-.52ZM62.17,98.76c.17-.13.47.61.71.36-.61-1.98-.53-4.18-1.02-6.17-.06-.24-.07-.72-.41-.67l.47,5.27-.89-4.03-.54-.52c-.03.82.23,6.24.49,6.46.76.61,1.13-.66,1.19-.71ZM26.44,95.88c.24-1.35-1.53-1.35-1.2-2.87l-.96.24c-.06.39.41.14.56.52.13.32.08.98.21,1.11.1.09.46-.02.6.09.22.19.06,1.06.79.9ZM60.01,93.48c-2.63.18-.77,2.41-.96,4.07-.98-.79-.39-2.82-1.43-3.59l.71,4.55c-.61-.44-.57-1.27-.96,0-.85-1.41-1.05-.13-1.54-.24s-1.3-2.54-1.93-2.87c-.63-.05-.24.1-.18.42.09.44.32,2.08.41,2.22.34.52,4.6,1.28,4.93.95.07-.07-.05-.93,0-1.2l.47.48c-.05-1.07-.36-2.21-.45-3.26-.02-.27-.22-.86.21-.81.59,1.61.28,3.36.48,4.91.04.33.18.75.48.35-.03-2,.14-4.02-.24-5.99ZM52.57,94.2c-.76-.27-.52,1.59-.49,2.05.02.26.02,1.06.37,1.06.76,0-.1-2.64.12-3.11Z"/>
  <path class="cls-4" d="M72,99c-.11-2.31-.13-4.64-.24-6.95.03.11.29.37.36.7.28,1.2,1.33,4.5,1.31,5.43-.01.54-.97.82-1.43.82Z"/>
  <path class="cls-1" d="M219.96,56.11c11.45,1.54,24.75,2.37,36.21.48.93.58.06,2.24,0,3.23-.02.27-.17,1.33.25,1.32.64-1.55.82-3.12.72-4.79.76-.15,1.84-.5,2.64-.72.84,3.31-1.15,6.71-1.68,9.94,0,.2.47.17.6.13.59-.19,2.24-9.05,2.04-10.31,1.44-.45,7.15-3.06,8-2.89.27.06-.01.6.39.49.06-.24-.15-.86.12-.96.56-.2.32.55.35.85.09.84.19,1.68.25,2.51h.72c.25-1-.64-3.49-.19-4.27.11-.19,2.84-1.75,3.31-2.2.5,1.04.26,2.53,0,3.59-.93-.48.03-2.19-.95-2.63.02,1.52-.13,3.06.24,4.55-.05.19.04.5,0,.72l-.72-.24c-.69,2.62-.28,5.37-.51,8-.27,3.11-1.54,6.15-1.89,9.25-.3-.02-.71-1.3-.72-1.44-.04-.75.78-2.48.96-3.35.27-1.33.62-3.11.72-4.44.1-1.43-.26-3.76,0-4.98.03-.16,1.63-1.06,0-1.37-.27,1.58-1.01,3.09-1.17,4.7-.19,1.95.17,4.42-.27,6.32-.14.63-.73,2.35-.96,3.11-.78,2.56-1.99,5.02-2.87,7.55,2.15-.84,2.34-4.58,3.11-6.59.4.11.62,1.27.63,1.59.02.5-.12,1.4-.16,2h-.24c0-.32,0-.64,0-.96l-.36.24-2.52,6.95c.47.48,1.66-2.34,1.79-2.64.37-.85.96-2.22,1.09-3.11.11-.04.23-.13.24-.24h.48v.24c-.53,1.48-.75,3.36-1.18,4.45-.37.93-1.6,1.72-1.22,3.22-.11-.01-.19,0-.24.12-.09.93-.59,1.69-.96,2.51-.69.14-.51-.39-.49-.84.03-.52.57-2.2.49-2.28-.08-.07-.65.07-.72,0-.15-.14.58-3.38.24-4.07-1.82,1.48-1.98,4.33-3.83,5.75-.33-1.21,2.92-7.38,2.63-7.67-.79-.8-1.4,2.15-1.57,2.39-.26.39-.77.46-.8.51-.03.04.23.49.12.93-.13.51-.6,1.01-.86,1.44.06-.79-.04-1.61,0-2.4-1.51,1.72-1.76,4.52-2.39,6.71.64.13.41-.16.59-.47.77-1.3.86-2.32,1.8-3.84-.17,2.07-1.06,4.19-1.44,6.23.62.66,1.72-3.18,1.68-3.59.57.23-.29,1.62,0,1.91.07.07.74.05.83-.25l2.29-5.26c.76-.21.49.81.45,1.29-.11,1.26-.67,2.7-1.16,3.87l.95-.84c.18.57.27,1.07.24,1.68-.04.8-.47,1.83-.72,2.64-.81,2.64-2.07,4.96-3.23,7.44-.26.55-.51,1.82-.67,2.08-.14.22-2.3,1.48-2.33.66.98-1.38,1.71-3.1,2.23-4.72.1-.3.46-1.03-.19-.91-.6.31-1.79,5.58-3.24,6.47-1.44.19-.39-.9-.26-1.34s-.31-.46-.46-.34c-.09.07-.65,1.82-.72,2.16-.44.07-.61.41-.96-.13-.05-.32,1.71-2.42,1.08-3.23-.91.71-1.17,3.21-1.87,3.76-.39.31-1.52.4-2.09.55.39-1.11.69-2.29,1.2-3.35.93-1.96,2.86-3.33,3.43-5.32.05-.19.37-1.8-.31-1.15-.13.12-.85,3.24-1.44,2.63.43-.58.11-1.39.24-1.91s.87-1.22.72-1.92c-.73.32-.71,1.32-.96,1.92-.75,1.81-1.23,3.89-1.92,5.51-.51,1.21-1.94,2.31-1.68,3.83-.67.13-1.56.44-2.27.26-.31-.08.1-.98-.49-.73s.44.88-1.07,1.33c-2.59.76-6.63.69-9.36.83l.48-1.44c-1.09-.29-.75,1.03-1.44,1.68-.64.03-1.28-.02-1.92,0,.22-.82,1.27-1.7,1.2-2.51,0-.21-.51-.16-.6-.13-.13.05-.9,2.27-1.08,2.64-3.91.1-7.84-.07-11.75,0-2.01-.12-4.44,0-6.37-.22-.45-.05-.32-.5-.48-.51-.45-.02-1.14.37-1.92.27-.46-.06-.33-.5-.48-.51-.35-.01-.9.27-1.54.24-.17-.6-.65-.42-1.08-.48-17.01-2.55-32.51-5.8-48.69-11.73-20.82-7.64-40.19-20.03-62.17-24.37-16.6-3.28-39.92-2.42-55.44,4.72l-1.32-4.79-1.07-2.16,1.68,7.43c-.58.28-1.11.65-1.68.96-.74.14-.41-.36-.51-.8-.31-1.39-.87-2.81-1.11-4.18-.57-3.36-.33-6.11-1.87-9.4-.17-.36.04-.59-.59-.48l3.12,15.09c-.6.34-1.33.82-1.92,1.2l-3.11-13.42c0,4.69,1.94,9.23,2.4,13.9-4.55,3.14-8.42,7.01-10.13,12.28-.12.37-.38.65-.66.9,0-.08-.17-.28,0-.48-.16,0-.33-.02-.48,0-.3-.75.21-1.8.02-2.5-.08-.28-.59.07-.82-.42-.3-.66-.11-1.63-.16-2.35,1.33.72.58,2.54,1.67,3.48.49.27.21-1.3.19-1.39-.2-.73-.78-1.22-1.02-1.85-.72-1.88-1.58-3.98-1.08-5.99l-.72.24c-.48-1.43-.56-2.81-.48-4.32-1.8.72-.95-2.73-1.19-3.66-.05-.21-.52-.2-.73-.76-.57-1.48-.11-2.52-.22-3.57-.02-.17-.45-.03-.51-.49-.32-2.36.06-6.1.03-8.65-.01-1.24-.36-2.41-.25-3.82.31-3.95,1.83-8.33,2.15-12.34-.82.62-1.16,1.87-1.37,2.82-.86,3.83-1.12,8.43-1.52,12.37-.48,4.73.67,8.73.98,13.44.07,1.15-.05,2.32,0,3.47l-.71-2.28c.05-.86-.21-1.87.23-2.64-.88.18-.73.13-.92-.75-.32-1.48.28-2.4.22-3.06-.02-.21-.57-.18-.7-.53-.07-.19-.27-3.07-.28-3.56-.05-2.55.25-6.32.49-8.87.32-3.43,1.5-6.76,1.67-10.19-.62.26-.7,1.09-.85,1.67-.66,2.61-1.06,5.48-1.31,8.15-1.69-.36.08-2.98.23-3.97.23-1.51-.18-3.15.39-4.64s4.19-3.84,5.62-4.81c.13,1.19-.66,2.18-.9,3.3-.1.45,0,.9-.06,1.25-.19.99-.93,6.32-1.2,6.71-.02.03-.4,0-.58.24-.55.71-.18,2.94.1,3.83-.55,1.29-.74,2.78-.72,4.19.07,3.88,1.3,12.13,2.16,16.01.14.63.75,2.66,1.02,3.57.3,1,1.24,2.58,1.33,3.49.06.58-.65,1.04-.44,1.73.09.1.62-.37.84-.01.12.19.8,4.72,1.55,3.85-.51-1.79,1.1-2.48.96-4.07-.8-.38-1.11,2.63-1.68,1.92.21-1.33-1.22-3.56.23-4.31l.72.96c.03-.84-.03-1.68,0-2.52.01-.31.28-.8.25-.83-.06-.05-.47.08-.66-.05-.48-.33-.2-2.83-.55-3.55-.36.03-.6,1.06-.6,1.31-.03,1.46,1.74,3.86-.35,4.91-.96-3.46-1.6-7-2.29-10.53-.39-1.97-1.02-4.05-1.28-6.15-.45-3.63-.52-7.44.45-10.99-.15-.34-.41.26-.48.36-.76.11-.44-.27-.37-.73.12-.79.39-1.62.61-2.39.81-2.76.95-4.19,1.44-6.95.3-1.67,1.06-3.11.96-4.79.73-.49,1.4-.98,2.16-1.44-.2.71-.09,1.86-.24,2.47-.06.26-.58.23-.69.56-.15.45.02,1.15-.15,1.78-.22.85-1.98,2.16-.36,2.27-.74,1.38-.34,2.79-.55,4.25-.24,1.65-1.21,3.18-1.38,5.21-.13,1.62-.27,6.62,0,8.03.12.62.68.39.75.94.2,1.63.16,4.25-.74,5.64.58.3.73-1.18,1.2-.72.43.43.09,3.24.23,3.94.06.29.7-.03.75.26.14.78-.22,3.08.95,2.38-.62-4.09-1.88-8.59-2.16-12.7-.12-1.84.25-4.15,0-5.87,1.4-4.92,1.09-10.48,2.18-15.43.21-.94,1.03-2.09.93-3.26,1.51-.89,3.08-2.64,5.04-2.64.07.79-1.48,5.01-1.2,5.27.06.05.52-.03.72,0,.41-1.67.66-3.34.96-5.03.22-1.23.56-1.11,1.59-1.64,30.14-15.56,67.98-11.82,99.31-2.25,28.55,8.72,54.19,24.1,83.99,28.1ZM31.47,37.42l.72-4.31c-.86.28-1.73,4.03-1.44,4.31.05.05.52-.03.72,0ZM33.63,37.42c-.72-.12-.39.18-.48.58-.36,1.46-.46,2.97-.71,4.45l-.72-.24c.22.83-.57,3.04,0,3.59.67.64.43-1.51.51-1.77.1-.31.56-.33.69-.56.81-1.38.42-4.39.71-6.06ZM29.79,50.6l.72-11.02-.89,3.3c-.27,2.58-.72,5.12-.54,7.72h.72ZM29.31,52.51c-.62-.1-.43.09-.55.52-.48,1.73-.34,3.94-.17,5.71.95.18.31-1.22.33-1.76.06-1.49.4-2.98.39-4.47ZM30.75,60.9c.29,4.35.81,8.74,2.04,12.94.92,0-.53-5.52-.58-6.14-.09-1.16.24-.51-.25-1.71-.28-.68-.68-4.23-.74-5.09-.13-2.04.21-4.37,0-6.35-.05-.5-.17-1.35-.72-1.56-.13,2.65.06,5.28.24,7.91ZM261.2,79.59c.7-.45,1.38-1.78,1.62-2.57.54-1.75,1.04-3.36,1.6-5.11,1.13-3.53,2.61-12.22,2.77-15.93.03-.73-.13-1.33-.25-2.03l-.93,3.5c-.35,6.35-1.9,12.69-3.79,18.73-.36,1.14-1.21,2.12-1.03,3.41ZM268.16,59.22c-.11,2.53-.53,6.38-.96,8.87-.53,3.07-2.5,5.59-3,8.62.93-.51,1.05-1.8,1.55-2.45.28-.37,1.03-.53,1.17-1.07.12-.49-.22-.92-.2-1.37.03-.57.6-.9.7-1.46.13-.7-.11-1.59.01-2.27.56-3.2.99-5.55,1.2-8.87.09-1.42.48-3.29.24-4.67-.15-.82-.89-.88-.85.12.06,1.52.2,3.02.13,4.56ZM262.16,58.26c-.16,2.51.41,2.24.72,0,.06-.47.49-3.05.12-3.12-.46-.08-.58-.14-.6.35-.05.97-.18,1.87-.24,2.76ZM262.37,70.93c.86-.52,2.89-13.01,2.91-14.82-1.38.94-.79,2.59-.99,3.92-.34,2.25-.84,5.19-1.54,7.33-.2.62-1.63,3.29-1.31,3.6.28-.04.71.09.92-.03ZM33.15,60.42c.19,1.73.73,3.26.96,4.79.26,1.78.24,3.72.55,5.56.23,1.36.6,2.72,1.01,4.03.25,0,.11-.79.09-1.05-.24-2.91-.76-5.89-1.41-8.54-.36-1.46-.28-3.22-.48-4.79-.12-.91-.24-2.16-.47-3.01-.09-.33-.03-.74-.49-.83-.12,1.3.09,2.55.24,3.83ZM29.79,58.98c-.11-.1-.85-.03-1.08.24-.41.48-.37,1.77-.36,2.4l1.25-1.74c.13-.19.28-.8.19-.89ZM261.68,63.06c-.1.81-.13,1.78-.25,2.5-.23,1.39-1.35,3.04-.94,4.69.62-.5.94-1.81,1.13-2.58.41-1.62.34-3.08.55-4.61.1-.75.83-1.84.48-2.88h-.72c-.1.1-.19,2.46-.24,2.88ZM44.18,64.25c.16-.14-.8-3.73-1.44-3.83-.05.91.28,2.91.71,3.67.15.27.67.2.72.16ZM29.07,66.17c-.2,1.11.22,2.21.26,3.23.02.52-.25.97-.21,1.6.1,1.39.99,6.19,1.43,7.45.24.68,1.04.78.88-.4-.52-3.93-1.46-7.71-1.89-11.89-.06-.61-.28-4.32-.6-4.32-.33,1.46.19,3.07-.59,4.44.18.12.46-.09.71-.12ZM45.86,64.01h-.72s.24,2.88.24,2.88c1.44-.16.22-1.96.48-2.88ZM46.82,70.72c.06-.52-.39-3.33-.84-3.35s-.22.7-.2.91c.07.64.19,2.49,1.04,2.44ZM25,72.64c.17-.34-.15-.64-.23-.48-.17.34.15.64.23.48ZM261.2,73.36c-.55-.1-.38.03-.53.31-.66,1.18-.37,3.13-.66,4.48.61.11.43-.09.59-.48.25-.63.9-3.94.61-4.31ZM33.63,74.32h-.72c-.2.19.12,3.47.48,3.83.23.23.5.05.48-.36-.07-1.11-.44-2.29-.24-3.48ZM35.91,75.04v.24c.16-.08.16-.16,0-.24ZM257.84,76.95c-.67-.12-.4.14-.54.52-.94,2.64-1.35,5.79-2.27,8.53-.49,1.48-1.51,3-1.78,4.47-.05.29-.32.68.15.85.52.19.54-1.29.84-1.55,1.2-4.26,3.29-8.36,3.59-12.82ZM260,79.83c-.15-.13-.86,0-.91.4l-3.64,10.86,2.03-4.08c.33-.87,2.8-6.92,2.52-7.18ZM252.81,84.86c-.55-.1-.54.25-.71.61-1.44,3.07-2.2,6.52-3.57,9.63l.32,1.02,3.95-11.26ZM256.65,91.57c.4.08.63-.2.82-.49.12-.18,1.08-2.22,1.15-2.44.21-.65.23-1.19.18-1.85-1.13.5-.93,1.85-1.26,2.69-.23.61-1.09,1.19-.9,2.1ZM261.68,87.5c-.06-.06-.81-.13-.78.3l-3.06,7.85-.47-.12,2.14-5.29v-1.07c-.47-.09-.56.22-.76.55-1.17,1.97-1.47,5.22-2.83,7.24l.96-.12-.24,2.16c1.87-1.97,2.44-5.18,3.42-7.73.2-.51,1.77-3.63,1.62-3.77ZM263.36,88.21c-.89,1.24-2.1,3.28-2.58,4.73s.13,2.23.7.7c.66-1.78,1.36-3.6,1.88-5.43ZM247.77,89.65c-1.05.08-.96,1.64-.96,2.39.86-.39.91-1.56.96-2.39ZM244.41,92.29c-.98-.22-1.35,2.73-1.2,2.87.03.02.69.03.72,0,.11-.1.32-2.46.48-2.88ZM246.81,92.53c-.58-.15-.6.4-.76.79-.68,1.68-1.66,4.04-2.23,5.68-.13.39-.6,1.42,0,1.67.38.16.75-.98.88-1.27.92-2.04,1.94-4.67,2.11-6.87ZM240.82,95.64c-.61-.11-.43.09-.59.48-.59,1.48-.7,3.54-1.57,5.03.53.53,1.54-2.31,1.62-2.57.31-.95.63-1.92.54-2.94ZM241.78,98.76c-.55,1.28-1.33,2.68-1.44,4.07.95-.63,1.68-2.49,1.68-3.59.3-.75,1.57-1.95.48-2.4-.18.65-.46,1.29-.72,1.92ZM250.89,97.56c-.51-.57-1.91,2.37-1.68,2.87.55.13.79-.67,1-1.04.17-.3.9-1.59.68-1.83Z"/>
  <path class="cls-3" d="M71.76,92.05c-.12-2.55.27-5.18-.96-7.54,0-.23.52-.17.74-.02.25.19,1.09,3.76,1.16,4.36.08.7-.11,4,.03,4.16.44.51.45-.87.95-.48.24.19,1.21,5.18,1.37,5.94.49,2.45.69,5.26,1.27,7.61.1.41-.24.7.48.58-.28-4.95-1.63-9.71-2.6-14.53-.1-.51-.43-.95-.5-1.42-.14-.93.06-2.02-.01-2.98.65-.74,1.96,3.26,2.04,3.59.28,1.07.81,6.14,1.43,6.47.27.14.46-.07.36-.36l-3.12-12.58c.77-.06,1.5.17,1.86.9.4.82,1.16,3.94,1.43,5.04s.96,6.41,1.63,6.76c.55.09.34-.18.3-.54-.22-2.17-1.32-4.67-1.75-6.88-.25-1.27-.51-2.92-.6-4.2-.03-.36-.03-.43.37-.36,1.26.21,1.35,3.44,1.68,4.55.66,2.26,1.69,4.38,2.17,6.7.1.46.24,2.79.35,2.89.05.05.52-.03.72,0-.84-4.31-2.35-8.53-2.88-12.94.8,0,1.12,1,1.38,1.61,1.5,3.59,1.73,7.78,3.3,11.32.42-2.6-1.6-4.8-1.32-7.43l.71.96-.95-4.44.47-.11,2.88,11.5c.39.01.5-.83.47-1.06-.1-1.01-1.14-3.1-1.38-4.39-.18-1.02-.05-2.15-.3-3.17.27.03.53-.14.74.14.39.53.21,3.09.46,3.93l.96-.48c2.23,8.65-3.64,15.56-11.38,18.45-11.1,4.14-28.09,2.78-37.3-5.15-1.12-.96-4.03-4.03-4.55-5.28-.32-.77,1.05.14,1.19-.23-.61-.36-1.32-2.88-1.44-3-.62-.59-.62,1.24-.95,1.2l-1.91-5.64c-.05-2.59-.22-5.07.88-7.49.16-.34-.14-.65.54-.52v3.59l.49-3.25c-.12-.86-.53-1.76.47-2.27v6.23c.35,0,.72-1.33.72-1.56v-4.91c0-.1-1.33.08.48-1.2.14.94-.25,1.82-.25,2.74,0,.24.15,1.49.49,1.57.06-.55-.11-1.23.05-1.75s.85-.53.92-.81c.16-.68-.07-1.99,0-2.83.06-.76.11-1.59.96-1.32-.54.75-.05,1.39-.02,2.06.02.54-.65,1.46.26,1.29v-3.95c0-.4,1.41-1.12,1.92-.84-.06,1.72.19,3.47-.24,5.15l.48,1.8c.04-.67-.06-1.36,0-2.03.1-1.03.62-5.88,1.08-6.35.21-.22.7-.38.84-.24.25.26-.65,3.09-.72,3.71-.06.51-.02,1.15,0,1.68.01.29-.18.89.24.83.05-1.01.59-2.04.7-3.02.16-1.4-.65-4.23,1.22-4.17l-.25,1.06.25,2.05c.1-.96-.29-3.32.96-3.59v5.39c0,.06.31,1.06.36,1.08h.36c.18-.4-.24-.91-.24-1.08v-5.51c0-.09.73-.8.96-.6-.43.86-.19,1.84-.25,2.76l.49,2.03v-4.43c0-1.2.96-1.1.96.24v4.91l.48-.84.45.28.75,9.07c.26,2.8,1.15,5.87,3.6,7.55-.6-.65-.52,1.32-.48,1.56.07.41.26.67.72.6.04-.35-.12-2.03-.24-2.16,1.06.73,4.55,1.58,4.91,2.4l1.08,6.47c.63.09.49-.11.49-.61-.01-.97-1.16-5.68-.73-6.11,3.28-.12,2.19,1.2,2.4,3.47.08.9.39,1.85.48,2.76.43-.1.47-.42.47-.8-.02-.73-.89-4.77-.71-4.95,1.87-.08,2.07-.26,2.37,1.58.37,2.31.29,4.52,1.23,6.8.44-.07.26-1.23.23-1.55-.08-1.05-.57-2.03-.7-2.89-.19-1.29.19-2.62-.49-3.94h1.68c-.46,1.09.38,9.23.72,9.58.19.2.51.1.48-.36-.07-1.1-.43-2.5-.48-3.6-.04-.78-.25-5.71,0-5.87.04-.03.65-.03.7,0l1.21,7.42v-7.55c0-.07-.33-.34-.24-.6h.96c.14,1.09.12,2.38.27,3.44.3,2.09.58,4.67,1,6.67.09.41.01,1.07.64.9.15-1.59-.52-3.15-.72-4.67-.11-.83.08-1.75-.03-2.61-.12-1.01-1.54-4.79,0-5.08.28-.05.4-.2.63.13.88,3.64.52,8.27,1.96,11.69.13.3.13.71.54.77.46-1.65-.98-3.38-1.18-4.69-.39-2.5-.18-5.35-.25-7.89-.02-.66-.68-1.65.24-2.04l2.16,12.7c.62.09.5-.1.48-.59-.05-1.12-.61-2.45-.71-3.6-.16-1.91-.16-4.07-.24-5.87.46,0,1.42-.28,1.43-.82.03-.92-1.03-4.23-1.31-5.43-.08-.33-.34-.59-.36-.7ZM31.71,89.89h-.48v3.59h.48v-3.59ZM80.63,103.79c-.13-1.62-.22-3.31-.48-4.91-.06-.36-.01-.74-.48-.84-.03,1.69,0,3.56.44,5.2.11.41-.17.67.51.55ZM74.88,108.1c-.3-2.24-.4-4.56-.75-6.79-.1-.63-.09-1.78-.68-2.07.14,2.62.21,5.79.92,8.31.12.4-.18.67.51.55ZM78.71,104.98l-.03-1.29-.93-4.22c-.11,1.74.17,3.45.48,5.15.07.39-.15.41.47.36ZM54.73,99.95h-.72c-.16.16-.02,4.01,1.2,3.83-.21-1.29-.66-2.49-.48-3.83Z"/>
  <path class="cls-3" d="M71.76,92.05c.11,2.31.13,4.64.24,6.95-1.01,0-.8-1.9-.98-2.69-.04-.2-.41-.17-.45-.35-.31-1.29.36-4,.23-5.7-.17-2.15-1.26-4.1-1.44-6.23,0-.21.49-.16.59-.11.84.35,1.5,6.88,1.81,8.14Z"/>
  <path class="cls-3" d="M203.17,43.17c5.04.97,9.9,1.67,15.11,1.44.12.13-.34,2.94.96,2.87l-.48-2.87c1.87-.07,3.75-.25,5.6-.52,3.34-.49,8.61-1.2,11.72-2.19,7.39-2.34,13.94-6.69,22.01-8.44,5.16-1.12,18.08-2.54,17.03,5.87-.8-.47-.39-1.85-.72-2.63-.4-.06-.26.58-.25.84.05.76.36,1.49.25,2.27-.51.29-.72-.99-.72-1.08v-3.47c-.56-.03-.42-.08-.48.36-.26,2.03.4,3.87.48,5.76.02.55.15,1.35-.48,1.55-.27-1.94-.15-3.93-.49-5.86-.08-.42.26-.72-.47-.6l.67,7.02c-.28.9-1.13,1.39-1.87,1.85v-3.71c0-.32-.49-1.22-.24-1.8-1.44,1.47.95,4.28-1.43,5.51.45-2.37-.27-4.78-.24-7.19h-.72c-.34.33.69,4.74.73,5.62.02.57.18,1.56-.49,1.81-.04-2.25-.47-4.47-1.2-6.59-.09-.27-.14-.87-.48-.83-.31,1.4.75,2.07.71,3.47-.01.65-.43,1.28-.46,1.69,0,.11.43,0,.49.45.11.86-.26,1.68-.26,2.53l.71-.72c.05.55-.06,1.08-.21,1.6-.11.41.17.67-.51.55v-1.2s-.48.24-.48.24c-.16-1.63-.56-3.28-.72-4.92s.27-3.1-.38-4.67c-.16-.38.03-.59-.59-.48-.21.84.41,1.6.47,2.3.09.98.15,1.91.23,2.86.07.78.31,3.43.2,4-.08.39-.92,1.96-1.27,2.09-.14-.52-.76-.69-.94-.98-.47-.72-.6-5.21-.97-6.69-.11-.45-.15-1.62-.84-1.43.34,1.87.69,3.75.96,5.63.17,1.16.3,1.47.48,2.2.24,1.02.12,3.42-1.19,3.67l.71-3.35-1.44.48v-4.67c0-.26-.97-4.19-1.13-4.62-.12-.3-.14-.7-.54-.77.33,4.09,2.15,8.55.99,12.62-.12.4.18.67-.51.55.79-1.88.05-3.78-.21-5.66-.09-.67,0-1.35-.1-2.07-.05-.38-.05-1.08-.65-.9-.41,1.22,1.42,7.1.65,7.62-.16.11-.55,0-.62.06-.34.36.75,2.45-1.71,1.9-.49-1.37,1.28-1.68,1.41-2.06s-.05-.97.03-1.4c.03-.16.91-1.47.12-1.08s-.57,2.29-1.32,2.63c-.15-.35.24-.7.24-.84v-4.07l-1.2-3.47c-.41,1.27.61,2.47.64,3.51.01.52-.31.99-.32,1.44,0,1.08.82,3.21-.8,3.44l-.72-3.11c-.05,1.97.9,5.45-1.92,5.75-.01-.91.71-1.6.73-2.52.01-.57-.2-1.46-.26-2.14-.03-.37.25-.95-.35-.84-.69.76.12,1.55-.23,2.65-.14.44-.79,1.23-1.33,1.18v-3.59c-.6-.04-.41-.06-.47.36s-.21,1.35-.2,1.68c.02.66.49,1.82.38,2.34-.08.36-1.11,2.15-1.63,1.49.32-1.37,1.07-2.78.48-4.19l-.76,3.91c-1.69,1.52-.48-1.6.04-2.35-1.6-1.31-.34,1.06-1.67,1.08-.05-.91.07-1.84,0-2.75-.03-.32-.12-1.45-.47-1.56l-.26,5.98-4.06.25v-4.67c0-.2-.47-1.26-.96-1.08.08,1.63,1.7,5.9-.96,5.75-.58-2.95-.84-5.99-1.52-8.91-.1-.42,0-1.07-.64-.91.29,3.22,1.61,6.27,1.2,9.58h-2.16c-.03-1.44.17-2.94-.36-4.32-.53-.21-.38.63-.37.85.07,1.13.43,2.27.25,3.47h-1.68c.04-2.73-.53-5.85-1.56-8.38-.16-.4-.46-1.25-.83-1.44l1.68,6.35v3.47c-.45.03-2.13-.03-2.35-.29-.16-.18-.65-4.03-.84-4.8-.32-1.35-.9-2.65-1.13-4.02-.44-.04-.24.78-.21,1.05.12,1.11,1.95,7.51,1.65,7.82-3.2.25-2.1-.34-2.42-2.49s-1.31-4.22-1.42-6.38l-.49.36,1.69,8.26-4.32-.24c.11-2.56-.98-4.95-1.44-7.43-.58-.09-.54.08-.46.58.15,1.01,1.91,6.32,1.42,6.85l-5.53-.58-.94-3.73v3.59l-11.03-1.68v-3.83h-.24v3.83c-.56.03-.42.08-.48-.36-.2-1.57.23-3.76-.6-5.15-.73-.06-.12.26-.12.36v4.31s.44.52-.12.6c-.14.02-2.33-.6-2.41-.7-.39-.55.17-4.03-.59-5.04-.41-.05-.26.83-.25,1.09.04.62.68,3.73.49,3.94-.36-.06-2.29-.41-2.37-.5-.17-.2-.07-4.46-.51-5.25-1.21.69.68,4.26,0,5.03-.84-.24-6.48-1.88-6.68-2.19-.25-.39.11-3.63-.87-4.28l.36,4.07c-.1.1-1.98,0-2.26-.21s-.63-4.81-.86-5.54c-.42,0-.26,1.05-.25,1.33.04.6.7,3.5.49,3.71-.03.02-.68.02-.71,0-.33-.26-.14-3.91-.55-4.85-.35-.81-1.06-.58-1.14-.66-.13-.14.16-.67.38-.71.25-.05,3.87,1.75,4.67,2.02,1.45.49,2.87.71,4.31,1.09,1.91.5,3.34.82,5.28,1.2ZM262.4,38.61c.13-.16-.9-3.49-1.68-3.59-.01,1.09.54,2.21,1.08,3.12.08.13.22.92.6.47ZM265.04,47c-.17-2.9-.23-6.04-.83-8.88-.09-.41-.13-1.05-.61-1.19.68,3,.21,6.56.95,9.48.1.4-.24.7.48.58ZM254.97,41.25l-.23-1.09-1.2-2.75c0,.98.31,2.34.73,3.22.17.35.16.71.71.61ZM272.23,43.89v-5.15c0-.15-.22-1.06-.72-.84-.6,1.17.16,2.12.24,3.24.06.87-.66,2.74.48,2.75ZM259.04,40.05c0-.62-.06-1.61-.71-1.92-.04.68-.01,1.58.71,1.92ZM251.83,38.64c-.14-.09-.48,0-.69-.02.85,2.25,1.33,4.75,2.22,7.01.1.25.07.71.41.66.02-.96-1.61-7.43-1.94-7.64ZM248.25,46.28c-.3-1.86-.75-3.72-1.32-5.51-.18-.56-.35-1.58-.84-1.92.1,1.69.56,3.64,1.08,5.27.22.71.4,1.78,1.08,2.16ZM251.13,47c-.74-2.53-.71-5.81-2.39-7.91.5,2.46,1.16,4.94,1.89,7.35.12.39-.19.68.51.56ZM192.38,41.01h-.72c-.15.14.33,3.93.48,4.07.27.26.49.02.48-.36-.01-1.13-.48-2.48-.25-3.71ZM238.18,47.48c-.02-1.33-.05-3.18-1.19-4.07.11.88.35,1.78.6,2.63.11.38.24,1.3.6,1.44ZM246.33,49.64c-.09-1.44,0-3.53-1.19-4.55.19,1.29.52,2.57.84,3.83.07.27-.01.78.35.72Z"/>
  <path class="cls-2" d="M211.8,103.79c.64.03,1.19-.26,1.54-.24.16,0,.02.44.48.51.77.1,1.47-.28,1.92-.27.16,0,.03.46.48.51,1.93.21,4.36.09,6.37.22,1.85.11,3.96.42,5.87.49,2.82.1,6.49-.36,9.14-.02.51.07,1.02.53,1.06.49.03-.02.02-.46.23-.6s4.68-.44,5.19-.38.28.61.46.5c.61-1.36,2.17-.8,3.33-.99,1.62-.26,3.25-.7,4.82-1.17.48.09-1.25,2.34-.24,1.92.76-.31.97-1.97,1.13-2.11.11-.1,2.33-.48,2.83-.64,2.8-.89,5.37-2.28,7.91-3.71.38.48-1.43,2.07-1.8,2.39-9.87,8.3-35.78,7.38-48.19,6.23-13.84-1.27-28.76-4.17-42.09-8.03-33.55-9.7-61.67-33.28-98.44-30.55-16.16,1.2-51.65,7.82-42.99,31.45l1.74,4.25c-9.09-9.22-3.79-21.06,5.56-27.51,14.77-10.19,39.41-11.98,56.75-9.59,24.43,3.37,45.26,17.72,68.13,25.85,13.92,4.94,34.11,10.37,48.8,11.02Z"/>
  <path class="cls-2" d="M219.96,56.11s.1-.41-.16-.48c-4.02-1.13-9.17-1.46-13.51-2.51-15.12-3.69-29.14-10.77-43.58-16.35-37.26-14.42-76.65-25.07-116.01-11.33-8.65,3.02-17.34,7.06-24.57,12.7-.16-.17,1-1.56,1.2-1.79,1.92-2.2,6.31-4.67,8.94-6.16,29.63-16.7,67.8-14.75,99.73-6.12,27.2,7.36,51.79,22.3,79.76,27.41,16.19,2.96,41.27,5.77,56.24-1.87,4.22-2.16,7.75-5.78,8.07-10.75h.72v4.19c0,1.95-5.28,6.59-6.97,7.65-13.79,8.62-33.33,6-48.78,5.15-.42-.02-1.03.3-1.08.26Z"/>
  <path class="cls-3" d="M71.76,69.76h1.44s.24,4.55.24,4.55l.48-4.79c.82-.26,1.2.3,1.2,1.08v4.55c0,.07.25,1.33.48,1.32.1-2.26.06-4.45,0-6.71.93.56.3,2.09.48,2.99l.48,1.8v-5.03c2.35.1.51,4.67,1.92,5.99v-5.27l.9,2.58c.17,1.48.28,2.97.78,4.37.47-.26.67-1.53.71-2.04.09-1.2-.34-2.44-.25-3.35.03-.34.17-.7.49-.36l3.84,14.62c-7.12-5.68-16.94-6.73-25.65-4.79l-.72-7.06.96-.13v3.59c.55.03.43.09.49-.36.1-.82-.27-1.58-.27-2.39.01-2.03.67-1.03,1.54-1.15.35-.05.94-.69,1.6-.41.26.25-.73,2.33.24,2.63v-4.79c1.22.3,1.98-.6,3.12-.48.13.75-.28,3.11.24,3.48.13.24.48-.21.48-.24v-3.47l2.16-.13.72,2.04v-2.4s1.44,0,1.44,0c.04.83-.07,1.68,0,2.51.03.33.11,1.45.48,1.56v-4.31Z"/>
  <path class="cls-3" d="M192.62,34.3c.02-.35-.03-.6.12-.96.32-.81.36.59.61.12-.46-1.16-.53-2.52-.9-3.67-.13-.4.1-.63-.54-.52l.24,3.11-1.2-1.55c-.07,1.16.57,2.27.7,3.38.11.9.33,2.73-.82,1.78l-1.56-8.39c3.77-1.29,6.95-1.59,10.91-1.2,6.49.64,13.06,2.23,19.56,2.98.36.25.58,2.41.48,2.88-.06.29-.7-.03-.75.26-.11.58.16,3.56.02,3.7-1.51.16-.98-.46-1.2-1.27-.06-.23-.42-.15-.45-.19-.38-.53.52-.44.66-.84.18-.54-.05-1.41.03-2.01-1.07-.23,0,1.66-.72,1.91.03-1.12.04-2.16-.24-3.25-.1-.4.24-.7-.48-.58l.48,6.47c-2.64.34-1.44-2.82-1.42-4.43.01-.89-.27-1.65-.26-2.51l-.48,1.8v5.15h-1.44c-.14-.34.24-.72.24-.84v-6.35c-.42-.05-.23.54-.24.84-.03.68.02,1.36,0,2.04l-.72-.24.24,4.79h-1.44s.24-4.43.24-4.43l-.96-3.48v7.79c0,.3-1.06.49-1.2.36-.17-.17.25-1.65.26-2.04.04-1.39-.1-4.16-.25-5.52-.04-.36-.05-.74-.49-.83l.23,7.43-.71-.96c-.09,1.39.57,2.34-1.2,2.39v-4.91s-.96-3.96-.96-3.96l.49,8.95-1.69.64c.12-2.8.59-6.46.22-9.21-.03-.21-.54-1.81-.94-1.33-.11.13.65,2.62.71,3.24.05.52.03,1.14,0,1.68-.01.29.18.89-.24.83-.28-1.72-.62-3.53-1.18-5.19-.13-.37.21-.69-.5-.56.69,3.33,1.87,6.98,1.46,10.43-.06.5-.93.73-1.46.83.31-3.55-.38-6.74-.97-10.18-.07-.43.26-.71-.47-.6.29,1.86.83,3.74.96,5.63.09,1.29.21,4.62,0,5.75-.19,1-1.68.46-1.68.36v-7.31c0-.51-.44-2.36-.6-3-.08-.35-.26-1.32-.6-1.44.73,3.87.8,7.8.72,11.74-.26-.07-1.15-.16-1.21-.39-.27-.96.1-3.93.01-5.24-.11-1.71-.46-3.46-.72-5.15-.42.07-.27,1.25-.25,1.57.18,2.9,1,5.8.73,8.73l-.97-.4c-.21-3.11-.01-6.54-1.31-9.42l.84,9.1c-1.53.17-1.01-3.22-1.22-4.41-.25-1.47-1.27-2.82-.94-4.45-.21.05-.52.31-.73.14-.28-.22-.1-1.14-.47-.74l.96,8.98c-.38-.12-.64-.46-.71-.84-.27-1.41-.03-3.77-.24-5.27-.12-.86-.72-1.54-.49-2.51-.69-.14-.5.32-.47.83.06,1.27,1.47,6.61.95,7.31-.26-.21-1.15-.39-1.21-.64-.18-.78.11-2.27-.23-3.19-.4-.06-.26.58-.25.84.03.59.75,2.43-.23,2.27-.04-.79-.01-2.12-.48-2.64l-.24,2.15-.24-2.87.48.72ZM195.01,28.79c.12-1-.35-1-.23,0h.23Z"/>
  <path class="cls-2" d="M86.38,91.09c-1.1-1.37-1.97-2.59-3.35-3.72-6.93-5.66-19.11-6.14-27.09-2.62-2.8,1.23-5.89,3.35-6.96,6.34-.79-.26-.26-1.71-.05-2.33,2.27-6.53,15.17-8.15,21.04-7.75s16.18,3.16,16.41,10.07Z"/>
  <path class="cls-3" d="M57.16,73.8c.12.19.85.09.94.43l.47,7.03c-.41-.22-.75-1.24-.85-1.66-.29-1.23-.2-2.53-.34-3.74-.04-.36-.05-.74-.49-.83-.26,2.3.43,4.46.61,6.71l-7.33,3.35c-.45-.9.5-1.56.51-1.79.04-1.2-.65-2.91-.51-4.2-1.13-.14.04,2.21-.72,2.63l-.72-7.19c.29-.38.44,0,.48.35.1.87.01,1.86.24,2.76l.47-.6c.77-.66.13,3.63,1.2,3.72l-.72-6.71c.83-.21.76.15.96.32.75.61.31-.44.5-.77.13-.21,1.79-.38,1.89-.27.38.93-.45,1.19-.5,1.54-.08.57.05,1.31.05,1.9l.45,1.83c.16-1.43,0-3.56.24-4.91.07-.41.26-.67.72-.6.64,1.31-.25,2.15-.26,3.23,0,1.57.78,3.52.74,5.15.42,0,.26-1.05.25-1.33-.05-1-.39-1.96-.25-2.98,1.21.96.92,2.93.96,4.31h.72s-.73-7.32-.73-7.32c-.04-.34.28-1.78.61-1.79.58.31.22,1.12.39,1.4Z"/>
  <path class="cls-2" d="M236.98,26.64c.41.38-.3.51-.47.6-10.38,5.62-30.3-2.36-42.54-1.29-2.31.2-4.45,1.1-6.63,1.76-.03-.41.38-.58.64-.8,6.2-5.05,19.54-.66,26.86.4,6.59.95,13.22,1.19,19.79-.03.46-.09,2.26-.73,2.35-.65Z"/>
  <path class="cls-1" d="M16.61,49.4c.26-1.77.21-3.12,1.2-4.79.43-.05.23.54.21.81-.05.63-.66,1.53.51,1.59.23-.87.17-4.86.72-5.27,1.21-.9.28,3.98.17,4.37-.7,2.66-.52,4.42-.66,7.25-.04.76-.43,1.94-.44,2.65,0,.09.87.56.91.76.2.99-.5,2.17-.49,3.07,0,.42.48.47.5.59.11.54-.69,2.35-.48,3.11.7-.57.58-2.18.72-3.11.04-.27-.19-.78.24-.72.3,2.11-.36,4-.48,5.99l-.96.72.24-2.88c-1.37.3-.47,1.36-.48,2.28,0,.58-.28,1.09-.24,1.8.08,1.39,1.84,4.06-.24,4.79-.21-2.04-.51-4.07-.72-6.11-.09-.93.13-2.01.02-2.89-.06-.46-.46-.23-.52-.69-.1-.72-.06-3.42.98-3.49.03.99-.04,2,0,2.99.01.33-.17.98.24,1.08l.24-.12v-.36c.03-.11.25-1.46.25-1.54,0-.14-.43-.11-.48-.3-.28-1.1.42-2.6.25-3.81-.06-.44-.45-.31-.49-.51-.24-1,.4-2.1.47-3.07.13-1.67-.09-3.47,0-5.15-.38-.02-.41.68-.48.96h-.72Z"/>
  <path class="cls-3" d="M223.55,31.55c-.02-.13-.28-.92-.6-.36l-.35,1.92-.72-3.59c2.13.06,4.22.24,6.36.24,1.39,0,.59-.14.99-.24.51-.12,1.21.07,1.76,0v4.19c0,.26-.37.8-.72.6v-4.07l-.53,3.9c-.03.42-.95.86-1.15.65-.1-.1-.17-2.47-.24-2.87l-.47,1.2c-.03-.75.03-1.52,0-2.28-.01-.29.18-.89-.24-.84v5.27c-.28.1-.96-.11-.96-.36v-4.43h-.48c-.14.33.24.72.24.84v4.19c-.6.04-.41.06-.47-.36-.25-1.69-.36-3.44-.49-5.15-.42-.06-.23.54-.24.84-.07,1.67.15,3.26.24,4.92h-.96c-.09-.26.24-.53.24-.6v-3.83s-.32-.38-.48-.36c-.27,1.67,1.05,3.89-.72,5.03-.12-1.41.17-3.06,0-4.43ZM228.83,30.23v3.47s.24.7.48.6c.34-1.19.27-2.22-.07-3.4-.07-.25-.05-.72-.41-.67Z"/>
  <path class="cls-3" d="M63.84,84.62c.2.16,1.03,4.37,1.2,5.03-.96.17-.68-.25-.93-.86-.55-1.34-.45.57-.51.62-.1.1-2.16.17-2.69.3-.97.24-1.8.87-2.82.89.33-1.14-.67-4.23-.13-5.04.25-.38,3-.96,3.24-.71.02.77.14,1.66.37,2.39.07.23.04.55.35.48l.25-1.2.71.96-.48-2.63c.68-.13.39.17.54.53.23.55.35,1.54.9,1.87l-.72-2.51c0-.21.68-.15.72-.12ZM64.08,87.97c.17-.34-.15-.64-.23-.48-.17.34.15.64.23.48Z"/>
  <path class="cls-3" d="M273.67,48.92c.82-.8,1.73-2.55,2.57-3.53.15-.17,0-.45.55-.3.01,1.35,0,2.72,0,4.07l-.96.72c-.08-.54-.34-1.08-.24-1.68-.5.1-.5,1.16-.5,1.55.01,2.33.18,5.86.51,8.14.06.4.48.67.49,1.2.02.92-1,1.79-1.7,2.28.54-2.93.52-5.89.47-8.86-.92.71-.67,1.79-.46,2.75l-.5,5.87-.49-2.98c-.27-.75.54-3.82.25-4.2-.22-.28-.67.3-.72.48-.37-1.49-.22-3.03-.24-4.55.98.44.02,2.16.95,2.63.27-1.06.51-2.56,0-3.59Z"/>
  <path class="cls-2" d="M220.44,36.94c.47,1.68-1.44,1.6-2.75,1.69-3.36.23-6.28-.35-9.67.64-1.61.47-2.72,1.76-4.37,1.26.75-1.84,3.41-2.48,5.22-2.81,3.81-.7,7.72-.42,11.57-.78Z"/>
  <path class="cls-3" d="M56.41,94.92c-.02.24.01.48,0,.72-1.46-.17-.89-2.5-1.2-3.59l-.71,2.39-.73-2.39c-.57-.05.13,1.5-.59,1.19-.61-.26-2.15-2.33-2.24-3.06-.13-1.02,1.03-2.19,1.52-.77.16-.01.08-1.31.6-.72.11.13-.23.8.24.72.17-.52-.44-2.1.48-1.91.09,1.24-.16,2.91.16,4.09.11.43,0,.54.56.46.05-1.16-.84-4.44-.24-5.15.06-.07.69-.39.72-.36.05.75-.06,1.52,0,2.27.03.33.11,1.45.48,1.56v-3.59l.48.36.23,7.65c0,.19.24.13.25.14.08-1.14-.09-2.32,0-3.47.02-.32.12-1.45.47-1.56l.72,6.95c-1.15.3-.73-.99-.96-1.76-.07-.23-.23-.14-.24-.15Z"/>
  <path class="cls-3" d="M63.61,92.05c.62-.1.43.09.55.52.23.85.25,3.67.74,4.06.6.47,1.58-.21,1.34.81.2.38.37-.23.38-.35.12-1.29-.5-3-.62-4.31,1.85.05,2.79,2.22,2.29,3.85-.34,1.09-3.79,2.94-4.68,2.51-1.13-.53-1.01-5.34-1.2-6.6,1.2,1.21.67,3.87.97,5.62.05.28.14.57.47.61.21-.45-.24-1.1-.24-1.32v-5.39Z"/>
  <path class="cls-1" d="M19.48,72.88l.48.36-.24-8.38c0-.28.33.02.36.12.44,1.11-.22,2.88.37,4.13.87,1.85,2.04,6.59,2.14,8.81.01.25-.24.58-.24.72-.07.28-.51.3-.72.24-.13-.91-.23-1.83-.72-2.64,0-.08,0-.16,0-.24-.01-.56.01-1.12,0-1.68-.94.32-.58,1.1-.72,1.68-.02.09-.21.25-.24.48-1.14.14-1.03-.8-.96-1.68.03-.36.45-1.56.48-1.92Z"/>
  <path class="cls-1" d="M20.92,77.67c.03.14.56,1.15.72,1.2.08.57.19,1.1.24,1.68,0,.04-.26.29-.24.72-.69.14-.44-.34-.55-.76-.25-.94-.53-1.87-.65-2.83.08-.04.34.03.48,0Z"/>
  <path class="cls-1" d="M272.95,62.34c-.25,1.45-.79,3.18-.97,4.67-.09.78-.1.95.73.84-.77,4.03-1.48,8.14-2.88,11.98-.64.16-.93-.14-.88-.8.08-.95,1.24-2.62,1.54-3.94.76-3.34,1.36-8.21,1.74-11.68.16-1.42-.55-3.34.96-4.19.06,1.04-.06,2.09-.24,3.11Z"/>
  <path class="cls-3" d="M65.28,84.62v2.87s.48-.48.48-.48l.24.72c.11-.96-.53-1.93-.12-2.87.56,1.03.76,2.44.84,3.59.41.06.25-.57.23-.83-.07-.86-.98-2.52.24-2.52l.24,1.67.24-1.2c.77.31.5,1.62.76,2.24.18.43,1.02.35.65.86-.02.03-.43-.03-.47.17-.11.52.48,1.58.25,2.25-.81-.72-2.75-.73-2.64-1.92l-.71.48c.1-1.39-1.96-4.5-.24-5.03Z"/>
  <path class="cls-1" d="M23.56,77.91c-.28-.85-.09-1.54,0-2.39l-.47.48c-.36-1.66-1.14-3.06-.72-4.79.51-.07.39-.02.54.3.46,1.01.67,2.66.66,3.77l.71-.24c.27.19.34,3.27.53,3.9.1.34.54.57.68.99.42,1.23.55,2.43.46,3.73l-.71-.96c.03.7-.23,2.8.48,3.11.24.54-.45.89-.48.96h-.24c0-.2-.28-.57-.48-.72-.24-.8-.36-1.81-.24-2.64.02-.13.18-.33.24-.48.21-.52.73-.8.72-1.04-.07-1.02-.76-2.99-1.44-3.75-.07-.08-.1-.2-.24-.24Z"/>
  <path class="cls-3" d="M270.55,83.18c-.21.58-.53,1-.72,1.68-1.16.17.36-1.72-.48-1.92-.4,1.12-.84,2.21-1.2,3.35.28-.06.36-.12.48.17.23.59.55,2.65.45,3.25-.08.47-1.55,3.24-1.91,3.62-.94.97-1.11.28-.74-.74.49-1.36,2.11-2.47,1.73-4.14l-.72.12c.31-.74.48-1.52.72-2.27-.13.03-.72,1.1-.68-.07.05-1.37,2.32-3.4,1.76-4.96-1.46,2.3-2.21,5.83-3.75,7.99-.33.46-.53.71-1.16.64.25-.8.68-1.83.72-2.64l.48.24c.06-.05.38-1.2.48-1.44.37-.82.87-1.58.96-2.51.05-.12.12-.13.24-.12.04,0,.12.2.22.23.44-.44.68-2.5.77-2.6.14-.17,2-.13,1.89-1.23.38-.06.26.34.24.59-.07.82-.74,2.21.24,2.76Z"/>
  <path class="cls-2" d="M70.08,94.92c-.35.46-1.2-1.49-1.33-1.66-1.72-2.18-4.46-2.44-7.01-1.76-1.02.27-2.12,1.1-2.82,1.26-1.13.25-.43-1.03,0-1.43,2.25-2.09,10.03-1.19,10.99,2.2.09.3.29,1.22.16,1.39Z"/>
  <path class="cls-3" d="M60.01,93.48c.38,1.97.21,3.99.24,5.99-.3.4-.44-.02-.48-.35-.2-1.55.11-3.31-.48-4.91-.43-.05-.23.54-.21.81.09,1.06.4,2.19.45,3.26l-.47-.48c-.05.26.07,1.13,0,1.2-.32.33-4.59-.43-4.93-.95-.1-.15-.33-1.78-.41-2.22-.06-.32-.45-.47.18-.42.64.34,1.46,2.77,1.93,2.87s.7-1.17,1.54.24c.39-1.27.35-.44.96,0l-.71-4.55c1.04.77.46,2.81,1.43,3.59.19-1.67-1.67-3.89.96-4.07Z"/>
  <path class="cls-3" d="M266.78,89.59c.03.06.39.05.43.21.2.93-1.48,3.13-1.93,4.04l.72.47c-1.65,1.73-2.39,4.05-5.03,4.67.54-1.83,2.66-2.11,3.42-3.9.35-.83-.14-1.2-.03-1.68.06-.26.95-1.17,1.16-1.73.26-.7-.61.23-.48-.47.26-1.36,1.24-2.4,2.04-3.47.09.49-.54,1.43-.3,1.86Z"/>
  <path class="cls-3" d="M23.56,77.91c.14.04.17.16.24.24-.37.31-.1,1.67.02,2.02.18.56.63.77.71,1.22.1.56-.28,1.14,0,1.55-.06.15-.22.35-.24.48-1.4.38-.41-2.02-.72-2.4h-.96c.1.61,1.21,3.82.96,4.07-.81.79-.84-1.85-1.44-1.19-.07.08,1,2.33.12,1.91-.52-.44-.77-1.36-.6-1.99.05-.18.47-.15.48-.3.03-.47-.45-1.66-.48-2.26-.02-.43.24-.68.24-.72l.71.12c-.49-.53-.06-1.13-.03-1.68,0-.18-.2-.32-.2-.36,0-.13.25-.47.24-.72.29.05.7-.07.96,0Z"/>
  <path class="cls-3" d="M276.07,60.9c.05,3.32-1.49,6.4-1.97,9.65l-.66.41c-.23-1.96.42-3.78.69-5.66s-.45-3.56,1.95-4.4Z"/>
  <path class="cls-3" d="M41.06,73.6l-3.12-15.09c.63-.12.42.12.59.48,1.54,3.3,1.3,6.04,1.87,9.4.23,1.37.79,2.79,1.11,4.18.1.43-.23.94.51.8-.47.25-.9.2-.96.24Z"/>
  <path class="cls-3" d="M25.72,85.82c.13.06.6-.09.7.01.16.18-.07,1.93.02,2.38.29.09.56-.22.72-.24s.32,0,.48,0c-.17.2,0,.4,0,.48,0,.65-.2.88-.24,1.2-.16-.41-.72-.16-.96-.24-.22-.07-.42-.32-.6-.48-.23,1.27.85,2.5.84,3.83-.52-.1-.54-1.5-.72-1.68-.17-.17-.52-.12-.47.35.04.38.94,2.77,1.19,2.53l.48-.72c-.06.83.72,1.96-.24,2.4-.22-.73-.6-1.6-1-2.24-.28-.46-.75-.51-.92-.82-.12-.21-.5-1.61-.51-1.86,0-.43.46-.31.5-.51.17-.77.44-1.46.49-1.68.13-.57-.36-1.42-.24-1.75.03-.07.72-.41.48-.96Z"/>
  <path class="cls-3" d="M48.26,75.27c.28,1.34-.84,1.69-.48,3.11l.48-1.44c.36-.01.41.84.45,1.11.44,3.04.21,6.13.27,9.19-.31.06-.38-.44-.42-.66-.38-2.35-.18-5.39-.55-7.36-.11-.58-.61-.84-.72-1.68-.04-.32-.08-2.2,0-2.28.06-.06.72.04.96,0Z"/>
  <path class="cls-3" d="M17.32,49.4c-.64,2.75.16,5.87-.25,8.49-.07.42-.26.95-.7,1.09-.5-1.29.2-2.58.02-3.97-.06-.45-.45-.31-.5-.51-.27-1.14.66-2.17.72-3.1.03-.45-.48-.3-.5-.47-.06-.45.42-1,.5-1.54h.72Z"/>
  <path class="cls-3" d="M39.15,74.8c-.23.15-.49.32-.72.48-.46-4.67-2.4-9.21-2.4-13.9l3.11,13.42Z"/>
  <path class="cls-3" d="M221.63,29.27c-.26,1.7.54,3.33.69,4.94.12,1.22.37,2.07-1.17,2.01.6-1.8-.94-5.15-.74-6.57.03-.2.97-.31,1.22-.38Z"/>
  <path class="cls-3" d="M260.72,55.39c.2,1.26-1.45,10.12-2.04,10.31-.13.04-.61.07-.6-.13.54-3.23,2.52-6.63,1.68-9.94.33-.09.73-.17.96-.24Z"/>
  <path class="cls-1" d="M19.72,81.74c.09.18.53.27.67.89.2.89.17,2.23.29,3.18.38.08.34-.7.6-.71.61-.03.76,2.62.84,3.11-.59.39-.69.26-1.01-.31-.69-1.22-1.97-4.13-1.63-5.44.04-.15.35-.4.24-.72Z"/>
  <path class="cls-1" d="M276.79,49.16c.02,2.57.13,5.15-.48,7.67-.42.06-.23-.54-.24-.83-.08-2.06.06-4.06-.24-6.11l.96-.72Z"/>
  <path class="cls-3" d="M272.95,62.34c.71-.13.47.37.48.83.02,1.7-.41,3.05-.72,4.68-.83.11-.82-.06-.73-.84.18-1.5.72-3.22.97-4.67Z"/>
  <path class="cls-3" d="M44.42,71.92c-.17.08-.42.33-.72.48l-1.68-7.43,1.07,2.16,1.32,4.79Z"/>
  <path class="cls-2" d="M230.99,35.02c.14.61-.16.42-.45.62-1.27.89-3.78,1.56-5.3,1.29-.39-.47,5.26-1.9,5.75-1.91Z"/>
  <path class="cls-3" d="M188.78,28.08c.29.23,1.18,6.32,1.68,7.18-.12.1-.92-.18-.97-.4-.17-.72-.07-1.8-.3-2.76-.31-1.3-.84-2.59-1.12-3.91,0-.21.68-.14.71-.11Z"/>
  <path class="cls-3" d="M22.12,88.21c.19-.12.22-.54.36-.48,1.07,1.27,1.18,3.01,1.56,4.55-1.79-.6-1.68-2.61-1.92-4.07Z"/>
  <path class="cls-3" d="M19.48,70.48c0,.78.06,1.63,0,2.4-.03.36-.45,1.55-.48,1.92-.23-.1-.93-.11-.98-.39-.1-.63.74-2.78.74-3.92h.72Z"/>
  <path class="cls-3" d="M20.92,75.99c0,.08,0,.16,0,.24.03.45-.08,1.05,0,1.44-.14.03-.4-.04-.48,0-.8.43.62,3.67.73,4.43.03.23.15.91-.24.84-.79-2.17-1.28-4.15-.96-6.47.03-.23.22-.39.24-.48h.72Z"/>
  <path class="cls-3" d="M35.07,31.91c-.3,1.69-.55,3.37-.96,5.03-.19-.03-.66.05-.72,0-.28-.26,1.27-4.48,1.2-5.27.11,0,.33.2.48.24Z"/>
  <path class="cls-1" d="M271.75,79.83c-.13.37-.46,2.12-.65,2.83-.43,1.63-.27,3.68-1.75,4.84.14-.89.23-1.77.48-2.64.19-.68.51-1.1.72-1.68.47-1.3.41-2.09.72-3.35h.48Z"/>
  <path class="cls-3" d="M73.4,84.41c.24.17.7,2.9.51,3.08-.24-.04-.88.06-.95,0-.1-.1-.43-2.39-.47-2.77-.06-.55.72-.44.91-.31Z"/>
  <path class="cls-3" d="M271.27,79.83c.27-1.12,1.01-1.72.96-2.88l-.48.12.6-1.56c.48,1.18.61,2.69,0,3.84-.14.25-.58.44-.59.48h-.48Z"/>
  <path class="cls-3" d="M19.72,81.74c.12.32-.2.57-.24.72-1.12-.19-1.65-3.59-.84-3.59.42,0,.74,2.22,1.08,2.87Z"/>
  <path class="cls-3" d="M232.43,29.63c.04-.27.3-.77.72-.6-.48,1.27.85,4.12-.72,4.55.13-1.23-.18-2.77,0-3.95Z"/>
  <path class="cls-1" d="M19.24,66.65c.03,1.31.23,2.5.24,3.83h-.72c0-1.07-.33-1.99-.24-3.11.06-.72-.24-.8.72-.72Z"/>
  <path class="cls-3" d="M257.12,56.35c.1,1.67-.08,3.24-.72,4.79-.42,0-.27-1.05-.25-1.32.07-.98.94-2.65,0-3.23.2-.03.61-.17.96-.24Z"/>
  <path class="cls-3" d="M26.68,35.98c.1,1.68-.66,3.12-.96,4.79h-.48c.07-.35-.04-.81.06-1.25.24-1.12,1.03-2.11.9-3.3.18-.12.37-.17.48-.24Z"/>
  <path class="cls-3" d="M269.11,70.72h-.72c.23-.77.81-2.49.96-3.11l.72-.24c-.18.88-1,2.6-.96,3.35Z"/>
  <path class="cls-3" d="M82.04,87.77c.35.22.85,2.97.99,3.56-.54.57-1.26-1.92-1.32-2.15-.17-.64-.64-2,.33-1.4Z"/>
  <path class="cls-3" d="M252.81,99c-.51,1.07-.81,2.24-1.2,3.35-.23.06-.44.19-.72.24-.26-1.52,1.16-2.62,1.68-3.83l.24.24Z"/>
  <path class="cls-3" d="M17.8,67.61c-.04-.71.23-1.22.24-1.8,0-.92-.89-1.98.48-2.28l-.24,2.88.96-.72c-.02.31,0,.64,0,.96-.96-.08-.66,0-.72.72l-.72.24Z"/>
  <path class="cls-3" d="M24.52,89.65c-.57.67-1.85-3.25-1.91-3.59.74.23,2.33,3.1,1.91,3.59Z"/>
  <path class="cls-3" d="M16.6,70c-1.16-.04-.87-2.72-.36-3.35.65,1.03.39,2.22.36,3.35Z"/>
  <path class="cls-3" d="M62.65,71.2v1.68s-1.44,0-1.44,0c-.25-1.14.33-1.6,1.44-1.68Z"/>
  <path class="cls-3" d="M272.71,75.75c0-1.07-.02-2.67.95-3.35,0,1.13.24,2.68-.95,3.35Z"/>
  <path class="cls-3" d="M16.12,62.58c-.21.97.6,3.21-.72,3.35-.03-.97-.05-1.86.21-2.8.11-.41-.17-.67.51-.55Z"/>
  <path class="cls-3" d="M79.91,69.52l.24,3.83c-.55-.29-.68-1.7-.71-2.28-.03-.47-.29-1.79.48-1.56Z"/>
  <rect class="cls-3" x="231.47" y="29.51" width=".48" height="4.07"/>
  <path class="cls-3" d="M59.29,71.92c.07.07-.05,1.14,0,1.44-2.99.51-.7-2.13,0-1.44Z"/>
  <path class="cls-3" d="M15.89,57.31v3.59c-1.02-.52-.6-2.24-.48-3.24.05-.44-.09-.39.48-.36Z"/>
  <path class="cls-3" d="M26.44,95.88c-.73.16-.57-.72-.79-.9-.13-.11-.5,0-.6-.09-.13-.13-.08-.79-.21-1.11-.15-.38-.62-.14-.56-.52l.96-.24c-.33,1.53,1.44,1.52,1.2,2.87Z"/>
  <path class="cls-3" d="M52.57,94.2c-.22.47.64,3.11-.12,3.11-.35,0-.35-.8-.37-1.06-.03-.46-.27-2.31.49-2.05Z"/>
  <path class="cls-3" d="M234.34,104.51c.18-.37.95-2.59,1.08-2.64.09-.04.6-.08.6.13.06.81-.98,1.69-1.2,2.51-.16,0-.32,0-.48,0Z"/>
  <path class="cls-3" d="M29.55,34.3c.09,1.17-.72,2.32-.93,3.26-1.09,4.95-.78,10.5-2.18,15.43-.06-.38-.55-1.75-.96-1.92.17-2.03,1.14-3.56,1.38-5.21.21-1.45-.19-2.86.55-4.25-1.61-.11.14-1.42.36-2.27.16-.63,0-1.32.15-1.78.11-.32.63-.3.69-.56.15-.61.03-1.76.24-2.47.34-.2.64-.19.72-.24Z"/>
  <path class="cls-1" d="M27.4,89.65c-.02.17.2,2.6-.48,1.92-.14-.14-.53-1.78-.48-2.16.23.08.8-.17.96.24Z"/>
  <path class="cls-3" d="M60.97,71.68c.1,1.05,0,1.6-1.2,1.44v-1.44s1.2,0,1.2,0Z"/>
  <path class="cls-3" d="M24.52,86.06c.2.15.48.51.48.72,0,.08-.29,1.63-.72,1.2-.11-.11-.6-2.02-.72-2.4.36.52.91.44.96.48Z"/>
  <path class="cls-1" d="M17.3,72.9c.28.17.3,1.95.26,2.38-.6-.1-1.15-2.21-.96-2.39.21.03.56-.07.7.02Z"/>
  <polygon class="cls-3" points="49.46 86.06 49.22 82.46 50.09 85.47 49.46 86.06"/>
  <path class="cls-3" d="M269.59,75.75v-.24l.24-2.88c1.18.78.05,2.31-.24,3.11Z"/>
  <polygon class="cls-3" points="220.44 36.22 219.93 35.14 220.44 32.63 220.44 36.22"/>
  <path class="cls-3" d="M236.74,104.51c.69-.65.35-1.96,1.44-1.68l-.48,1.44c-.18,0-.55.22-.96.24Z"/>
  <path class="cls-3" d="M255.45,101.39c.07-.34.64-2.08.72-2.16.15-.13.59-.1.46.34s-1.18,1.53.26,1.34c-.47.29-.91.39-1.44.48Z"/>
  <path class="cls-3" d="M19.48,60.42c-.14.93-.02,2.55-.72,3.11-.21-.77.59-2.57.48-3.11h.24Z"/>
  <path class="cls-3" d="M233.86,33.83c.46.44-1.71,1.48-2.16,1.19l2.16-1.19Z"/>
  <path class="cls-3" d="M264.8,48.2c-.24.46-.25,1.28-.96,1.19v-1.2s.96,0,.96,0Z"/>
  <path class="cls-3" d="M266,47c.39-.01-.02,1.44-.05,1.51-.19.42-.53.34-.79.64l.84-2.15Z"/>
  <path class="cls-3" d="M17.56,63.3c-.09-.24.23-.45.24-.48v.36s-.24.12-.24.12Z"/>
  <path class="cls-3" d="M269.11,75.51c-.01.11-.13.2-.24.24.02-.15,0-.32,0-.48h.24c0,.08.01.16,0,.24Z"/>
  <path class="cls-2" d="M203.17,43.17c-1.94-.37-3.37-.7-5.28-1.2-1.72-.91-3.67-1.31-5.44-2.11s-5.57-2.8-6.47-4.32c-.31-.53-.6-1.07-.56-1.71l2.65,2.26c9.4,5.49,21.25,6.7,32.01,6.14,17.08-.9,30.11-12.82,47.72-11.52,2.46.18,6.07.96,6.47,3.84-5.58-3.5-12.74-2.64-18.83-1.08-7.29,1.88-13.46,6.09-20.62,8.15-10.26,2.95-21.13,2.95-31.65,1.56Z"/>
  <path class="cls-3" d="M192.02,33.11c.16.08.16.16,0,.24v-.24Z"/>
  <path class="cls-3" d="M62.17,98.76c-.06.05-.44,1.32-1.19.71-.26-.21-.52-5.63-.49-6.46l.54.52.89,4.03-.47-5.27c.34-.06.35.42.41.67.49,1.99.41,4.19,1.02,6.17-.24.24-.54-.49-.71-.36Z"/>
  <path class="cls-4" d="M24.04,50.84c.07-.1.33-.7.48-.36-.97,3.55-.9,7.35-.45,10.99.26,2.1.89,4.18,1.28,6.15.69,3.53,1.34,7.07,2.29,10.53,2.09-1.05.31-3.46.35-4.91,0-.25.24-1.28.6-1.31.35.72.06,3.22.55,3.55.18.13.6,0,.66.05.03.03-.24.52-.25.83-.03.84.04,1.69,0,2.52l-.72-.96c-1.46.75-.02,2.98-.23,4.31.56.71.88-2.3,1.68-1.92.14,1.59-1.47,2.28-.96,4.07-.76.87-1.43-3.65-1.55-3.85-.22-.36-.76.12-.84.01-.21-.69.5-1.15.44-1.73-.09-.91-1.04-2.49-1.33-3.49-.27-.91-.88-2.94-1.02-3.57-.86-3.88-2.09-12.12-2.16-16.01-.02-1.41.17-2.9.72-4.19.03-.07.38-.58.48-.72Z"/>
  <path class="cls-4" d="M261.2,79.59c-.18-1.29.67-2.27,1.03-3.41,1.89-6.05,3.44-12.38,3.79-18.73l.93-3.5c.12.7.28,1.29.25,2.03-.17,3.72-1.64,12.4-2.77,15.93-.56,1.74-1.06,3.36-1.6,5.11-.24.79-.92,2.12-1.62,2.57Z"/>
  <path class="cls-4" d="M26.44,52.99c.25,1.72-.12,4.03,0,5.87.28,4.1,1.54,8.61,2.16,12.7-1.17.7-.81-1.6-.95-2.38-.05-.29-.7.03-.75-.26-.14-.71.2-3.51-.23-3.94-.47-.47-.62,1.02-1.2.72.9-1.39.94-4,.74-5.64-.07-.55-.63-.32-.75-.94-.26-1.41-.13-6.42,0-8.03.4.17.9,1.53.96,1.92Z"/>
  <path class="cls-4" d="M261.68,87.5c.15.14-1.42,3.26-1.62,3.77-.98,2.55-1.54,5.76-3.42,7.73l.24-2.16-.96.12c1.36-2.02,1.66-5.27,2.83-7.24.19-.33.29-.64.77-.55v1.07s-2.15,5.29-2.15,5.29l.47.12,3.06-7.85c-.03-.43.72-.35.78-.3Z"/>
  <path class="cls-3" d="M262.37,70.93c-.21.13-.65,0-.92.03-.32-.31,1.1-2.98,1.31-3.6.7-2.14,1.2-5.08,1.54-7.33.2-1.33-.39-2.98.99-3.92-.02,1.81-2.05,14.3-2.91,14.82Z"/>
  <path class="cls-4" d="M269.35,67.61c.44-1.9.07-4.37.27-6.32.16-1.61.9-3.12,1.17-4.7,1.63.31.04,1.21,0,1.37-.27,1.22.09,3.55,0,4.98-.09,1.33-.45,3.1-.72,4.44l-.72.24Z"/>
  <path class="cls-4" d="M31.23,60.9c.05.86.46,4.41.74,5.09.49,1.2.16.55.25,1.71.05.62,1.5,6.14.58,6.14-1.23-4.2-1.75-8.6-2.04-12.94h.48Z"/>
  <path class="cls-4" d="M29.55,66.17c.43,4.18,1.37,7.96,1.89,11.89.16,1.19-.64,1.08-.88.4-.45-1.26-1.34-6.06-1.43-7.45-.04-.63.23-1.08.21-1.6-.04-1.03-.46-2.12-.26-3.23.16-.02.32.01.48,0Z"/>
  <path class="cls-3" d="M257.84,76.95c-.3,4.46-2.39,8.56-3.59,12.82-.3.26-.32,1.74-.84,1.55-.47-.17-.2-.56-.15-.85.26-1.47,1.28-2.99,1.78-4.47.91-2.74,1.33-5.88,2.27-8.53.14-.39-.13-.64.54-.52Z"/>
  <path class="cls-3" d="M252.81,84.86l-3.95,11.26-.32-1.02c1.37-3.11,2.13-6.56,3.57-9.63.17-.36.16-.71.71-.61Z"/>
  <path class="cls-3" d="M260,79.83c.28.26-2.19,6.31-2.52,7.18l-2.03,4.08,3.64-10.86c.06-.4.77-.54.91-.4Z"/>
  <path class="cls-4" d="M254.73,93.25c-.13.52.19,1.33-.24,1.91.59.61,1.31-2.51,1.44-2.63.68-.65.36.96.31,1.15-.57,1.99-2.5,3.36-3.43,5.32l-.24-.24c.69-1.62,1.16-3.7,1.92-5.51h.24Z"/>
  <path class="cls-3" d="M29.79,50.6h-.72c-.17-2.6.28-5.14.54-7.72l.89-3.3-.72,11.02Z"/>
  <path class="cls-3" d="M246.81,92.53c-.17,2.2-1.2,4.83-2.11,6.87-.13.29-.5,1.43-.88,1.27-.59-.24-.13-1.28,0-1.67.57-1.65,1.55-4,2.23-5.68.16-.4.18-.94.76-.79Z"/>
  <path class="cls-3" d="M33.63,37.42c-.29,1.67.1,4.67-.71,6.06-.13.23-.59.25-.69.56-.08.26.15,2.41-.51,1.77-.57-.55.22-2.77,0-3.59l.72.24c.25-1.48.35-2.99.71-4.45.1-.4-.24-.7.48-.58Z"/>
  <path class="cls-3" d="M34.35,65.21c.65,2.65,1.17,5.63,1.41,8.54.02.26.16,1.05-.09,1.05-.41-1.31-.78-2.67-1.01-4.03-.31-1.84-.28-3.78-.55-5.56h.24Z"/>
  <path class="cls-3" d="M31.23,60.9h-.48c-.18-2.63-.36-5.25-.24-7.91.55.21.66,1.05.72,1.56.21,1.98-.13,4.31,0,6.35Z"/>
  <path class="cls-4" d="M268.87,75.28c0,.16.02.33,0,.48-.13.89-.71,2.26-1.09,3.11-.13.3-1.32,3.12-1.79,2.64l2.52-6.95.36-.24c0,.32,0,.64,0,.96Z"/>
  <path class="cls-3" d="M268.64,59.22c-.21,3.32-.64,5.66-1.2,8.87h-.24c.43-2.49.84-6.33.96-8.87h.48Z"/>
  <path class="cls-4" d="M261.2,82.22c.26-.43.73-.93.86-1.44.11-.44-.14-.89-.12-.93.04-.06.54-.12.8-.51.16-.24.78-3.18,1.57-2.39.29.29-2.96,6.45-2.63,7.67,1.85-1.42,2.01-4.27,3.83-5.75.34.69-.39,3.93-.24,4.07.08.07.64-.07.72,0,.09.08-.46,1.76-.49,2.28-.03.45-.2.98.49.84-.11.24-.43,1.39-.48,1.44l-.48-.24c.03-.61-.06-1.1-.24-1.68l-.95.84c.49-1.17,1.05-2.61,1.16-3.87.04-.47.32-1.5-.45-1.29l-2.29,5.26c-.09.3-.76.32-.83.25-.29-.3.57-1.69,0-1.91.04.41-1.06,4.25-1.68,3.59.37-2.04,1.27-4.16,1.44-6.23-.94,1.52-1.03,2.54-1.8,3.84-.18.31.04.6-.59.47.64-2.19.89-4.98,2.39-6.71-.04.79.07,1.61,0,2.4Z"/>
  <path class="cls-3" d="M262.16,63.06c-.21,1.53-.14,2.98-.55,4.61-.2.77-.51,2.08-1.13,2.58-.4-1.65.72-3.3.94-4.69.12-.72.15-1.69.25-2.5h.48Z"/>
  <path class="cls-4" d="M263.36,88.21c-.52,1.82-1.22,3.65-1.88,5.43-.57,1.53-1.19.77-.7-.7s1.69-3.49,2.58-4.73Z"/>
  <path class="cls-4" d="M25.72,40.77c-.49,2.76-.63,4.18-1.44,6.95l-.24-.24c.26-.39,1.01-5.72,1.2-6.71h.48Z"/>
  <path class="cls-4" d="M268.64,59.22h-.48c.07-1.53-.07-3.03-.13-4.56-.04-1,.71-.93.85-.12.25,1.38-.15,3.25-.24,4.67Z"/>
  <path class="cls-4" d="M256.65,91.57c-.19-.91.66-1.49.9-2.1.33-.85.13-2.19,1.26-2.69.05.67.03,1.21-.18,1.85-.07.23-1.03,2.26-1.15,2.44-.19.3-.42.57-.82.49Z"/>
  <path class="cls-3" d="M29.31,52.51c0,1.49-.33,2.98-.39,4.47-.02.53.62,1.94-.33,1.76-.17-1.77-.31-3.98.17-5.71.12-.42-.08-.62.55-.52Z"/>
  <path class="cls-3" d="M240.82,95.64c.09,1.02-.23,1.99-.54,2.94-.08.26-1.09,3.1-1.62,2.57.87-1.49.98-3.55,1.57-5.03.15-.38-.03-.59.59-.48Z"/>
  <path class="cls-3" d="M261.2,73.36c.29.37-.36,3.68-.61,4.31-.15.38.03.59-.59.48.29-1.36,0-3.31.66-4.48.15-.27-.01-.41.53-.31Z"/>
  <path class="cls-3" d="M31.47,37.42c-.19-.03-.67.05-.72,0-.29-.28.57-4.03,1.44-4.31l-.72,4.31Z"/>
  <path class="cls-4" d="M33.87,60.42c.2,1.58.12,3.34.48,4.79h-.24c-.23-1.53-.77-3.06-.96-4.79h.72Z"/>
  <path class="cls-3" d="M33.63,74.32c-.19,1.19.17,2.37.24,3.48.03.41-.25.59-.48.36-.37-.37-.68-3.64-.48-3.83h.72Z"/>
  <path class="cls-3" d="M44.18,64.25c-.05.04-.57.11-.72-.16-.43-.77-.77-2.76-.71-3.67.64.1,1.59,3.69,1.44,3.83Z"/>
  <path class="cls-4" d="M242.02,99.24c0,1.11-.72,2.97-1.68,3.59.11-1.39.88-2.79,1.44-4.07.23.06.24.28.24.48Z"/>
  <path class="cls-3" d="M24.04,47.48l.24.24c-.22.77-.49,1.6-.61,2.39-.07.46-.39.83.37.73-.1.14-.45.65-.48.72-.28-.88-.65-3.12-.1-3.83.18-.24.56-.22.58-.24Z"/>
  <path class="cls-3" d="M29.55,66.17c-.16.01-.32-.02-.48,0-.25.03-.53.25-.71.12.79-1.37.27-2.98.59-4.44.32,0,.54,3.71.6,4.32Z"/>
  <path class="cls-3" d="M29.79,58.98c.09.09-.05.7-.19.89l-1.25,1.74c0-.62-.05-1.92.36-2.4.22-.26.97-.34,1.08-.24Z"/>
  <path class="cls-4" d="M261.68,63.06c.05-.41.14-2.77.24-2.88h.72c.35,1.04-.38,2.13-.48,2.88h-.48Z"/>
  <path class="cls-3" d="M33.87,60.42h-.72c-.14-1.28-.36-2.53-.24-3.83.46.08.4.5.49.83.23.84.35,2.1.47,3.01Z"/>
  <path class="cls-3" d="M262.16,58.26c.06-.89.19-1.79.24-2.76.02-.49.14-.43.6-.35.37.06-.06,2.65-.12,3.12h-.72Z"/>
  <path class="cls-3" d="M46.82,70.72c-.85.05-.97-1.8-1.04-2.44-.02-.21-.26-.93.2-.91s.9,2.83.84,3.35Z"/>
  <path class="cls-3" d="M45.86,64.01c-.26.91.96,2.72-.48,2.88l-.24-2.88h.72Z"/>
  <path class="cls-3" d="M244.41,92.29c-.16.41-.37,2.78-.48,2.88-.03.02-.69.02-.72,0-.15-.14.22-3.1,1.2-2.87Z"/>
  <path class="cls-3" d="M250.89,97.56c.22.24-.51,1.53-.68,1.83-.21.37-.45,1.17-1,1.04-.23-.5,1.16-3.44,1.68-2.87Z"/>
  <path class="cls-3" d="M247.77,89.65c-.05.83-.1,2.01-.96,2.39,0-.75-.1-2.32.96-2.39Z"/>
  <path class="cls-3" d="M242.02,99.24c0-.2-.01-.42-.24-.48.27-.62.54-1.26.72-1.92,1.08.44-.19,1.64-.48,2.4Z"/>
  <path class="cls-4" d="M262.88,58.26c-.31,2.24-.88,2.51-.72,0h.72Z"/>
  <path class="cls-3" d="M254.73,93.25h-.24c.25-.6.23-1.6.96-1.92.15.7-.59,1.42-.72,1.92Z"/>
  <path class="cls-4" d="M25,72.64c-.08.16-.41-.14-.23-.48.08-.16.41.14.23.48Z"/>
  <path class="cls-4" d="M267.44,68.09c-.12.68.12,1.57-.01,2.27-.1.55-.68.89-.7,1.46-.02.45.33.88.2,1.37-.14.54-.89.7-1.17,1.07-.5.65-.63,1.94-1.55,2.45.5-3.03,2.47-5.55,3-8.62h.24Z"/>
  <path class="cls-3" d="M35.91,75.04c.16.08.16.16,0,.24v-.24Z"/>
  <path class="cls-4" d="M74.88,108.1c-.69.12-.4-.15-.51-.55-.72-2.52-.79-5.69-.92-8.31.59.29.58,1.44.68,2.07.36,2.23.45,4.55.75,6.79Z"/>
  <path class="cls-4" d="M80.63,103.79c-.68.11-.4-.14-.51-.55-.44-1.64-.47-3.51-.44-5.2.47.1.42.48.48.84.26,1.6.35,3.29.48,4.91Z"/>
  <path class="cls-4" d="M54.73,99.95c-.18,1.34.27,2.54.48,3.83-1.22.17-1.36-3.68-1.2-3.83h.72Z"/>
  <path class="cls-4" d="M78.71,104.98c-.62.05-.4.03-.47-.36-.31-1.7-.6-3.41-.48-5.15l.93,4.22.03,1.29Z"/>
  <rect class="cls-4" x="31.23" y="89.89" width=".48" height="3.59"/>
  <path class="cls-4" d="M265.04,47c-.72.12-.38-.18-.48-.58-.74-2.92-.27-6.49-.95-9.48.48.13.52.78.61,1.19.6,2.84.65,5.98.83,8.88Z"/>
  <path class="cls-4" d="M251.83,38.64c.33.21,1.96,6.68,1.94,7.64-.34.06-.31-.4-.41-.66-.89-2.25-1.37-4.76-2.22-7.01.21.03.56-.07.69.02Z"/>
  <path class="cls-4" d="M248.25,46.28c-.68-.38-.85-1.45-1.08-2.16-.52-1.63-.98-3.58-1.08-5.27.48.34.66,1.36.84,1.92.56,1.79,1.01,3.65,1.32,5.51Z"/>
  <path class="cls-4" d="M251.13,47c-.7.12-.39-.16-.51-.56-.73-2.4-1.38-4.89-1.89-7.35,1.69,2.1,1.66,5.38,2.39,7.91Z"/>
  <path class="cls-4" d="M272.23,43.89c-1.14,0-.42-1.88-.48-2.75-.08-1.12-.83-2.07-.24-3.24.49-.22.72.68.72.84v5.15Z"/>
  <path class="cls-4" d="M192.38,41.01c-.23,1.23.24,2.58.25,3.71,0,.38-.21.62-.48.36-.15-.14-.63-3.93-.48-4.07h.72Z"/>
  <path class="cls-4" d="M262.4,38.61c-.37.45-.52-.34-.6-.47-.54-.91-1.09-2.04-1.08-3.12.77.1,1.8,3.44,1.68,3.59Z"/>
  <path class="cls-4" d="M246.33,49.64c-.37.06-.28-.45-.35-.72-.32-1.26-.65-2.54-.84-3.83,1.18,1.02,1.1,3.12,1.19,4.55Z"/>
  <path class="cls-4" d="M254.97,41.25c-.55.1-.54-.25-.71-.61-.42-.88-.72-2.24-.73-3.22l1.2,2.75.23,1.09Z"/>
  <path class="cls-4" d="M238.18,47.48c-.36-.13-.48-1.06-.6-1.44-.25-.85-.48-1.75-.6-2.63,1.14.89,1.18,2.74,1.19,4.07Z"/>
  <path class="cls-4" d="M259.04,40.05c-.73-.33-.76-1.24-.71-1.92.65.31.71,1.3.71,1.92Z"/>
  <path class="cls-4" d="M195.01,28.79h-.23c-.12-1,.35-1,.23,0Z"/>
  <path class="cls-4" d="M228.83,30.23c.35-.05.33.42.41.67.34,1.18.41,2.21.07,3.4-.24.1-.48-.56-.48-.6v-3.47Z"/>
  <path class="cls-4" d="M64.08,87.97c-.08.16-.41-.14-.23-.48.08-.16.41.14.23.48Z"/>
  <path class="cls-4" d="M21.64,78.87c-.16-.05-.69-1.06-.72-1.2-.08-.39.03-.99,0-1.44.49.81.59,1.73.72,2.64Z"/>
  <path class="cls-4" d="M21.88,80.55c-.05-.58-.16-1.11-.24-1.68.21.06.65.04.72-.24,0,.04.21.17.2.36-.03.55-.46,1.16.03,1.68l-.71-.12Z"/>
  <path class="cls-4" d="M20.92,75.99h-.72c.14-.57-.22-1.36.72-1.68.02.56-.01,1.12,0,1.68Z"/>
  <path class="cls-4" d="M23.8,78.15c.68.76,1.36,2.73,1.44,3.75.02.24-.51.53-.72,1.04-.27-.41.1-.99,0-1.55-.08-.45-.52-.66-.71-1.22-.11-.35-.39-1.71-.02-2.02Z"/>
</svg>